%TF.GenerationSoftware,KiCad,Pcbnew,9.0.7*%
%TF.CreationDate,2026-02-17T14:37:03-05:00*%
%TF.ProjectId,funny-robot,66756e6e-792d-4726-9f62-6f742e6b6963,v1*%
%TF.SameCoordinates,Original*%
%TF.FileFunction,Legend,Top*%
%TF.FilePolarity,Positive*%
%FSLAX46Y46*%
G04 Gerber Fmt 4.6, Leading zero omitted, Abs format (unit mm)*
G04 Created by KiCad (PCBNEW 9.0.7) date 2026-02-17 14:37:03*
%MOMM*%
%LPD*%
G01*
G04 APERTURE LIST*
%ADD10C,0.150000*%
%ADD11C,0.250000*%
%ADD12C,0.300000*%
%ADD13C,0.200000*%
%ADD14C,0.120000*%
%ADD15C,0.127000*%
%ADD16C,0.000000*%
%ADD17C,1.524000*%
G04 APERTURE END LIST*
D10*
X172703152Y-58806077D02*
X172703152Y-58425125D01*
X172369819Y-58663220D02*
X173226961Y-58663220D01*
X173226961Y-58663220D02*
X173322200Y-58615601D01*
X173322200Y-58615601D02*
X173369819Y-58520363D01*
X173369819Y-58520363D02*
X173369819Y-58425125D01*
X173369819Y-57948934D02*
X173322200Y-58044172D01*
X173322200Y-58044172D02*
X173274580Y-58091791D01*
X173274580Y-58091791D02*
X173179342Y-58139410D01*
X173179342Y-58139410D02*
X172893628Y-58139410D01*
X172893628Y-58139410D02*
X172798390Y-58091791D01*
X172798390Y-58091791D02*
X172750771Y-58044172D01*
X172750771Y-58044172D02*
X172703152Y-57948934D01*
X172703152Y-57948934D02*
X172703152Y-57806077D01*
X172703152Y-57806077D02*
X172750771Y-57710839D01*
X172750771Y-57710839D02*
X172798390Y-57663220D01*
X172798390Y-57663220D02*
X172893628Y-57615601D01*
X172893628Y-57615601D02*
X173179342Y-57615601D01*
X173179342Y-57615601D02*
X173274580Y-57663220D01*
X173274580Y-57663220D02*
X173322200Y-57710839D01*
X173322200Y-57710839D02*
X173369819Y-57806077D01*
X173369819Y-57806077D02*
X173369819Y-57948934D01*
X172703152Y-56425124D02*
X173703152Y-56425124D01*
X172750771Y-56425124D02*
X172703152Y-56329886D01*
X172703152Y-56329886D02*
X172703152Y-56139410D01*
X172703152Y-56139410D02*
X172750771Y-56044172D01*
X172750771Y-56044172D02*
X172798390Y-55996553D01*
X172798390Y-55996553D02*
X172893628Y-55948934D01*
X172893628Y-55948934D02*
X173179342Y-55948934D01*
X173179342Y-55948934D02*
X173274580Y-55996553D01*
X173274580Y-55996553D02*
X173322200Y-56044172D01*
X173322200Y-56044172D02*
X173369819Y-56139410D01*
X173369819Y-56139410D02*
X173369819Y-56329886D01*
X173369819Y-56329886D02*
X173322200Y-56425124D01*
X173322200Y-55091791D02*
X173369819Y-55187029D01*
X173369819Y-55187029D02*
X173369819Y-55377505D01*
X173369819Y-55377505D02*
X173322200Y-55472743D01*
X173322200Y-55472743D02*
X173274580Y-55520362D01*
X173274580Y-55520362D02*
X173179342Y-55567981D01*
X173179342Y-55567981D02*
X172893628Y-55567981D01*
X172893628Y-55567981D02*
X172798390Y-55520362D01*
X172798390Y-55520362D02*
X172750771Y-55472743D01*
X172750771Y-55472743D02*
X172703152Y-55377505D01*
X172703152Y-55377505D02*
X172703152Y-55187029D01*
X172703152Y-55187029D02*
X172750771Y-55091791D01*
X172988866Y-53901314D02*
X172988866Y-53139410D01*
X172703152Y-52663219D02*
X172988866Y-51901315D01*
X172988866Y-51901315D02*
X173274580Y-52663219D01*
D11*
X115163660Y-85558680D02*
X115735088Y-85558680D01*
X115377945Y-86558680D02*
X115377945Y-85272966D01*
X115377945Y-85272966D02*
X115449374Y-85130109D01*
X115449374Y-85130109D02*
X115592231Y-85058680D01*
X115592231Y-85058680D02*
X115735088Y-85058680D01*
X116877946Y-85558680D02*
X116877946Y-86558680D01*
X116235088Y-85558680D02*
X116235088Y-86344394D01*
X116235088Y-86344394D02*
X116306517Y-86487252D01*
X116306517Y-86487252D02*
X116449374Y-86558680D01*
X116449374Y-86558680D02*
X116663660Y-86558680D01*
X116663660Y-86558680D02*
X116806517Y-86487252D01*
X116806517Y-86487252D02*
X116877946Y-86415823D01*
X117592231Y-85558680D02*
X117592231Y-86558680D01*
X117592231Y-85701537D02*
X117663660Y-85630109D01*
X117663660Y-85630109D02*
X117806517Y-85558680D01*
X117806517Y-85558680D02*
X118020803Y-85558680D01*
X118020803Y-85558680D02*
X118163660Y-85630109D01*
X118163660Y-85630109D02*
X118235089Y-85772966D01*
X118235089Y-85772966D02*
X118235089Y-86558680D01*
X118949374Y-85558680D02*
X118949374Y-86558680D01*
X118949374Y-85701537D02*
X119020803Y-85630109D01*
X119020803Y-85630109D02*
X119163660Y-85558680D01*
X119163660Y-85558680D02*
X119377946Y-85558680D01*
X119377946Y-85558680D02*
X119520803Y-85630109D01*
X119520803Y-85630109D02*
X119592232Y-85772966D01*
X119592232Y-85772966D02*
X119592232Y-86558680D01*
X120163660Y-85558680D02*
X120520803Y-86558680D01*
X120877946Y-85558680D02*
X120520803Y-86558680D01*
X120520803Y-86558680D02*
X120377946Y-86915823D01*
X120377946Y-86915823D02*
X120306517Y-86987252D01*
X120306517Y-86987252D02*
X120163660Y-87058680D01*
X122592231Y-86558680D02*
X122592231Y-85558680D01*
X122592231Y-85844394D02*
X122663660Y-85701537D01*
X122663660Y-85701537D02*
X122735089Y-85630109D01*
X122735089Y-85630109D02*
X122877946Y-85558680D01*
X122877946Y-85558680D02*
X123020803Y-85558680D01*
X123735088Y-86558680D02*
X123592231Y-86487252D01*
X123592231Y-86487252D02*
X123520802Y-86415823D01*
X123520802Y-86415823D02*
X123449374Y-86272966D01*
X123449374Y-86272966D02*
X123449374Y-85844394D01*
X123449374Y-85844394D02*
X123520802Y-85701537D01*
X123520802Y-85701537D02*
X123592231Y-85630109D01*
X123592231Y-85630109D02*
X123735088Y-85558680D01*
X123735088Y-85558680D02*
X123949374Y-85558680D01*
X123949374Y-85558680D02*
X124092231Y-85630109D01*
X124092231Y-85630109D02*
X124163660Y-85701537D01*
X124163660Y-85701537D02*
X124235088Y-85844394D01*
X124235088Y-85844394D02*
X124235088Y-86272966D01*
X124235088Y-86272966D02*
X124163660Y-86415823D01*
X124163660Y-86415823D02*
X124092231Y-86487252D01*
X124092231Y-86487252D02*
X123949374Y-86558680D01*
X123949374Y-86558680D02*
X123735088Y-86558680D01*
X124877945Y-86558680D02*
X124877945Y-85058680D01*
X124877945Y-85630109D02*
X125020803Y-85558680D01*
X125020803Y-85558680D02*
X125306517Y-85558680D01*
X125306517Y-85558680D02*
X125449374Y-85630109D01*
X125449374Y-85630109D02*
X125520803Y-85701537D01*
X125520803Y-85701537D02*
X125592231Y-85844394D01*
X125592231Y-85844394D02*
X125592231Y-86272966D01*
X125592231Y-86272966D02*
X125520803Y-86415823D01*
X125520803Y-86415823D02*
X125449374Y-86487252D01*
X125449374Y-86487252D02*
X125306517Y-86558680D01*
X125306517Y-86558680D02*
X125020803Y-86558680D01*
X125020803Y-86558680D02*
X124877945Y-86487252D01*
X126449374Y-86558680D02*
X126306517Y-86487252D01*
X126306517Y-86487252D02*
X126235088Y-86415823D01*
X126235088Y-86415823D02*
X126163660Y-86272966D01*
X126163660Y-86272966D02*
X126163660Y-85844394D01*
X126163660Y-85844394D02*
X126235088Y-85701537D01*
X126235088Y-85701537D02*
X126306517Y-85630109D01*
X126306517Y-85630109D02*
X126449374Y-85558680D01*
X126449374Y-85558680D02*
X126663660Y-85558680D01*
X126663660Y-85558680D02*
X126806517Y-85630109D01*
X126806517Y-85630109D02*
X126877946Y-85701537D01*
X126877946Y-85701537D02*
X126949374Y-85844394D01*
X126949374Y-85844394D02*
X126949374Y-86272966D01*
X126949374Y-86272966D02*
X126877946Y-86415823D01*
X126877946Y-86415823D02*
X126806517Y-86487252D01*
X126806517Y-86487252D02*
X126663660Y-86558680D01*
X126663660Y-86558680D02*
X126449374Y-86558680D01*
X127377946Y-85558680D02*
X127949374Y-85558680D01*
X127592231Y-85058680D02*
X127592231Y-86344394D01*
X127592231Y-86344394D02*
X127663660Y-86487252D01*
X127663660Y-86487252D02*
X127806517Y-86558680D01*
X127806517Y-86558680D02*
X127949374Y-86558680D01*
X115377945Y-88973596D02*
X115377945Y-87473596D01*
X115377945Y-88045025D02*
X115520803Y-87973596D01*
X115520803Y-87973596D02*
X115806517Y-87973596D01*
X115806517Y-87973596D02*
X115949374Y-88045025D01*
X115949374Y-88045025D02*
X116020803Y-88116453D01*
X116020803Y-88116453D02*
X116092231Y-88259310D01*
X116092231Y-88259310D02*
X116092231Y-88687882D01*
X116092231Y-88687882D02*
X116020803Y-88830739D01*
X116020803Y-88830739D02*
X115949374Y-88902168D01*
X115949374Y-88902168D02*
X115806517Y-88973596D01*
X115806517Y-88973596D02*
X115520803Y-88973596D01*
X115520803Y-88973596D02*
X115377945Y-88902168D01*
X116735088Y-88973596D02*
X116735088Y-87973596D01*
X116735088Y-88259310D02*
X116806517Y-88116453D01*
X116806517Y-88116453D02*
X116877946Y-88045025D01*
X116877946Y-88045025D02*
X117020803Y-87973596D01*
X117020803Y-87973596D02*
X117163660Y-87973596D01*
X118235088Y-88902168D02*
X118092231Y-88973596D01*
X118092231Y-88973596D02*
X117806517Y-88973596D01*
X117806517Y-88973596D02*
X117663659Y-88902168D01*
X117663659Y-88902168D02*
X117592231Y-88759310D01*
X117592231Y-88759310D02*
X117592231Y-88187882D01*
X117592231Y-88187882D02*
X117663659Y-88045025D01*
X117663659Y-88045025D02*
X117806517Y-87973596D01*
X117806517Y-87973596D02*
X118092231Y-87973596D01*
X118092231Y-87973596D02*
X118235088Y-88045025D01*
X118235088Y-88045025D02*
X118306517Y-88187882D01*
X118306517Y-88187882D02*
X118306517Y-88330739D01*
X118306517Y-88330739D02*
X117592231Y-88473596D01*
X119592231Y-88973596D02*
X119592231Y-88187882D01*
X119592231Y-88187882D02*
X119520802Y-88045025D01*
X119520802Y-88045025D02*
X119377945Y-87973596D01*
X119377945Y-87973596D02*
X119092231Y-87973596D01*
X119092231Y-87973596D02*
X118949373Y-88045025D01*
X119592231Y-88902168D02*
X119449373Y-88973596D01*
X119449373Y-88973596D02*
X119092231Y-88973596D01*
X119092231Y-88973596D02*
X118949373Y-88902168D01*
X118949373Y-88902168D02*
X118877945Y-88759310D01*
X118877945Y-88759310D02*
X118877945Y-88616453D01*
X118877945Y-88616453D02*
X118949373Y-88473596D01*
X118949373Y-88473596D02*
X119092231Y-88402168D01*
X119092231Y-88402168D02*
X119449373Y-88402168D01*
X119449373Y-88402168D02*
X119592231Y-88330739D01*
X120306516Y-88973596D02*
X120306516Y-87473596D01*
X120449374Y-88402168D02*
X120877945Y-88973596D01*
X120877945Y-87973596D02*
X120306516Y-88545025D01*
X121735088Y-88973596D02*
X121592231Y-88902168D01*
X121592231Y-88902168D02*
X121520802Y-88830739D01*
X121520802Y-88830739D02*
X121449374Y-88687882D01*
X121449374Y-88687882D02*
X121449374Y-88259310D01*
X121449374Y-88259310D02*
X121520802Y-88116453D01*
X121520802Y-88116453D02*
X121592231Y-88045025D01*
X121592231Y-88045025D02*
X121735088Y-87973596D01*
X121735088Y-87973596D02*
X121949374Y-87973596D01*
X121949374Y-87973596D02*
X122092231Y-88045025D01*
X122092231Y-88045025D02*
X122163660Y-88116453D01*
X122163660Y-88116453D02*
X122235088Y-88259310D01*
X122235088Y-88259310D02*
X122235088Y-88687882D01*
X122235088Y-88687882D02*
X122163660Y-88830739D01*
X122163660Y-88830739D02*
X122092231Y-88902168D01*
X122092231Y-88902168D02*
X121949374Y-88973596D01*
X121949374Y-88973596D02*
X121735088Y-88973596D01*
X123520803Y-87973596D02*
X123520803Y-88973596D01*
X122877945Y-87973596D02*
X122877945Y-88759310D01*
X122877945Y-88759310D02*
X122949374Y-88902168D01*
X122949374Y-88902168D02*
X123092231Y-88973596D01*
X123092231Y-88973596D02*
X123306517Y-88973596D01*
X123306517Y-88973596D02*
X123449374Y-88902168D01*
X123449374Y-88902168D02*
X123520803Y-88830739D01*
X124020803Y-87973596D02*
X124592231Y-87973596D01*
X124235088Y-87473596D02*
X124235088Y-88759310D01*
X124235088Y-88759310D02*
X124306517Y-88902168D01*
X124306517Y-88902168D02*
X124449374Y-88973596D01*
X124449374Y-88973596D02*
X124592231Y-88973596D01*
X126235088Y-88973596D02*
X126235088Y-87473596D01*
X126235088Y-88045025D02*
X126377946Y-87973596D01*
X126377946Y-87973596D02*
X126663660Y-87973596D01*
X126663660Y-87973596D02*
X126806517Y-88045025D01*
X126806517Y-88045025D02*
X126877946Y-88116453D01*
X126877946Y-88116453D02*
X126949374Y-88259310D01*
X126949374Y-88259310D02*
X126949374Y-88687882D01*
X126949374Y-88687882D02*
X126877946Y-88830739D01*
X126877946Y-88830739D02*
X126806517Y-88902168D01*
X126806517Y-88902168D02*
X126663660Y-88973596D01*
X126663660Y-88973596D02*
X126377946Y-88973596D01*
X126377946Y-88973596D02*
X126235088Y-88902168D01*
X127806517Y-88973596D02*
X127663660Y-88902168D01*
X127663660Y-88902168D02*
X127592231Y-88830739D01*
X127592231Y-88830739D02*
X127520803Y-88687882D01*
X127520803Y-88687882D02*
X127520803Y-88259310D01*
X127520803Y-88259310D02*
X127592231Y-88116453D01*
X127592231Y-88116453D02*
X127663660Y-88045025D01*
X127663660Y-88045025D02*
X127806517Y-87973596D01*
X127806517Y-87973596D02*
X128020803Y-87973596D01*
X128020803Y-87973596D02*
X128163660Y-88045025D01*
X128163660Y-88045025D02*
X128235089Y-88116453D01*
X128235089Y-88116453D02*
X128306517Y-88259310D01*
X128306517Y-88259310D02*
X128306517Y-88687882D01*
X128306517Y-88687882D02*
X128235089Y-88830739D01*
X128235089Y-88830739D02*
X128163660Y-88902168D01*
X128163660Y-88902168D02*
X128020803Y-88973596D01*
X128020803Y-88973596D02*
X127806517Y-88973596D01*
X129592232Y-88973596D02*
X129592232Y-88187882D01*
X129592232Y-88187882D02*
X129520803Y-88045025D01*
X129520803Y-88045025D02*
X129377946Y-87973596D01*
X129377946Y-87973596D02*
X129092232Y-87973596D01*
X129092232Y-87973596D02*
X128949374Y-88045025D01*
X129592232Y-88902168D02*
X129449374Y-88973596D01*
X129449374Y-88973596D02*
X129092232Y-88973596D01*
X129092232Y-88973596D02*
X128949374Y-88902168D01*
X128949374Y-88902168D02*
X128877946Y-88759310D01*
X128877946Y-88759310D02*
X128877946Y-88616453D01*
X128877946Y-88616453D02*
X128949374Y-88473596D01*
X128949374Y-88473596D02*
X129092232Y-88402168D01*
X129092232Y-88402168D02*
X129449374Y-88402168D01*
X129449374Y-88402168D02*
X129592232Y-88330739D01*
X130306517Y-88973596D02*
X130306517Y-87973596D01*
X130306517Y-88259310D02*
X130377946Y-88116453D01*
X130377946Y-88116453D02*
X130449375Y-88045025D01*
X130449375Y-88045025D02*
X130592232Y-87973596D01*
X130592232Y-87973596D02*
X130735089Y-87973596D01*
X131877946Y-88973596D02*
X131877946Y-87473596D01*
X131877946Y-88902168D02*
X131735088Y-88973596D01*
X131735088Y-88973596D02*
X131449374Y-88973596D01*
X131449374Y-88973596D02*
X131306517Y-88902168D01*
X131306517Y-88902168D02*
X131235088Y-88830739D01*
X131235088Y-88830739D02*
X131163660Y-88687882D01*
X131163660Y-88687882D02*
X131163660Y-88259310D01*
X131163660Y-88259310D02*
X131235088Y-88116453D01*
X131235088Y-88116453D02*
X131306517Y-88045025D01*
X131306517Y-88045025D02*
X131449374Y-87973596D01*
X131449374Y-87973596D02*
X131735088Y-87973596D01*
X131735088Y-87973596D02*
X131877946Y-88045025D01*
X115235088Y-90388512D02*
X115592231Y-91388512D01*
X115592231Y-91388512D02*
X115949374Y-90388512D01*
X117306517Y-91388512D02*
X116449374Y-91388512D01*
X116877945Y-91388512D02*
X116877945Y-89888512D01*
X116877945Y-89888512D02*
X116735088Y-90102798D01*
X116735088Y-90102798D02*
X116592231Y-90245655D01*
X116592231Y-90245655D02*
X116449374Y-90317084D01*
X115306517Y-92446285D02*
X115377945Y-92374857D01*
X115377945Y-92374857D02*
X115520803Y-92303428D01*
X115520803Y-92303428D02*
X115877945Y-92303428D01*
X115877945Y-92303428D02*
X116020803Y-92374857D01*
X116020803Y-92374857D02*
X116092231Y-92446285D01*
X116092231Y-92446285D02*
X116163660Y-92589142D01*
X116163660Y-92589142D02*
X116163660Y-92732000D01*
X116163660Y-92732000D02*
X116092231Y-92946285D01*
X116092231Y-92946285D02*
X115235088Y-93803428D01*
X115235088Y-93803428D02*
X116163660Y-93803428D01*
X117092231Y-92303428D02*
X117235088Y-92303428D01*
X117235088Y-92303428D02*
X117377945Y-92374857D01*
X117377945Y-92374857D02*
X117449374Y-92446285D01*
X117449374Y-92446285D02*
X117520802Y-92589142D01*
X117520802Y-92589142D02*
X117592231Y-92874857D01*
X117592231Y-92874857D02*
X117592231Y-93232000D01*
X117592231Y-93232000D02*
X117520802Y-93517714D01*
X117520802Y-93517714D02*
X117449374Y-93660571D01*
X117449374Y-93660571D02*
X117377945Y-93732000D01*
X117377945Y-93732000D02*
X117235088Y-93803428D01*
X117235088Y-93803428D02*
X117092231Y-93803428D01*
X117092231Y-93803428D02*
X116949374Y-93732000D01*
X116949374Y-93732000D02*
X116877945Y-93660571D01*
X116877945Y-93660571D02*
X116806516Y-93517714D01*
X116806516Y-93517714D02*
X116735088Y-93232000D01*
X116735088Y-93232000D02*
X116735088Y-92874857D01*
X116735088Y-92874857D02*
X116806516Y-92589142D01*
X116806516Y-92589142D02*
X116877945Y-92446285D01*
X116877945Y-92446285D02*
X116949374Y-92374857D01*
X116949374Y-92374857D02*
X117092231Y-92303428D01*
X118163659Y-92446285D02*
X118235087Y-92374857D01*
X118235087Y-92374857D02*
X118377945Y-92303428D01*
X118377945Y-92303428D02*
X118735087Y-92303428D01*
X118735087Y-92303428D02*
X118877945Y-92374857D01*
X118877945Y-92374857D02*
X118949373Y-92446285D01*
X118949373Y-92446285D02*
X119020802Y-92589142D01*
X119020802Y-92589142D02*
X119020802Y-92732000D01*
X119020802Y-92732000D02*
X118949373Y-92946285D01*
X118949373Y-92946285D02*
X118092230Y-93803428D01*
X118092230Y-93803428D02*
X119020802Y-93803428D01*
X120306516Y-92303428D02*
X120020801Y-92303428D01*
X120020801Y-92303428D02*
X119877944Y-92374857D01*
X119877944Y-92374857D02*
X119806516Y-92446285D01*
X119806516Y-92446285D02*
X119663658Y-92660571D01*
X119663658Y-92660571D02*
X119592230Y-92946285D01*
X119592230Y-92946285D02*
X119592230Y-93517714D01*
X119592230Y-93517714D02*
X119663658Y-93660571D01*
X119663658Y-93660571D02*
X119735087Y-93732000D01*
X119735087Y-93732000D02*
X119877944Y-93803428D01*
X119877944Y-93803428D02*
X120163658Y-93803428D01*
X120163658Y-93803428D02*
X120306516Y-93732000D01*
X120306516Y-93732000D02*
X120377944Y-93660571D01*
X120377944Y-93660571D02*
X120449373Y-93517714D01*
X120449373Y-93517714D02*
X120449373Y-93160571D01*
X120449373Y-93160571D02*
X120377944Y-93017714D01*
X120377944Y-93017714D02*
X120306516Y-92946285D01*
X120306516Y-92946285D02*
X120163658Y-92874857D01*
X120163658Y-92874857D02*
X119877944Y-92874857D01*
X119877944Y-92874857D02*
X119735087Y-92946285D01*
X119735087Y-92946285D02*
X119663658Y-93017714D01*
X119663658Y-93017714D02*
X119592230Y-93160571D01*
D12*
G36*
X120144008Y-105100748D02*
G01*
X120158388Y-105462349D01*
X120163039Y-105499826D01*
X120170845Y-105521792D01*
X120233401Y-105596072D01*
X120245266Y-105615895D01*
X120249613Y-105644341D01*
X120240935Y-105685226D01*
X120215133Y-105716905D01*
X120167364Y-105741336D01*
X120069452Y-105760072D01*
X119876746Y-105768447D01*
X119745402Y-105760832D01*
X119675886Y-105743442D01*
X119640248Y-105721224D01*
X119620382Y-105693199D01*
X119613604Y-105657530D01*
X119620016Y-105625931D01*
X119661598Y-105577296D01*
X119679311Y-105543017D01*
X119694746Y-105459392D01*
X119701715Y-105291257D01*
X119697227Y-105196516D01*
X119685622Y-105129117D01*
X119669200Y-105082704D01*
X119647618Y-105053811D01*
X119616808Y-105036262D01*
X119573488Y-105029856D01*
X119531176Y-105035295D01*
X119501652Y-105049876D01*
X119481439Y-105072996D01*
X119464212Y-105125595D01*
X119456526Y-105231357D01*
X119456526Y-105434781D01*
X119458875Y-105490156D01*
X119464036Y-105517121D01*
X119514503Y-105603674D01*
X119523236Y-105623991D01*
X119526227Y-105647363D01*
X119517757Y-105683579D01*
X119491513Y-105713778D01*
X119440955Y-105739321D01*
X119343897Y-105759808D01*
X119176898Y-105768447D01*
X119049668Y-105760668D01*
X118969519Y-105741454D01*
X118922254Y-105715434D01*
X118897289Y-105684476D01*
X118889119Y-105646997D01*
X118891669Y-105623224D01*
X118898187Y-105607888D01*
X118940502Y-105570335D01*
X118962078Y-105549402D01*
X118973291Y-105526830D01*
X118986480Y-105403548D01*
X118993625Y-105157351D01*
X118990242Y-105093047D01*
X118983183Y-105065485D01*
X118966257Y-105044622D01*
X118922275Y-105012454D01*
X118887439Y-104979279D01*
X118876846Y-104941929D01*
X118885831Y-104904131D01*
X118913482Y-104873510D01*
X118960286Y-104847678D01*
X119062135Y-104807382D01*
X119252095Y-104748947D01*
X119336906Y-104729614D01*
X119377757Y-104725041D01*
X119407168Y-104730921D01*
X119431521Y-104748580D01*
X119447943Y-104774258D01*
X119453412Y-104804176D01*
X119452404Y-104830280D01*
X119451397Y-104844385D01*
X119456241Y-104871675D01*
X119468564Y-104885909D01*
X119489407Y-104890913D01*
X119511029Y-104883229D01*
X119539324Y-104853269D01*
X119588745Y-104797249D01*
X119646982Y-104757823D01*
X119715752Y-104733572D01*
X119797886Y-104725041D01*
X119882277Y-104732995D01*
X119955906Y-104755902D01*
X120020910Y-104793368D01*
X120077078Y-104847460D01*
X120111951Y-104908040D01*
X120131663Y-104981822D01*
X120144008Y-105100748D01*
G37*
G36*
X120879118Y-104791720D02*
G01*
X120879118Y-105389168D01*
X120882866Y-105454748D01*
X120891666Y-105491842D01*
X120909642Y-105521586D01*
X120942499Y-105551284D01*
X120985822Y-105590760D01*
X120994018Y-105608856D01*
X120996996Y-105632892D01*
X120987680Y-105674167D01*
X120958933Y-105708608D01*
X120903846Y-105737861D01*
X120809570Y-105759611D01*
X120659025Y-105768447D01*
X120487707Y-105760260D01*
X120372345Y-105739596D01*
X120338773Y-105724816D01*
X120312902Y-105702593D01*
X120295904Y-105674139D01*
X120290279Y-105642051D01*
X120293476Y-105615468D01*
X120301911Y-105597355D01*
X120360072Y-105547071D01*
X120385565Y-105518328D01*
X120404127Y-105471325D01*
X120413438Y-105411890D01*
X120417316Y-105312873D01*
X120412645Y-105186019D01*
X120406050Y-105077667D01*
X120390292Y-105043039D01*
X120350455Y-105015202D01*
X120312527Y-104991594D01*
X120291967Y-104963757D01*
X120285150Y-104930205D01*
X120293757Y-104891199D01*
X120320140Y-104858638D01*
X120370055Y-104830921D01*
X120487681Y-104790481D01*
X120616343Y-104755908D01*
X120740997Y-104731571D01*
X120819859Y-104725041D01*
X120852835Y-104732480D01*
X120871819Y-104753130D01*
X120879118Y-104791720D01*
G37*
G36*
X120673313Y-104344023D02*
G01*
X120757434Y-104353365D01*
X120816653Y-104378186D01*
X120846840Y-104404283D01*
X120864094Y-104434567D01*
X120869959Y-104470601D01*
X120861300Y-104520069D01*
X120835516Y-104562101D01*
X120789542Y-104598829D01*
X120702922Y-104638609D01*
X120602611Y-104663516D01*
X120485826Y-104672285D01*
X120415124Y-104664277D01*
X120365384Y-104642976D01*
X120331038Y-104613746D01*
X120311313Y-104579235D01*
X120304567Y-104537554D01*
X120311551Y-104497327D01*
X120332783Y-104461075D01*
X120371166Y-104427234D01*
X120432429Y-104395680D01*
X120519441Y-104366135D01*
X120599378Y-104349374D01*
X120673313Y-104344023D01*
G37*
G36*
X122299696Y-105100748D02*
G01*
X122314075Y-105462349D01*
X122318726Y-105499826D01*
X122326532Y-105521792D01*
X122389089Y-105596072D01*
X122400954Y-105615895D01*
X122405300Y-105644341D01*
X122396623Y-105685226D01*
X122370820Y-105716905D01*
X122323051Y-105741336D01*
X122225139Y-105760072D01*
X122032433Y-105768447D01*
X121901089Y-105760832D01*
X121831574Y-105743442D01*
X121795935Y-105721224D01*
X121776069Y-105693199D01*
X121769292Y-105657530D01*
X121775703Y-105625931D01*
X121817286Y-105577296D01*
X121834998Y-105543017D01*
X121850433Y-105459392D01*
X121857402Y-105291257D01*
X121852914Y-105196516D01*
X121841309Y-105129117D01*
X121824888Y-105082704D01*
X121803305Y-105053811D01*
X121772496Y-105036262D01*
X121729175Y-105029856D01*
X121686864Y-105035295D01*
X121657339Y-105049876D01*
X121637126Y-105072996D01*
X121619900Y-105125595D01*
X121612213Y-105231357D01*
X121612213Y-105434781D01*
X121614562Y-105490156D01*
X121619724Y-105517121D01*
X121670190Y-105603674D01*
X121678923Y-105623991D01*
X121681914Y-105647363D01*
X121673445Y-105683579D01*
X121647200Y-105713778D01*
X121596643Y-105739321D01*
X121499584Y-105759808D01*
X121332586Y-105768447D01*
X121205355Y-105760668D01*
X121125206Y-105741454D01*
X121077941Y-105715434D01*
X121052977Y-105684476D01*
X121044806Y-105646997D01*
X121047356Y-105623224D01*
X121053874Y-105607888D01*
X121096189Y-105570335D01*
X121117765Y-105549402D01*
X121128979Y-105526830D01*
X121142168Y-105403548D01*
X121149312Y-105157351D01*
X121145929Y-105093047D01*
X121138870Y-105065485D01*
X121121944Y-105044622D01*
X121077962Y-105012454D01*
X121043127Y-104979279D01*
X121032533Y-104941929D01*
X121041518Y-104904131D01*
X121069170Y-104873510D01*
X121115973Y-104847678D01*
X121217822Y-104807382D01*
X121407782Y-104748947D01*
X121492593Y-104729614D01*
X121533445Y-104725041D01*
X121562856Y-104730921D01*
X121587209Y-104748580D01*
X121603630Y-104774258D01*
X121609099Y-104804176D01*
X121608092Y-104830280D01*
X121607084Y-104844385D01*
X121611928Y-104871675D01*
X121624252Y-104885909D01*
X121645094Y-104890913D01*
X121666717Y-104883229D01*
X121695011Y-104853269D01*
X121744432Y-104797249D01*
X121802669Y-104757823D01*
X121871439Y-104733572D01*
X121953573Y-104725041D01*
X122037964Y-104732995D01*
X122111593Y-104755902D01*
X122176597Y-104793368D01*
X122232765Y-104847460D01*
X122267639Y-104908040D01*
X122287351Y-104981822D01*
X122299696Y-105100748D01*
G37*
G36*
X123189725Y-104719744D02*
G01*
X123275124Y-104738470D01*
X123353877Y-104769092D01*
X123426999Y-104811778D01*
X123490305Y-104863219D01*
X123544765Y-104924045D01*
X123590855Y-104995143D01*
X123626638Y-105075772D01*
X123647752Y-105157611D01*
X123654786Y-105241707D01*
X123646777Y-105328045D01*
X123623130Y-105408162D01*
X123583540Y-105483585D01*
X123526563Y-105555421D01*
X123449713Y-105624282D01*
X123348203Y-105690050D01*
X123240746Y-105736587D01*
X123125984Y-105764727D01*
X123002199Y-105774309D01*
X122880382Y-105764758D01*
X122775131Y-105737528D01*
X122683594Y-105693802D01*
X122603595Y-105633442D01*
X122538950Y-105560241D01*
X122493063Y-105477769D01*
X122464915Y-105384171D01*
X122455126Y-105276786D01*
X122462672Y-105180723D01*
X122484579Y-105094154D01*
X122488914Y-105084628D01*
X122918027Y-105084628D01*
X122922966Y-105151119D01*
X122941016Y-105252056D01*
X122966943Y-105354636D01*
X122995696Y-105440001D01*
X123022442Y-105487830D01*
X123055401Y-105513645D01*
X123096446Y-105522250D01*
X123134634Y-105515367D01*
X123160837Y-105496222D01*
X123178007Y-105462981D01*
X123184740Y-105409135D01*
X123179387Y-105320647D01*
X123161751Y-105213588D01*
X123134919Y-105109769D01*
X123106155Y-105035627D01*
X123079609Y-104995655D01*
X123049469Y-104973471D01*
X123014381Y-104965376D01*
X122974894Y-104973573D01*
X122944405Y-104997800D01*
X122925079Y-105034244D01*
X122918027Y-105084628D01*
X122488914Y-105084628D01*
X122520405Y-105015423D01*
X122570601Y-104943249D01*
X122636476Y-104876808D01*
X122735524Y-104805708D01*
X122843886Y-104755008D01*
X122963394Y-104724006D01*
X123096446Y-104713318D01*
X123189725Y-104719744D01*
G37*
G36*
X124876875Y-104350091D02*
G01*
X124903746Y-104366084D01*
X124920067Y-104391785D01*
X124926161Y-104430942D01*
X124926161Y-105365721D01*
X124932573Y-105467021D01*
X124943795Y-105487269D01*
X124968934Y-105509794D01*
X125002344Y-105536102D01*
X125019492Y-105555681D01*
X125029307Y-105577341D01*
X125032773Y-105604316D01*
X125024876Y-105638680D01*
X124999597Y-105670645D01*
X124950237Y-105701636D01*
X124865619Y-105730803D01*
X124716060Y-105759107D01*
X124567674Y-105768447D01*
X124537145Y-105765165D01*
X124523160Y-105757822D01*
X124515352Y-105743382D01*
X124509422Y-105709371D01*
X124502283Y-105678988D01*
X124490902Y-105664395D01*
X124475442Y-105659820D01*
X124457764Y-105665365D01*
X124422960Y-105689862D01*
X124349215Y-105737217D01*
X124271704Y-105764989D01*
X124188578Y-105774309D01*
X124111211Y-105766968D01*
X124038243Y-105745134D01*
X123968365Y-105708286D01*
X123900616Y-105654874D01*
X123832715Y-105577942D01*
X123779075Y-105490010D01*
X123744327Y-105407513D01*
X123724031Y-105325950D01*
X123718716Y-105261124D01*
X124212026Y-105261124D01*
X124218563Y-105353538D01*
X124235917Y-105421938D01*
X124261668Y-105471783D01*
X124288203Y-105500122D01*
X124319324Y-105516594D01*
X124356648Y-105522250D01*
X124394686Y-105514244D01*
X124425567Y-105490124D01*
X124450987Y-105445314D01*
X124471802Y-105356071D01*
X124480754Y-105194812D01*
X124475399Y-105087644D01*
X124462386Y-105021705D01*
X124445308Y-104984153D01*
X124412619Y-104953683D01*
X124366814Y-104941929D01*
X124327604Y-104949284D01*
X124293873Y-104971475D01*
X124263958Y-105011813D01*
X124236514Y-105076999D01*
X124218572Y-105158852D01*
X124212026Y-105261124D01*
X123718716Y-105261124D01*
X123717342Y-105244363D01*
X123726093Y-105148955D01*
X123752508Y-105055411D01*
X123797668Y-104962354D01*
X123853350Y-104884802D01*
X123920347Y-104820848D01*
X123999717Y-104769371D01*
X124072732Y-104737567D01*
X124142876Y-104719269D01*
X124211110Y-104713318D01*
X124289421Y-104719494D01*
X124360494Y-104737480D01*
X124425616Y-104766990D01*
X124448880Y-104774775D01*
X124462820Y-104768693D01*
X124473655Y-104745958D01*
X124478739Y-104691244D01*
X124474042Y-104659886D01*
X124461428Y-104638854D01*
X124439793Y-104623364D01*
X124398871Y-104607622D01*
X124359491Y-104589361D01*
X124338925Y-104566347D01*
X124332193Y-104537463D01*
X124339386Y-104505292D01*
X124362361Y-104475113D01*
X124406945Y-104445565D01*
X124482860Y-104417204D01*
X124725541Y-104357665D01*
X124835120Y-104344023D01*
X124876875Y-104350091D01*
G37*
G36*
X125655684Y-104779630D02*
G01*
X125655684Y-105339526D01*
X125665140Y-105426432D01*
X125688611Y-105478181D01*
X125722826Y-105506561D01*
X125770631Y-105516388D01*
X125798839Y-105512386D01*
X125827417Y-105499902D01*
X125851683Y-105480921D01*
X125866343Y-105459327D01*
X125881298Y-105395357D01*
X125888600Y-105239966D01*
X125885066Y-105084501D01*
X125877334Y-105009523D01*
X125863596Y-104973162D01*
X125825585Y-104946600D01*
X125790385Y-104921732D01*
X125771633Y-104895176D01*
X125765593Y-104865725D01*
X125775394Y-104828281D01*
X125806355Y-104797730D01*
X125868175Y-104773127D01*
X125996165Y-104746202D01*
X126121618Y-104730291D01*
X126244981Y-104725041D01*
X126292812Y-104732552D01*
X126324289Y-104752712D01*
X126343938Y-104786008D01*
X126351410Y-104837882D01*
X126350402Y-104884135D01*
X126347288Y-105004211D01*
X126347288Y-105457037D01*
X126352338Y-105476136D01*
X126369550Y-105496104D01*
X126405082Y-105518037D01*
X126434912Y-105538594D01*
X126451452Y-105562990D01*
X126457014Y-105592592D01*
X126447326Y-105630440D01*
X126415335Y-105666800D01*
X126350576Y-105703256D01*
X126236463Y-105738497D01*
X126108682Y-105761128D01*
X125987793Y-105768447D01*
X125941936Y-105764876D01*
X125918917Y-105756815D01*
X125904590Y-105740967D01*
X125896752Y-105711569D01*
X125889080Y-105674402D01*
X125876879Y-105657160D01*
X125860756Y-105651943D01*
X125839324Y-105657347D01*
X125777317Y-105698105D01*
X125705338Y-105737531D01*
X125631143Y-105760705D01*
X125553377Y-105768447D01*
X125454494Y-105759999D01*
X125377795Y-105736941D01*
X125318514Y-105701349D01*
X125273291Y-105653317D01*
X125238359Y-105584827D01*
X125213690Y-105481272D01*
X125204048Y-105330184D01*
X125205148Y-105186477D01*
X125205148Y-105139216D01*
X125200486Y-105057432D01*
X125189485Y-105010622D01*
X125167812Y-104974535D01*
X125132882Y-104946783D01*
X125081133Y-104913078D01*
X125072888Y-104898299D01*
X125069868Y-104877449D01*
X125076498Y-104842304D01*
X125096242Y-104813349D01*
X125131976Y-104788945D01*
X125190035Y-104769738D01*
X125391682Y-104736154D01*
X125592303Y-104725041D01*
X125629169Y-104731852D01*
X125648708Y-104749418D01*
X125655684Y-104779630D01*
G37*
G36*
X127086794Y-104791720D02*
G01*
X127086794Y-105389168D01*
X127090542Y-105454748D01*
X127099342Y-105491842D01*
X127117318Y-105521586D01*
X127150175Y-105551284D01*
X127193498Y-105590760D01*
X127201695Y-105608856D01*
X127204672Y-105632892D01*
X127195356Y-105674167D01*
X127166609Y-105708608D01*
X127111522Y-105737861D01*
X127017246Y-105759611D01*
X126866701Y-105768447D01*
X126695383Y-105760260D01*
X126580021Y-105739596D01*
X126546449Y-105724816D01*
X126520578Y-105702593D01*
X126503580Y-105674139D01*
X126497955Y-105642051D01*
X126501152Y-105615468D01*
X126509588Y-105597355D01*
X126567748Y-105547071D01*
X126593241Y-105518328D01*
X126611803Y-105471325D01*
X126621114Y-105411890D01*
X126624992Y-105312873D01*
X126620321Y-105186019D01*
X126613727Y-105077667D01*
X126597968Y-105043039D01*
X126558131Y-105015202D01*
X126520203Y-104991594D01*
X126499644Y-104963757D01*
X126492826Y-104930205D01*
X126501434Y-104891199D01*
X126527816Y-104858638D01*
X126577731Y-104830921D01*
X126695357Y-104790481D01*
X126824020Y-104755908D01*
X126948674Y-104731571D01*
X127027535Y-104725041D01*
X127060511Y-104732480D01*
X127079495Y-104753130D01*
X127086794Y-104791720D01*
G37*
G36*
X126880989Y-104344023D02*
G01*
X126965110Y-104353365D01*
X127024329Y-104378186D01*
X127054516Y-104404283D01*
X127071770Y-104434567D01*
X127077635Y-104470601D01*
X127068976Y-104520069D01*
X127043192Y-104562101D01*
X126997218Y-104598829D01*
X126910598Y-104638609D01*
X126810287Y-104663516D01*
X126693502Y-104672285D01*
X126622800Y-104664277D01*
X126573060Y-104642976D01*
X126538715Y-104613746D01*
X126518989Y-104579235D01*
X126512244Y-104537554D01*
X126519228Y-104497327D01*
X126540459Y-104461075D01*
X126578842Y-104427234D01*
X126640105Y-104395680D01*
X126727118Y-104366135D01*
X126807054Y-104349374D01*
X126880989Y-104344023D01*
G37*
G36*
X128507372Y-105100748D02*
G01*
X128521752Y-105462349D01*
X128526402Y-105499826D01*
X128534208Y-105521792D01*
X128596765Y-105596072D01*
X128608630Y-105615895D01*
X128612976Y-105644341D01*
X128604299Y-105685226D01*
X128578496Y-105716905D01*
X128530728Y-105741336D01*
X128432816Y-105760072D01*
X128240109Y-105768447D01*
X128108765Y-105760832D01*
X128039250Y-105743442D01*
X128003612Y-105721224D01*
X127983745Y-105693199D01*
X127976968Y-105657530D01*
X127983379Y-105625931D01*
X128024962Y-105577296D01*
X128042674Y-105543017D01*
X128058109Y-105459392D01*
X128065079Y-105291257D01*
X128060591Y-105196516D01*
X128048985Y-105129117D01*
X128032564Y-105082704D01*
X128010981Y-105053811D01*
X127980172Y-105036262D01*
X127936851Y-105029856D01*
X127894540Y-105035295D01*
X127865015Y-105049876D01*
X127844802Y-105072996D01*
X127827576Y-105125595D01*
X127819889Y-105231357D01*
X127819889Y-105434781D01*
X127822239Y-105490156D01*
X127827400Y-105517121D01*
X127877866Y-105603674D01*
X127886599Y-105623991D01*
X127889590Y-105647363D01*
X127881121Y-105683579D01*
X127854877Y-105713778D01*
X127804319Y-105739321D01*
X127707260Y-105759808D01*
X127540262Y-105768447D01*
X127413031Y-105760668D01*
X127332882Y-105741454D01*
X127285617Y-105715434D01*
X127260653Y-105684476D01*
X127252483Y-105646997D01*
X127255032Y-105623224D01*
X127261550Y-105607888D01*
X127303865Y-105570335D01*
X127325442Y-105549402D01*
X127336655Y-105526830D01*
X127349844Y-105403548D01*
X127356988Y-105157351D01*
X127353605Y-105093047D01*
X127346547Y-105065485D01*
X127329621Y-105044622D01*
X127285639Y-105012454D01*
X127250803Y-104979279D01*
X127240209Y-104941929D01*
X127249194Y-104904131D01*
X127276846Y-104873510D01*
X127323649Y-104847678D01*
X127425498Y-104807382D01*
X127615458Y-104748947D01*
X127700270Y-104729614D01*
X127741121Y-104725041D01*
X127770532Y-104730921D01*
X127794885Y-104748580D01*
X127811306Y-104774258D01*
X127816775Y-104804176D01*
X127815768Y-104830280D01*
X127814760Y-104844385D01*
X127819604Y-104871675D01*
X127831928Y-104885909D01*
X127852771Y-104890913D01*
X127874393Y-104883229D01*
X127902688Y-104853269D01*
X127952109Y-104797249D01*
X128010346Y-104757823D01*
X128079115Y-104733572D01*
X128161249Y-104725041D01*
X128245640Y-104732995D01*
X128319270Y-104755902D01*
X128384273Y-104793368D01*
X128440442Y-104847460D01*
X128475315Y-104908040D01*
X128495027Y-104981822D01*
X128507372Y-105100748D01*
G37*
G36*
X129397401Y-104719744D02*
G01*
X129482800Y-104738470D01*
X129561553Y-104769092D01*
X129634675Y-104811778D01*
X129697981Y-104863219D01*
X129752441Y-104924045D01*
X129798531Y-104995143D01*
X129834314Y-105075772D01*
X129855428Y-105157611D01*
X129862462Y-105241707D01*
X129854453Y-105328045D01*
X129830806Y-105408162D01*
X129791216Y-105483585D01*
X129734240Y-105555421D01*
X129657389Y-105624282D01*
X129555879Y-105690050D01*
X129448422Y-105736587D01*
X129333660Y-105764727D01*
X129209875Y-105774309D01*
X129088059Y-105764758D01*
X128982807Y-105737528D01*
X128891270Y-105693802D01*
X128811271Y-105633442D01*
X128746626Y-105560241D01*
X128700739Y-105477769D01*
X128672592Y-105384171D01*
X128662802Y-105276786D01*
X128670348Y-105180723D01*
X128692255Y-105094154D01*
X128696590Y-105084628D01*
X129125703Y-105084628D01*
X129130642Y-105151119D01*
X129148693Y-105252056D01*
X129174619Y-105354636D01*
X129203372Y-105440001D01*
X129230118Y-105487830D01*
X129263077Y-105513645D01*
X129304123Y-105522250D01*
X129342311Y-105515367D01*
X129368514Y-105496222D01*
X129385684Y-105462981D01*
X129392416Y-105409135D01*
X129387063Y-105320647D01*
X129369427Y-105213588D01*
X129342595Y-105109769D01*
X129313831Y-105035627D01*
X129287285Y-104995655D01*
X129257145Y-104973471D01*
X129222057Y-104965376D01*
X129182570Y-104973573D01*
X129152081Y-104997800D01*
X129132755Y-105034244D01*
X129125703Y-105084628D01*
X128696590Y-105084628D01*
X128728081Y-105015423D01*
X128778277Y-104943249D01*
X128844152Y-104876808D01*
X128943200Y-104805708D01*
X129051562Y-104755008D01*
X129171070Y-104724006D01*
X129304123Y-104713318D01*
X129397401Y-104719744D01*
G37*
D10*
X142312969Y-136369819D02*
X141836779Y-136369819D01*
X141836779Y-136369819D02*
X141789160Y-136846009D01*
X141789160Y-136846009D02*
X141836779Y-136798390D01*
X141836779Y-136798390D02*
X141932017Y-136750771D01*
X141932017Y-136750771D02*
X142170112Y-136750771D01*
X142170112Y-136750771D02*
X142265350Y-136798390D01*
X142265350Y-136798390D02*
X142312969Y-136846009D01*
X142312969Y-136846009D02*
X142360588Y-136941247D01*
X142360588Y-136941247D02*
X142360588Y-137179342D01*
X142360588Y-137179342D02*
X142312969Y-137274580D01*
X142312969Y-137274580D02*
X142265350Y-137322200D01*
X142265350Y-137322200D02*
X142170112Y-137369819D01*
X142170112Y-137369819D02*
X141932017Y-137369819D01*
X141932017Y-137369819D02*
X141836779Y-137322200D01*
X141836779Y-137322200D02*
X141789160Y-137274580D01*
X142646303Y-136369819D02*
X142979636Y-137369819D01*
X142979636Y-137369819D02*
X143312969Y-136369819D01*
X144074874Y-137369819D02*
X144074874Y-136369819D01*
X144074874Y-137322200D02*
X143979636Y-137369819D01*
X143979636Y-137369819D02*
X143789160Y-137369819D01*
X143789160Y-137369819D02*
X143693922Y-137322200D01*
X143693922Y-137322200D02*
X143646303Y-137274580D01*
X143646303Y-137274580D02*
X143598684Y-137179342D01*
X143598684Y-137179342D02*
X143598684Y-136893628D01*
X143598684Y-136893628D02*
X143646303Y-136798390D01*
X143646303Y-136798390D02*
X143693922Y-136750771D01*
X143693922Y-136750771D02*
X143789160Y-136703152D01*
X143789160Y-136703152D02*
X143979636Y-136703152D01*
X143979636Y-136703152D02*
X144074874Y-136750771D01*
X144979636Y-137322200D02*
X144884398Y-137369819D01*
X144884398Y-137369819D02*
X144693922Y-137369819D01*
X144693922Y-137369819D02*
X144598684Y-137322200D01*
X144598684Y-137322200D02*
X144551065Y-137274580D01*
X144551065Y-137274580D02*
X144503446Y-137179342D01*
X144503446Y-137179342D02*
X144503446Y-136893628D01*
X144503446Y-136893628D02*
X144551065Y-136798390D01*
X144551065Y-136798390D02*
X144598684Y-136750771D01*
X144598684Y-136750771D02*
X144693922Y-136703152D01*
X144693922Y-136703152D02*
X144884398Y-136703152D01*
X144884398Y-136703152D02*
X144979636Y-136750771D01*
X146170113Y-136703152D02*
X146170113Y-137703152D01*
X146170113Y-136750771D02*
X146265351Y-136703152D01*
X146265351Y-136703152D02*
X146455827Y-136703152D01*
X146455827Y-136703152D02*
X146551065Y-136750771D01*
X146551065Y-136750771D02*
X146598684Y-136798390D01*
X146598684Y-136798390D02*
X146646303Y-136893628D01*
X146646303Y-136893628D02*
X146646303Y-137179342D01*
X146646303Y-137179342D02*
X146598684Y-137274580D01*
X146598684Y-137274580D02*
X146551065Y-137322200D01*
X146551065Y-137322200D02*
X146455827Y-137369819D01*
X146455827Y-137369819D02*
X146265351Y-137369819D01*
X146265351Y-137369819D02*
X146170113Y-137322200D01*
X147217732Y-137369819D02*
X147122494Y-137322200D01*
X147122494Y-137322200D02*
X147074875Y-137274580D01*
X147074875Y-137274580D02*
X147027256Y-137179342D01*
X147027256Y-137179342D02*
X147027256Y-136893628D01*
X147027256Y-136893628D02*
X147074875Y-136798390D01*
X147074875Y-136798390D02*
X147122494Y-136750771D01*
X147122494Y-136750771D02*
X147217732Y-136703152D01*
X147217732Y-136703152D02*
X147360589Y-136703152D01*
X147360589Y-136703152D02*
X147455827Y-136750771D01*
X147455827Y-136750771D02*
X147503446Y-136798390D01*
X147503446Y-136798390D02*
X147551065Y-136893628D01*
X147551065Y-136893628D02*
X147551065Y-137179342D01*
X147551065Y-137179342D02*
X147503446Y-137274580D01*
X147503446Y-137274580D02*
X147455827Y-137322200D01*
X147455827Y-137322200D02*
X147360589Y-137369819D01*
X147360589Y-137369819D02*
X147217732Y-137369819D01*
X147884399Y-136703152D02*
X148074875Y-137369819D01*
X148074875Y-137369819D02*
X148265351Y-136893628D01*
X148265351Y-136893628D02*
X148455827Y-137369819D01*
X148455827Y-137369819D02*
X148646303Y-136703152D01*
X149408208Y-137322200D02*
X149312970Y-137369819D01*
X149312970Y-137369819D02*
X149122494Y-137369819D01*
X149122494Y-137369819D02*
X149027256Y-137322200D01*
X149027256Y-137322200D02*
X148979637Y-137226961D01*
X148979637Y-137226961D02*
X148979637Y-136846009D01*
X148979637Y-136846009D02*
X149027256Y-136750771D01*
X149027256Y-136750771D02*
X149122494Y-136703152D01*
X149122494Y-136703152D02*
X149312970Y-136703152D01*
X149312970Y-136703152D02*
X149408208Y-136750771D01*
X149408208Y-136750771D02*
X149455827Y-136846009D01*
X149455827Y-136846009D02*
X149455827Y-136941247D01*
X149455827Y-136941247D02*
X148979637Y-137036485D01*
X149884399Y-137369819D02*
X149884399Y-136703152D01*
X149884399Y-136893628D02*
X149932018Y-136798390D01*
X149932018Y-136798390D02*
X149979637Y-136750771D01*
X149979637Y-136750771D02*
X150074875Y-136703152D01*
X150074875Y-136703152D02*
X150170113Y-136703152D01*
X151265352Y-137369819D02*
X151265352Y-136703152D01*
X151265352Y-136369819D02*
X151217733Y-136417438D01*
X151217733Y-136417438D02*
X151265352Y-136465057D01*
X151265352Y-136465057D02*
X151312971Y-136417438D01*
X151312971Y-136417438D02*
X151265352Y-136369819D01*
X151265352Y-136369819D02*
X151265352Y-136465057D01*
X151741542Y-136703152D02*
X151741542Y-137369819D01*
X151741542Y-136798390D02*
X151789161Y-136750771D01*
X151789161Y-136750771D02*
X151884399Y-136703152D01*
X151884399Y-136703152D02*
X152027256Y-136703152D01*
X152027256Y-136703152D02*
X152122494Y-136750771D01*
X152122494Y-136750771D02*
X152170113Y-136846009D01*
X152170113Y-136846009D02*
X152170113Y-137369819D01*
X122265350Y-80259875D02*
X122265350Y-79259875D01*
X122265350Y-80212256D02*
X122170112Y-80259875D01*
X122170112Y-80259875D02*
X121979636Y-80259875D01*
X121979636Y-80259875D02*
X121884398Y-80212256D01*
X121884398Y-80212256D02*
X121836779Y-80164636D01*
X121836779Y-80164636D02*
X121789160Y-80069398D01*
X121789160Y-80069398D02*
X121789160Y-79783684D01*
X121789160Y-79783684D02*
X121836779Y-79688446D01*
X121836779Y-79688446D02*
X121884398Y-79640827D01*
X121884398Y-79640827D02*
X121979636Y-79593208D01*
X121979636Y-79593208D02*
X122170112Y-79593208D01*
X122170112Y-79593208D02*
X122265350Y-79640827D01*
X122693922Y-80212256D02*
X122789160Y-80259875D01*
X122789160Y-80259875D02*
X122979636Y-80259875D01*
X122979636Y-80259875D02*
X123074874Y-80212256D01*
X123074874Y-80212256D02*
X123122493Y-80117017D01*
X123122493Y-80117017D02*
X123122493Y-80069398D01*
X123122493Y-80069398D02*
X123074874Y-79974160D01*
X123074874Y-79974160D02*
X122979636Y-79926541D01*
X122979636Y-79926541D02*
X122836779Y-79926541D01*
X122836779Y-79926541D02*
X122741541Y-79878922D01*
X122741541Y-79878922D02*
X122693922Y-79783684D01*
X122693922Y-79783684D02*
X122693922Y-79736065D01*
X122693922Y-79736065D02*
X122741541Y-79640827D01*
X122741541Y-79640827D02*
X122836779Y-79593208D01*
X122836779Y-79593208D02*
X122979636Y-79593208D01*
X122979636Y-79593208D02*
X123074874Y-79640827D01*
X124074874Y-80259875D02*
X123503446Y-80259875D01*
X123789160Y-80259875D02*
X123789160Y-79259875D01*
X123789160Y-79259875D02*
X123693922Y-79402732D01*
X123693922Y-79402732D02*
X123598684Y-79497970D01*
X123598684Y-79497970D02*
X123503446Y-79545589D01*
X124408208Y-79259875D02*
X125027255Y-79259875D01*
X125027255Y-79259875D02*
X124693922Y-79640827D01*
X124693922Y-79640827D02*
X124836779Y-79640827D01*
X124836779Y-79640827D02*
X124932017Y-79688446D01*
X124932017Y-79688446D02*
X124979636Y-79736065D01*
X124979636Y-79736065D02*
X125027255Y-79831303D01*
X125027255Y-79831303D02*
X125027255Y-80069398D01*
X125027255Y-80069398D02*
X124979636Y-80164636D01*
X124979636Y-80164636D02*
X124932017Y-80212256D01*
X124932017Y-80212256D02*
X124836779Y-80259875D01*
X124836779Y-80259875D02*
X124551065Y-80259875D01*
X124551065Y-80259875D02*
X124455827Y-80212256D01*
X124455827Y-80212256D02*
X124408208Y-80164636D01*
X125646303Y-79259875D02*
X125741541Y-79259875D01*
X125741541Y-79259875D02*
X125836779Y-79307494D01*
X125836779Y-79307494D02*
X125884398Y-79355113D01*
X125884398Y-79355113D02*
X125932017Y-79450351D01*
X125932017Y-79450351D02*
X125979636Y-79640827D01*
X125979636Y-79640827D02*
X125979636Y-79878922D01*
X125979636Y-79878922D02*
X125932017Y-80069398D01*
X125932017Y-80069398D02*
X125884398Y-80164636D01*
X125884398Y-80164636D02*
X125836779Y-80212256D01*
X125836779Y-80212256D02*
X125741541Y-80259875D01*
X125741541Y-80259875D02*
X125646303Y-80259875D01*
X125646303Y-80259875D02*
X125551065Y-80212256D01*
X125551065Y-80212256D02*
X125503446Y-80164636D01*
X125503446Y-80164636D02*
X125455827Y-80069398D01*
X125455827Y-80069398D02*
X125408208Y-79878922D01*
X125408208Y-79878922D02*
X125408208Y-79640827D01*
X125408208Y-79640827D02*
X125455827Y-79450351D01*
X125455827Y-79450351D02*
X125503446Y-79355113D01*
X125503446Y-79355113D02*
X125551065Y-79307494D01*
X125551065Y-79307494D02*
X125646303Y-79259875D01*
X126312970Y-79259875D02*
X126979636Y-79259875D01*
X126979636Y-79259875D02*
X126551065Y-80259875D01*
X128122494Y-80259875D02*
X128122494Y-79593208D01*
X128122494Y-79688446D02*
X128170113Y-79640827D01*
X128170113Y-79640827D02*
X128265351Y-79593208D01*
X128265351Y-79593208D02*
X128408208Y-79593208D01*
X128408208Y-79593208D02*
X128503446Y-79640827D01*
X128503446Y-79640827D02*
X128551065Y-79736065D01*
X128551065Y-79736065D02*
X128551065Y-80259875D01*
X128551065Y-79736065D02*
X128598684Y-79640827D01*
X128598684Y-79640827D02*
X128693922Y-79593208D01*
X128693922Y-79593208D02*
X128836779Y-79593208D01*
X128836779Y-79593208D02*
X128932018Y-79640827D01*
X128932018Y-79640827D02*
X128979637Y-79736065D01*
X128979637Y-79736065D02*
X128979637Y-80259875D01*
X129598684Y-80259875D02*
X129503446Y-80212256D01*
X129503446Y-80212256D02*
X129455827Y-80164636D01*
X129455827Y-80164636D02*
X129408208Y-80069398D01*
X129408208Y-80069398D02*
X129408208Y-79783684D01*
X129408208Y-79783684D02*
X129455827Y-79688446D01*
X129455827Y-79688446D02*
X129503446Y-79640827D01*
X129503446Y-79640827D02*
X129598684Y-79593208D01*
X129598684Y-79593208D02*
X129741541Y-79593208D01*
X129741541Y-79593208D02*
X129836779Y-79640827D01*
X129836779Y-79640827D02*
X129884398Y-79688446D01*
X129884398Y-79688446D02*
X129932017Y-79783684D01*
X129932017Y-79783684D02*
X129932017Y-80069398D01*
X129932017Y-80069398D02*
X129884398Y-80164636D01*
X129884398Y-80164636D02*
X129836779Y-80212256D01*
X129836779Y-80212256D02*
X129741541Y-80259875D01*
X129741541Y-80259875D02*
X129598684Y-80259875D01*
X130789160Y-80259875D02*
X130789160Y-79259875D01*
X130789160Y-80212256D02*
X130693922Y-80259875D01*
X130693922Y-80259875D02*
X130503446Y-80259875D01*
X130503446Y-80259875D02*
X130408208Y-80212256D01*
X130408208Y-80212256D02*
X130360589Y-80164636D01*
X130360589Y-80164636D02*
X130312970Y-80069398D01*
X130312970Y-80069398D02*
X130312970Y-79783684D01*
X130312970Y-79783684D02*
X130360589Y-79688446D01*
X130360589Y-79688446D02*
X130408208Y-79640827D01*
X130408208Y-79640827D02*
X130503446Y-79593208D01*
X130503446Y-79593208D02*
X130693922Y-79593208D01*
X130693922Y-79593208D02*
X130789160Y-79640827D01*
X131693922Y-79593208D02*
X131693922Y-80259875D01*
X131265351Y-79593208D02*
X131265351Y-80117017D01*
X131265351Y-80117017D02*
X131312970Y-80212256D01*
X131312970Y-80212256D02*
X131408208Y-80259875D01*
X131408208Y-80259875D02*
X131551065Y-80259875D01*
X131551065Y-80259875D02*
X131646303Y-80212256D01*
X131646303Y-80212256D02*
X131693922Y-80164636D01*
X132312970Y-80259875D02*
X132217732Y-80212256D01*
X132217732Y-80212256D02*
X132170113Y-80117017D01*
X132170113Y-80117017D02*
X132170113Y-79259875D01*
X133074875Y-80212256D02*
X132979637Y-80259875D01*
X132979637Y-80259875D02*
X132789161Y-80259875D01*
X132789161Y-80259875D02*
X132693923Y-80212256D01*
X132693923Y-80212256D02*
X132646304Y-80117017D01*
X132646304Y-80117017D02*
X132646304Y-79736065D01*
X132646304Y-79736065D02*
X132693923Y-79640827D01*
X132693923Y-79640827D02*
X132789161Y-79593208D01*
X132789161Y-79593208D02*
X132979637Y-79593208D01*
X132979637Y-79593208D02*
X133074875Y-79640827D01*
X133074875Y-79640827D02*
X133122494Y-79736065D01*
X133122494Y-79736065D02*
X133122494Y-79831303D01*
X133122494Y-79831303D02*
X132646304Y-79926541D01*
X122265350Y-81203152D02*
X122265350Y-81869819D01*
X121836779Y-81203152D02*
X121836779Y-81726961D01*
X121836779Y-81726961D02*
X121884398Y-81822200D01*
X121884398Y-81822200D02*
X121979636Y-81869819D01*
X121979636Y-81869819D02*
X122122493Y-81869819D01*
X122122493Y-81869819D02*
X122217731Y-81822200D01*
X122217731Y-81822200D02*
X122265350Y-81774580D01*
X122693922Y-81822200D02*
X122789160Y-81869819D01*
X122789160Y-81869819D02*
X122979636Y-81869819D01*
X122979636Y-81869819D02*
X123074874Y-81822200D01*
X123074874Y-81822200D02*
X123122493Y-81726961D01*
X123122493Y-81726961D02*
X123122493Y-81679342D01*
X123122493Y-81679342D02*
X123074874Y-81584104D01*
X123074874Y-81584104D02*
X122979636Y-81536485D01*
X122979636Y-81536485D02*
X122836779Y-81536485D01*
X122836779Y-81536485D02*
X122741541Y-81488866D01*
X122741541Y-81488866D02*
X122693922Y-81393628D01*
X122693922Y-81393628D02*
X122693922Y-81346009D01*
X122693922Y-81346009D02*
X122741541Y-81250771D01*
X122741541Y-81250771D02*
X122836779Y-81203152D01*
X122836779Y-81203152D02*
X122979636Y-81203152D01*
X122979636Y-81203152D02*
X123074874Y-81250771D01*
X123932017Y-81822200D02*
X123836779Y-81869819D01*
X123836779Y-81869819D02*
X123646303Y-81869819D01*
X123646303Y-81869819D02*
X123551065Y-81822200D01*
X123551065Y-81822200D02*
X123503446Y-81726961D01*
X123503446Y-81726961D02*
X123503446Y-81346009D01*
X123503446Y-81346009D02*
X123551065Y-81250771D01*
X123551065Y-81250771D02*
X123646303Y-81203152D01*
X123646303Y-81203152D02*
X123836779Y-81203152D01*
X123836779Y-81203152D02*
X123932017Y-81250771D01*
X123932017Y-81250771D02*
X123979636Y-81346009D01*
X123979636Y-81346009D02*
X123979636Y-81441247D01*
X123979636Y-81441247D02*
X123503446Y-81536485D01*
X125598684Y-81822200D02*
X125503446Y-81869819D01*
X125503446Y-81869819D02*
X125312970Y-81869819D01*
X125312970Y-81869819D02*
X125217732Y-81822200D01*
X125217732Y-81822200D02*
X125170113Y-81774580D01*
X125170113Y-81774580D02*
X125122494Y-81679342D01*
X125122494Y-81679342D02*
X125122494Y-81393628D01*
X125122494Y-81393628D02*
X125170113Y-81298390D01*
X125170113Y-81298390D02*
X125217732Y-81250771D01*
X125217732Y-81250771D02*
X125312970Y-81203152D01*
X125312970Y-81203152D02*
X125503446Y-81203152D01*
X125503446Y-81203152D02*
X125598684Y-81250771D01*
X126027256Y-81869819D02*
X126027256Y-81203152D01*
X126027256Y-81393628D02*
X126074875Y-81298390D01*
X126074875Y-81298390D02*
X126122494Y-81250771D01*
X126122494Y-81250771D02*
X126217732Y-81203152D01*
X126217732Y-81203152D02*
X126312970Y-81203152D01*
X126598685Y-80965057D02*
X126646304Y-80917438D01*
X126646304Y-80917438D02*
X126741542Y-80869819D01*
X126741542Y-80869819D02*
X126979637Y-80869819D01*
X126979637Y-80869819D02*
X127074875Y-80917438D01*
X127074875Y-80917438D02*
X127122494Y-80965057D01*
X127122494Y-80965057D02*
X127170113Y-81060295D01*
X127170113Y-81060295D02*
X127170113Y-81155533D01*
X127170113Y-81155533D02*
X127122494Y-81298390D01*
X127122494Y-81298390D02*
X126551066Y-81869819D01*
X126551066Y-81869819D02*
X127170113Y-81869819D01*
X127789161Y-80869819D02*
X127884399Y-80869819D01*
X127884399Y-80869819D02*
X127979637Y-80917438D01*
X127979637Y-80917438D02*
X128027256Y-80965057D01*
X128027256Y-80965057D02*
X128074875Y-81060295D01*
X128074875Y-81060295D02*
X128122494Y-81250771D01*
X128122494Y-81250771D02*
X128122494Y-81488866D01*
X128122494Y-81488866D02*
X128074875Y-81679342D01*
X128074875Y-81679342D02*
X128027256Y-81774580D01*
X128027256Y-81774580D02*
X127979637Y-81822200D01*
X127979637Y-81822200D02*
X127884399Y-81869819D01*
X127884399Y-81869819D02*
X127789161Y-81869819D01*
X127789161Y-81869819D02*
X127693923Y-81822200D01*
X127693923Y-81822200D02*
X127646304Y-81774580D01*
X127646304Y-81774580D02*
X127598685Y-81679342D01*
X127598685Y-81679342D02*
X127551066Y-81488866D01*
X127551066Y-81488866D02*
X127551066Y-81250771D01*
X127551066Y-81250771D02*
X127598685Y-81060295D01*
X127598685Y-81060295D02*
X127646304Y-80965057D01*
X127646304Y-80965057D02*
X127693923Y-80917438D01*
X127693923Y-80917438D02*
X127789161Y-80869819D01*
X128455828Y-80869819D02*
X129074875Y-80869819D01*
X129074875Y-80869819D02*
X128741542Y-81250771D01*
X128741542Y-81250771D02*
X128884399Y-81250771D01*
X128884399Y-81250771D02*
X128979637Y-81298390D01*
X128979637Y-81298390D02*
X129027256Y-81346009D01*
X129027256Y-81346009D02*
X129074875Y-81441247D01*
X129074875Y-81441247D02*
X129074875Y-81679342D01*
X129074875Y-81679342D02*
X129027256Y-81774580D01*
X129027256Y-81774580D02*
X128979637Y-81822200D01*
X128979637Y-81822200D02*
X128884399Y-81869819D01*
X128884399Y-81869819D02*
X128598685Y-81869819D01*
X128598685Y-81869819D02*
X128503447Y-81822200D01*
X128503447Y-81822200D02*
X128455828Y-81774580D01*
X129455828Y-80965057D02*
X129503447Y-80917438D01*
X129503447Y-80917438D02*
X129598685Y-80869819D01*
X129598685Y-80869819D02*
X129836780Y-80869819D01*
X129836780Y-80869819D02*
X129932018Y-80917438D01*
X129932018Y-80917438D02*
X129979637Y-80965057D01*
X129979637Y-80965057D02*
X130027256Y-81060295D01*
X130027256Y-81060295D02*
X130027256Y-81155533D01*
X130027256Y-81155533D02*
X129979637Y-81298390D01*
X129979637Y-81298390D02*
X129408209Y-81869819D01*
X129408209Y-81869819D02*
X130027256Y-81869819D01*
D11*
X157335526Y-102303428D02*
X157335526Y-101303428D01*
X157335526Y-101446285D02*
X157406955Y-101374857D01*
X157406955Y-101374857D02*
X157549812Y-101303428D01*
X157549812Y-101303428D02*
X157764098Y-101303428D01*
X157764098Y-101303428D02*
X157906955Y-101374857D01*
X157906955Y-101374857D02*
X157978384Y-101517714D01*
X157978384Y-101517714D02*
X157978384Y-102303428D01*
X157978384Y-101517714D02*
X158049812Y-101374857D01*
X158049812Y-101374857D02*
X158192669Y-101303428D01*
X158192669Y-101303428D02*
X158406955Y-101303428D01*
X158406955Y-101303428D02*
X158549812Y-101374857D01*
X158549812Y-101374857D02*
X158621241Y-101517714D01*
X158621241Y-101517714D02*
X158621241Y-102303428D01*
X159978384Y-102303428D02*
X159978384Y-101517714D01*
X159978384Y-101517714D02*
X159906955Y-101374857D01*
X159906955Y-101374857D02*
X159764098Y-101303428D01*
X159764098Y-101303428D02*
X159478384Y-101303428D01*
X159478384Y-101303428D02*
X159335526Y-101374857D01*
X159978384Y-102232000D02*
X159835526Y-102303428D01*
X159835526Y-102303428D02*
X159478384Y-102303428D01*
X159478384Y-102303428D02*
X159335526Y-102232000D01*
X159335526Y-102232000D02*
X159264098Y-102089142D01*
X159264098Y-102089142D02*
X159264098Y-101946285D01*
X159264098Y-101946285D02*
X159335526Y-101803428D01*
X159335526Y-101803428D02*
X159478384Y-101732000D01*
X159478384Y-101732000D02*
X159835526Y-101732000D01*
X159835526Y-101732000D02*
X159978384Y-101660571D01*
X161335527Y-102303428D02*
X161335527Y-100803428D01*
X161335527Y-102232000D02*
X161192669Y-102303428D01*
X161192669Y-102303428D02*
X160906955Y-102303428D01*
X160906955Y-102303428D02*
X160764098Y-102232000D01*
X160764098Y-102232000D02*
X160692669Y-102160571D01*
X160692669Y-102160571D02*
X160621241Y-102017714D01*
X160621241Y-102017714D02*
X160621241Y-101589142D01*
X160621241Y-101589142D02*
X160692669Y-101446285D01*
X160692669Y-101446285D02*
X160764098Y-101374857D01*
X160764098Y-101374857D02*
X160906955Y-101303428D01*
X160906955Y-101303428D02*
X161192669Y-101303428D01*
X161192669Y-101303428D02*
X161335527Y-101374857D01*
X162621241Y-102232000D02*
X162478384Y-102303428D01*
X162478384Y-102303428D02*
X162192670Y-102303428D01*
X162192670Y-102303428D02*
X162049812Y-102232000D01*
X162049812Y-102232000D02*
X161978384Y-102089142D01*
X161978384Y-102089142D02*
X161978384Y-101517714D01*
X161978384Y-101517714D02*
X162049812Y-101374857D01*
X162049812Y-101374857D02*
X162192670Y-101303428D01*
X162192670Y-101303428D02*
X162478384Y-101303428D01*
X162478384Y-101303428D02*
X162621241Y-101374857D01*
X162621241Y-101374857D02*
X162692670Y-101517714D01*
X162692670Y-101517714D02*
X162692670Y-101660571D01*
X162692670Y-101660571D02*
X161978384Y-101803428D01*
X164335526Y-101303428D02*
X164621241Y-102303428D01*
X164621241Y-102303428D02*
X164906955Y-101589142D01*
X164906955Y-101589142D02*
X165192669Y-102303428D01*
X165192669Y-102303428D02*
X165478383Y-101303428D01*
X166049812Y-102303428D02*
X166049812Y-101303428D01*
X166049812Y-100803428D02*
X165978384Y-100874857D01*
X165978384Y-100874857D02*
X166049812Y-100946285D01*
X166049812Y-100946285D02*
X166121241Y-100874857D01*
X166121241Y-100874857D02*
X166049812Y-100803428D01*
X166049812Y-100803428D02*
X166049812Y-100946285D01*
X166549813Y-101303428D02*
X167121241Y-101303428D01*
X166764098Y-100803428D02*
X166764098Y-102089142D01*
X166764098Y-102089142D02*
X166835527Y-102232000D01*
X166835527Y-102232000D02*
X166978384Y-102303428D01*
X166978384Y-102303428D02*
X167121241Y-102303428D01*
X167621241Y-102303428D02*
X167621241Y-100803428D01*
X168264099Y-102303428D02*
X168264099Y-101517714D01*
X168264099Y-101517714D02*
X168192670Y-101374857D01*
X168192670Y-101374857D02*
X168049813Y-101303428D01*
X168049813Y-101303428D02*
X167835527Y-101303428D01*
X167835527Y-101303428D02*
X167692670Y-101374857D01*
X167692670Y-101374857D02*
X167621241Y-101446285D01*
X170335527Y-102303428D02*
X170192670Y-102232000D01*
X170192670Y-102232000D02*
X170121241Y-102089142D01*
X170121241Y-102089142D02*
X170121241Y-100803428D01*
X171121241Y-102303428D02*
X170978384Y-102232000D01*
X170978384Y-102232000D02*
X170906955Y-102160571D01*
X170906955Y-102160571D02*
X170835527Y-102017714D01*
X170835527Y-102017714D02*
X170835527Y-101589142D01*
X170835527Y-101589142D02*
X170906955Y-101446285D01*
X170906955Y-101446285D02*
X170978384Y-101374857D01*
X170978384Y-101374857D02*
X171121241Y-101303428D01*
X171121241Y-101303428D02*
X171335527Y-101303428D01*
X171335527Y-101303428D02*
X171478384Y-101374857D01*
X171478384Y-101374857D02*
X171549813Y-101446285D01*
X171549813Y-101446285D02*
X171621241Y-101589142D01*
X171621241Y-101589142D02*
X171621241Y-102017714D01*
X171621241Y-102017714D02*
X171549813Y-102160571D01*
X171549813Y-102160571D02*
X171478384Y-102232000D01*
X171478384Y-102232000D02*
X171335527Y-102303428D01*
X171335527Y-102303428D02*
X171121241Y-102303428D01*
X172121241Y-101303428D02*
X172478384Y-102303428D01*
X172478384Y-102303428D02*
X172835527Y-101303428D01*
X173978384Y-102232000D02*
X173835527Y-102303428D01*
X173835527Y-102303428D02*
X173549813Y-102303428D01*
X173549813Y-102303428D02*
X173406955Y-102232000D01*
X173406955Y-102232000D02*
X173335527Y-102089142D01*
X173335527Y-102089142D02*
X173335527Y-101517714D01*
X173335527Y-101517714D02*
X173406955Y-101374857D01*
X173406955Y-101374857D02*
X173549813Y-101303428D01*
X173549813Y-101303428D02*
X173835527Y-101303428D01*
X173835527Y-101303428D02*
X173978384Y-101374857D01*
X173978384Y-101374857D02*
X174049813Y-101517714D01*
X174049813Y-101517714D02*
X174049813Y-101660571D01*
X174049813Y-101660571D02*
X173335527Y-101803428D01*
D10*
X144574819Y-84943666D02*
X144098628Y-85276999D01*
X144574819Y-85515094D02*
X143574819Y-85515094D01*
X143574819Y-85515094D02*
X143574819Y-85134142D01*
X143574819Y-85134142D02*
X143622438Y-85038904D01*
X143622438Y-85038904D02*
X143670057Y-84991285D01*
X143670057Y-84991285D02*
X143765295Y-84943666D01*
X143765295Y-84943666D02*
X143908152Y-84943666D01*
X143908152Y-84943666D02*
X144003390Y-84991285D01*
X144003390Y-84991285D02*
X144051009Y-85038904D01*
X144051009Y-85038904D02*
X144098628Y-85134142D01*
X144098628Y-85134142D02*
X144098628Y-85515094D01*
X143670057Y-84562713D02*
X143622438Y-84515094D01*
X143622438Y-84515094D02*
X143574819Y-84419856D01*
X143574819Y-84419856D02*
X143574819Y-84181761D01*
X143574819Y-84181761D02*
X143622438Y-84086523D01*
X143622438Y-84086523D02*
X143670057Y-84038904D01*
X143670057Y-84038904D02*
X143765295Y-83991285D01*
X143765295Y-83991285D02*
X143860533Y-83991285D01*
X143860533Y-83991285D02*
X144003390Y-84038904D01*
X144003390Y-84038904D02*
X144574819Y-84610332D01*
X144574819Y-84610332D02*
X144574819Y-83991285D01*
X134738095Y-48954819D02*
X134738095Y-49764342D01*
X134738095Y-49764342D02*
X134785714Y-49859580D01*
X134785714Y-49859580D02*
X134833333Y-49907200D01*
X134833333Y-49907200D02*
X134928571Y-49954819D01*
X134928571Y-49954819D02*
X135119047Y-49954819D01*
X135119047Y-49954819D02*
X135214285Y-49907200D01*
X135214285Y-49907200D02*
X135261904Y-49859580D01*
X135261904Y-49859580D02*
X135309523Y-49764342D01*
X135309523Y-49764342D02*
X135309523Y-48954819D01*
X136309523Y-49954819D02*
X135738095Y-49954819D01*
X136023809Y-49954819D02*
X136023809Y-48954819D01*
X136023809Y-48954819D02*
X135928571Y-49097676D01*
X135928571Y-49097676D02*
X135833333Y-49192914D01*
X135833333Y-49192914D02*
X135738095Y-49240533D01*
X142435476Y-72939200D02*
X142578333Y-72986819D01*
X142578333Y-72986819D02*
X142816428Y-72986819D01*
X142816428Y-72986819D02*
X142911666Y-72939200D01*
X142911666Y-72939200D02*
X142959285Y-72891580D01*
X142959285Y-72891580D02*
X143006904Y-72796342D01*
X143006904Y-72796342D02*
X143006904Y-72701104D01*
X143006904Y-72701104D02*
X142959285Y-72605866D01*
X142959285Y-72605866D02*
X142911666Y-72558247D01*
X142911666Y-72558247D02*
X142816428Y-72510628D01*
X142816428Y-72510628D02*
X142625952Y-72463009D01*
X142625952Y-72463009D02*
X142530714Y-72415390D01*
X142530714Y-72415390D02*
X142483095Y-72367771D01*
X142483095Y-72367771D02*
X142435476Y-72272533D01*
X142435476Y-72272533D02*
X142435476Y-72177295D01*
X142435476Y-72177295D02*
X142483095Y-72082057D01*
X142483095Y-72082057D02*
X142530714Y-72034438D01*
X142530714Y-72034438D02*
X142625952Y-71986819D01*
X142625952Y-71986819D02*
X142864047Y-71986819D01*
X142864047Y-71986819D02*
X143006904Y-72034438D01*
X144102142Y-73082057D02*
X144006904Y-73034438D01*
X144006904Y-73034438D02*
X143911666Y-72939200D01*
X143911666Y-72939200D02*
X143768809Y-72796342D01*
X143768809Y-72796342D02*
X143673571Y-72748723D01*
X143673571Y-72748723D02*
X143578333Y-72748723D01*
X143625952Y-72986819D02*
X143530714Y-72939200D01*
X143530714Y-72939200D02*
X143435476Y-72843961D01*
X143435476Y-72843961D02*
X143387857Y-72653485D01*
X143387857Y-72653485D02*
X143387857Y-72320152D01*
X143387857Y-72320152D02*
X143435476Y-72129676D01*
X143435476Y-72129676D02*
X143530714Y-72034438D01*
X143530714Y-72034438D02*
X143625952Y-71986819D01*
X143625952Y-71986819D02*
X143816428Y-71986819D01*
X143816428Y-71986819D02*
X143911666Y-72034438D01*
X143911666Y-72034438D02*
X144006904Y-72129676D01*
X144006904Y-72129676D02*
X144054523Y-72320152D01*
X144054523Y-72320152D02*
X144054523Y-72653485D01*
X144054523Y-72653485D02*
X144006904Y-72843961D01*
X144006904Y-72843961D02*
X143911666Y-72939200D01*
X143911666Y-72939200D02*
X143816428Y-72986819D01*
X143816428Y-72986819D02*
X143625952Y-72986819D01*
X125401667Y-59286819D02*
X125735000Y-60286819D01*
X125735000Y-60286819D02*
X126068333Y-59286819D01*
X126973095Y-60191580D02*
X126925476Y-60239200D01*
X126925476Y-60239200D02*
X126782619Y-60286819D01*
X126782619Y-60286819D02*
X126687381Y-60286819D01*
X126687381Y-60286819D02*
X126544524Y-60239200D01*
X126544524Y-60239200D02*
X126449286Y-60143961D01*
X126449286Y-60143961D02*
X126401667Y-60048723D01*
X126401667Y-60048723D02*
X126354048Y-59858247D01*
X126354048Y-59858247D02*
X126354048Y-59715390D01*
X126354048Y-59715390D02*
X126401667Y-59524914D01*
X126401667Y-59524914D02*
X126449286Y-59429676D01*
X126449286Y-59429676D02*
X126544524Y-59334438D01*
X126544524Y-59334438D02*
X126687381Y-59286819D01*
X126687381Y-59286819D02*
X126782619Y-59286819D01*
X126782619Y-59286819D02*
X126925476Y-59334438D01*
X126925476Y-59334438D02*
X126973095Y-59382057D01*
X127973095Y-60191580D02*
X127925476Y-60239200D01*
X127925476Y-60239200D02*
X127782619Y-60286819D01*
X127782619Y-60286819D02*
X127687381Y-60286819D01*
X127687381Y-60286819D02*
X127544524Y-60239200D01*
X127544524Y-60239200D02*
X127449286Y-60143961D01*
X127449286Y-60143961D02*
X127401667Y-60048723D01*
X127401667Y-60048723D02*
X127354048Y-59858247D01*
X127354048Y-59858247D02*
X127354048Y-59715390D01*
X127354048Y-59715390D02*
X127401667Y-59524914D01*
X127401667Y-59524914D02*
X127449286Y-59429676D01*
X127449286Y-59429676D02*
X127544524Y-59334438D01*
X127544524Y-59334438D02*
X127687381Y-59286819D01*
X127687381Y-59286819D02*
X127782619Y-59286819D01*
X127782619Y-59286819D02*
X127925476Y-59334438D01*
X127925476Y-59334438D02*
X127973095Y-59382057D01*
X125973095Y-56794438D02*
X125877857Y-56746819D01*
X125877857Y-56746819D02*
X125735000Y-56746819D01*
X125735000Y-56746819D02*
X125592143Y-56794438D01*
X125592143Y-56794438D02*
X125496905Y-56889676D01*
X125496905Y-56889676D02*
X125449286Y-56984914D01*
X125449286Y-56984914D02*
X125401667Y-57175390D01*
X125401667Y-57175390D02*
X125401667Y-57318247D01*
X125401667Y-57318247D02*
X125449286Y-57508723D01*
X125449286Y-57508723D02*
X125496905Y-57603961D01*
X125496905Y-57603961D02*
X125592143Y-57699200D01*
X125592143Y-57699200D02*
X125735000Y-57746819D01*
X125735000Y-57746819D02*
X125830238Y-57746819D01*
X125830238Y-57746819D02*
X125973095Y-57699200D01*
X125973095Y-57699200D02*
X126020714Y-57651580D01*
X126020714Y-57651580D02*
X126020714Y-57318247D01*
X126020714Y-57318247D02*
X125830238Y-57318247D01*
X126449286Y-57746819D02*
X126449286Y-56746819D01*
X126449286Y-56746819D02*
X127020714Y-57746819D01*
X127020714Y-57746819D02*
X127020714Y-56746819D01*
X127496905Y-57746819D02*
X127496905Y-56746819D01*
X127496905Y-56746819D02*
X127735000Y-56746819D01*
X127735000Y-56746819D02*
X127877857Y-56794438D01*
X127877857Y-56794438D02*
X127973095Y-56889676D01*
X127973095Y-56889676D02*
X128020714Y-56984914D01*
X128020714Y-56984914D02*
X128068333Y-57175390D01*
X128068333Y-57175390D02*
X128068333Y-57318247D01*
X128068333Y-57318247D02*
X128020714Y-57508723D01*
X128020714Y-57508723D02*
X127973095Y-57603961D01*
X127973095Y-57603961D02*
X127877857Y-57699200D01*
X127877857Y-57699200D02*
X127735000Y-57746819D01*
X127735000Y-57746819D02*
X127496905Y-57746819D01*
X142506904Y-57223009D02*
X142649761Y-57270628D01*
X142649761Y-57270628D02*
X142697380Y-57318247D01*
X142697380Y-57318247D02*
X142744999Y-57413485D01*
X142744999Y-57413485D02*
X142744999Y-57556342D01*
X142744999Y-57556342D02*
X142697380Y-57651580D01*
X142697380Y-57651580D02*
X142649761Y-57699200D01*
X142649761Y-57699200D02*
X142554523Y-57746819D01*
X142554523Y-57746819D02*
X142173571Y-57746819D01*
X142173571Y-57746819D02*
X142173571Y-56746819D01*
X142173571Y-56746819D02*
X142506904Y-56746819D01*
X142506904Y-56746819D02*
X142602142Y-56794438D01*
X142602142Y-56794438D02*
X142649761Y-56842057D01*
X142649761Y-56842057D02*
X142697380Y-56937295D01*
X142697380Y-56937295D02*
X142697380Y-57032533D01*
X142697380Y-57032533D02*
X142649761Y-57127771D01*
X142649761Y-57127771D02*
X142602142Y-57175390D01*
X142602142Y-57175390D02*
X142506904Y-57223009D01*
X142506904Y-57223009D02*
X142173571Y-57223009D01*
X143125952Y-57461104D02*
X143602142Y-57461104D01*
X143030714Y-57746819D02*
X143364047Y-56746819D01*
X143364047Y-56746819D02*
X143697380Y-57746819D01*
X143887857Y-56746819D02*
X144459285Y-56746819D01*
X144173571Y-57746819D02*
X144173571Y-56746819D01*
X125996905Y-67906819D02*
X125996905Y-66906819D01*
X125996905Y-66906819D02*
X126235000Y-66906819D01*
X126235000Y-66906819D02*
X126377857Y-66954438D01*
X126377857Y-66954438D02*
X126473095Y-67049676D01*
X126473095Y-67049676D02*
X126520714Y-67144914D01*
X126520714Y-67144914D02*
X126568333Y-67335390D01*
X126568333Y-67335390D02*
X126568333Y-67478247D01*
X126568333Y-67478247D02*
X126520714Y-67668723D01*
X126520714Y-67668723D02*
X126473095Y-67763961D01*
X126473095Y-67763961D02*
X126377857Y-67859200D01*
X126377857Y-67859200D02*
X126235000Y-67906819D01*
X126235000Y-67906819D02*
X125996905Y-67906819D01*
X126949286Y-67859200D02*
X127092143Y-67906819D01*
X127092143Y-67906819D02*
X127330238Y-67906819D01*
X127330238Y-67906819D02*
X127425476Y-67859200D01*
X127425476Y-67859200D02*
X127473095Y-67811580D01*
X127473095Y-67811580D02*
X127520714Y-67716342D01*
X127520714Y-67716342D02*
X127520714Y-67621104D01*
X127520714Y-67621104D02*
X127473095Y-67525866D01*
X127473095Y-67525866D02*
X127425476Y-67478247D01*
X127425476Y-67478247D02*
X127330238Y-67430628D01*
X127330238Y-67430628D02*
X127139762Y-67383009D01*
X127139762Y-67383009D02*
X127044524Y-67335390D01*
X127044524Y-67335390D02*
X126996905Y-67287771D01*
X126996905Y-67287771D02*
X126949286Y-67192533D01*
X126949286Y-67192533D02*
X126949286Y-67097295D01*
X126949286Y-67097295D02*
X126996905Y-67002057D01*
X126996905Y-67002057D02*
X127044524Y-66954438D01*
X127044524Y-66954438D02*
X127139762Y-66906819D01*
X127139762Y-66906819D02*
X127377857Y-66906819D01*
X127377857Y-66906819D02*
X127520714Y-66954438D01*
X125520714Y-62779200D02*
X125663571Y-62826819D01*
X125663571Y-62826819D02*
X125901666Y-62826819D01*
X125901666Y-62826819D02*
X125996904Y-62779200D01*
X125996904Y-62779200D02*
X126044523Y-62731580D01*
X126044523Y-62731580D02*
X126092142Y-62636342D01*
X126092142Y-62636342D02*
X126092142Y-62541104D01*
X126092142Y-62541104D02*
X126044523Y-62445866D01*
X126044523Y-62445866D02*
X125996904Y-62398247D01*
X125996904Y-62398247D02*
X125901666Y-62350628D01*
X125901666Y-62350628D02*
X125711190Y-62303009D01*
X125711190Y-62303009D02*
X125615952Y-62255390D01*
X125615952Y-62255390D02*
X125568333Y-62207771D01*
X125568333Y-62207771D02*
X125520714Y-62112533D01*
X125520714Y-62112533D02*
X125520714Y-62017295D01*
X125520714Y-62017295D02*
X125568333Y-61922057D01*
X125568333Y-61922057D02*
X125615952Y-61874438D01*
X125615952Y-61874438D02*
X125711190Y-61826819D01*
X125711190Y-61826819D02*
X125949285Y-61826819D01*
X125949285Y-61826819D02*
X126092142Y-61874438D01*
X126520714Y-62826819D02*
X126520714Y-61826819D01*
X126520714Y-61826819D02*
X126758809Y-61826819D01*
X126758809Y-61826819D02*
X126901666Y-61874438D01*
X126901666Y-61874438D02*
X126996904Y-61969676D01*
X126996904Y-61969676D02*
X127044523Y-62064914D01*
X127044523Y-62064914D02*
X127092142Y-62255390D01*
X127092142Y-62255390D02*
X127092142Y-62398247D01*
X127092142Y-62398247D02*
X127044523Y-62588723D01*
X127044523Y-62588723D02*
X126996904Y-62683961D01*
X126996904Y-62683961D02*
X126901666Y-62779200D01*
X126901666Y-62779200D02*
X126758809Y-62826819D01*
X126758809Y-62826819D02*
X126520714Y-62826819D01*
X127473095Y-62541104D02*
X127949285Y-62541104D01*
X127377857Y-62826819D02*
X127711190Y-61826819D01*
X127711190Y-61826819D02*
X128044523Y-62826819D01*
D13*
X142729285Y-75755528D02*
X142729285Y-74755528D01*
X142729285Y-75041242D02*
X142800714Y-74898385D01*
X142800714Y-74898385D02*
X142872143Y-74826957D01*
X142872143Y-74826957D02*
X143015000Y-74755528D01*
X143015000Y-74755528D02*
X143157857Y-74755528D01*
X143872142Y-75755528D02*
X143729285Y-75684100D01*
X143729285Y-75684100D02*
X143657856Y-75612671D01*
X143657856Y-75612671D02*
X143586428Y-75469814D01*
X143586428Y-75469814D02*
X143586428Y-75041242D01*
X143586428Y-75041242D02*
X143657856Y-74898385D01*
X143657856Y-74898385D02*
X143729285Y-74826957D01*
X143729285Y-74826957D02*
X143872142Y-74755528D01*
X143872142Y-74755528D02*
X144086428Y-74755528D01*
X144086428Y-74755528D02*
X144229285Y-74826957D01*
X144229285Y-74826957D02*
X144300714Y-74898385D01*
X144300714Y-74898385D02*
X144372142Y-75041242D01*
X144372142Y-75041242D02*
X144372142Y-75469814D01*
X144372142Y-75469814D02*
X144300714Y-75612671D01*
X144300714Y-75612671D02*
X144229285Y-75684100D01*
X144229285Y-75684100D02*
X144086428Y-75755528D01*
X144086428Y-75755528D02*
X143872142Y-75755528D01*
X145014999Y-75755528D02*
X145014999Y-74755528D01*
X145014999Y-74898385D02*
X145086428Y-74826957D01*
X145086428Y-74826957D02*
X145229285Y-74755528D01*
X145229285Y-74755528D02*
X145443571Y-74755528D01*
X145443571Y-74755528D02*
X145586428Y-74826957D01*
X145586428Y-74826957D02*
X145657857Y-74969814D01*
X145657857Y-74969814D02*
X145657857Y-75755528D01*
X145657857Y-74969814D02*
X145729285Y-74826957D01*
X145729285Y-74826957D02*
X145872142Y-74755528D01*
X145872142Y-74755528D02*
X146086428Y-74755528D01*
X146086428Y-74755528D02*
X146229285Y-74826957D01*
X146229285Y-74826957D02*
X146300714Y-74969814D01*
X146300714Y-74969814D02*
X146300714Y-75755528D01*
X124286428Y-70675528D02*
X124286428Y-69675528D01*
X124286428Y-69961242D02*
X124357857Y-69818385D01*
X124357857Y-69818385D02*
X124429286Y-69746957D01*
X124429286Y-69746957D02*
X124572143Y-69675528D01*
X124572143Y-69675528D02*
X124715000Y-69675528D01*
X125000714Y-69675528D02*
X125572142Y-69675528D01*
X125214999Y-69175528D02*
X125214999Y-70461242D01*
X125214999Y-70461242D02*
X125286428Y-70604100D01*
X125286428Y-70604100D02*
X125429285Y-70675528D01*
X125429285Y-70675528D02*
X125572142Y-70675528D01*
X126715000Y-70604100D02*
X126572142Y-70675528D01*
X126572142Y-70675528D02*
X126286428Y-70675528D01*
X126286428Y-70675528D02*
X126143571Y-70604100D01*
X126143571Y-70604100D02*
X126072142Y-70532671D01*
X126072142Y-70532671D02*
X126000714Y-70389814D01*
X126000714Y-70389814D02*
X126000714Y-69961242D01*
X126000714Y-69961242D02*
X126072142Y-69818385D01*
X126072142Y-69818385D02*
X126143571Y-69746957D01*
X126143571Y-69746957D02*
X126286428Y-69675528D01*
X126286428Y-69675528D02*
X126572142Y-69675528D01*
X126572142Y-69675528D02*
X126715000Y-69746957D01*
D10*
X142030714Y-65319200D02*
X142173571Y-65366819D01*
X142173571Y-65366819D02*
X142411666Y-65366819D01*
X142411666Y-65366819D02*
X142506904Y-65319200D01*
X142506904Y-65319200D02*
X142554523Y-65271580D01*
X142554523Y-65271580D02*
X142602142Y-65176342D01*
X142602142Y-65176342D02*
X142602142Y-65081104D01*
X142602142Y-65081104D02*
X142554523Y-64985866D01*
X142554523Y-64985866D02*
X142506904Y-64938247D01*
X142506904Y-64938247D02*
X142411666Y-64890628D01*
X142411666Y-64890628D02*
X142221190Y-64843009D01*
X142221190Y-64843009D02*
X142125952Y-64795390D01*
X142125952Y-64795390D02*
X142078333Y-64747771D01*
X142078333Y-64747771D02*
X142030714Y-64652533D01*
X142030714Y-64652533D02*
X142030714Y-64557295D01*
X142030714Y-64557295D02*
X142078333Y-64462057D01*
X142078333Y-64462057D02*
X142125952Y-64414438D01*
X142125952Y-64414438D02*
X142221190Y-64366819D01*
X142221190Y-64366819D02*
X142459285Y-64366819D01*
X142459285Y-64366819D02*
X142602142Y-64414438D01*
X143030714Y-65366819D02*
X143030714Y-64366819D01*
X143030714Y-64366819D02*
X143268809Y-64366819D01*
X143268809Y-64366819D02*
X143411666Y-64414438D01*
X143411666Y-64414438D02*
X143506904Y-64509676D01*
X143506904Y-64509676D02*
X143554523Y-64604914D01*
X143554523Y-64604914D02*
X143602142Y-64795390D01*
X143602142Y-64795390D02*
X143602142Y-64938247D01*
X143602142Y-64938247D02*
X143554523Y-65128723D01*
X143554523Y-65128723D02*
X143506904Y-65223961D01*
X143506904Y-65223961D02*
X143411666Y-65319200D01*
X143411666Y-65319200D02*
X143268809Y-65366819D01*
X143268809Y-65366819D02*
X143030714Y-65366819D01*
X143983095Y-65081104D02*
X144459285Y-65081104D01*
X143887857Y-65366819D02*
X144221190Y-64366819D01*
X144221190Y-64366819D02*
X144554523Y-65366819D01*
X125544524Y-65319200D02*
X125687381Y-65366819D01*
X125687381Y-65366819D02*
X125925476Y-65366819D01*
X125925476Y-65366819D02*
X126020714Y-65319200D01*
X126020714Y-65319200D02*
X126068333Y-65271580D01*
X126068333Y-65271580D02*
X126115952Y-65176342D01*
X126115952Y-65176342D02*
X126115952Y-65081104D01*
X126115952Y-65081104D02*
X126068333Y-64985866D01*
X126068333Y-64985866D02*
X126020714Y-64938247D01*
X126020714Y-64938247D02*
X125925476Y-64890628D01*
X125925476Y-64890628D02*
X125735000Y-64843009D01*
X125735000Y-64843009D02*
X125639762Y-64795390D01*
X125639762Y-64795390D02*
X125592143Y-64747771D01*
X125592143Y-64747771D02*
X125544524Y-64652533D01*
X125544524Y-64652533D02*
X125544524Y-64557295D01*
X125544524Y-64557295D02*
X125592143Y-64462057D01*
X125592143Y-64462057D02*
X125639762Y-64414438D01*
X125639762Y-64414438D02*
X125735000Y-64366819D01*
X125735000Y-64366819D02*
X125973095Y-64366819D01*
X125973095Y-64366819D02*
X126115952Y-64414438D01*
X127115952Y-65271580D02*
X127068333Y-65319200D01*
X127068333Y-65319200D02*
X126925476Y-65366819D01*
X126925476Y-65366819D02*
X126830238Y-65366819D01*
X126830238Y-65366819D02*
X126687381Y-65319200D01*
X126687381Y-65319200D02*
X126592143Y-65223961D01*
X126592143Y-65223961D02*
X126544524Y-65128723D01*
X126544524Y-65128723D02*
X126496905Y-64938247D01*
X126496905Y-64938247D02*
X126496905Y-64795390D01*
X126496905Y-64795390D02*
X126544524Y-64604914D01*
X126544524Y-64604914D02*
X126592143Y-64509676D01*
X126592143Y-64509676D02*
X126687381Y-64414438D01*
X126687381Y-64414438D02*
X126830238Y-64366819D01*
X126830238Y-64366819D02*
X126925476Y-64366819D01*
X126925476Y-64366819D02*
X127068333Y-64414438D01*
X127068333Y-64414438D02*
X127115952Y-64462057D01*
X128020714Y-65366819D02*
X127544524Y-65366819D01*
X127544524Y-65366819D02*
X127544524Y-64366819D01*
X141911667Y-61826819D02*
X142245000Y-62826819D01*
X142245000Y-62826819D02*
X142578333Y-61826819D01*
X143483095Y-62731580D02*
X143435476Y-62779200D01*
X143435476Y-62779200D02*
X143292619Y-62826819D01*
X143292619Y-62826819D02*
X143197381Y-62826819D01*
X143197381Y-62826819D02*
X143054524Y-62779200D01*
X143054524Y-62779200D02*
X142959286Y-62683961D01*
X142959286Y-62683961D02*
X142911667Y-62588723D01*
X142911667Y-62588723D02*
X142864048Y-62398247D01*
X142864048Y-62398247D02*
X142864048Y-62255390D01*
X142864048Y-62255390D02*
X142911667Y-62064914D01*
X142911667Y-62064914D02*
X142959286Y-61969676D01*
X142959286Y-61969676D02*
X143054524Y-61874438D01*
X143054524Y-61874438D02*
X143197381Y-61826819D01*
X143197381Y-61826819D02*
X143292619Y-61826819D01*
X143292619Y-61826819D02*
X143435476Y-61874438D01*
X143435476Y-61874438D02*
X143483095Y-61922057D01*
X144483095Y-62731580D02*
X144435476Y-62779200D01*
X144435476Y-62779200D02*
X144292619Y-62826819D01*
X144292619Y-62826819D02*
X144197381Y-62826819D01*
X144197381Y-62826819D02*
X144054524Y-62779200D01*
X144054524Y-62779200D02*
X143959286Y-62683961D01*
X143959286Y-62683961D02*
X143911667Y-62588723D01*
X143911667Y-62588723D02*
X143864048Y-62398247D01*
X143864048Y-62398247D02*
X143864048Y-62255390D01*
X143864048Y-62255390D02*
X143911667Y-62064914D01*
X143911667Y-62064914D02*
X143959286Y-61969676D01*
X143959286Y-61969676D02*
X144054524Y-61874438D01*
X144054524Y-61874438D02*
X144197381Y-61826819D01*
X144197381Y-61826819D02*
X144292619Y-61826819D01*
X144292619Y-61826819D02*
X144435476Y-61874438D01*
X144435476Y-61874438D02*
X144483095Y-61922057D01*
X142483095Y-59334438D02*
X142387857Y-59286819D01*
X142387857Y-59286819D02*
X142245000Y-59286819D01*
X142245000Y-59286819D02*
X142102143Y-59334438D01*
X142102143Y-59334438D02*
X142006905Y-59429676D01*
X142006905Y-59429676D02*
X141959286Y-59524914D01*
X141959286Y-59524914D02*
X141911667Y-59715390D01*
X141911667Y-59715390D02*
X141911667Y-59858247D01*
X141911667Y-59858247D02*
X141959286Y-60048723D01*
X141959286Y-60048723D02*
X142006905Y-60143961D01*
X142006905Y-60143961D02*
X142102143Y-60239200D01*
X142102143Y-60239200D02*
X142245000Y-60286819D01*
X142245000Y-60286819D02*
X142340238Y-60286819D01*
X142340238Y-60286819D02*
X142483095Y-60239200D01*
X142483095Y-60239200D02*
X142530714Y-60191580D01*
X142530714Y-60191580D02*
X142530714Y-59858247D01*
X142530714Y-59858247D02*
X142340238Y-59858247D01*
X142959286Y-60286819D02*
X142959286Y-59286819D01*
X142959286Y-59286819D02*
X143530714Y-60286819D01*
X143530714Y-60286819D02*
X143530714Y-59286819D01*
X144006905Y-60286819D02*
X144006905Y-59286819D01*
X144006905Y-59286819D02*
X144245000Y-59286819D01*
X144245000Y-59286819D02*
X144387857Y-59334438D01*
X144387857Y-59334438D02*
X144483095Y-59429676D01*
X144483095Y-59429676D02*
X144530714Y-59524914D01*
X144530714Y-59524914D02*
X144578333Y-59715390D01*
X144578333Y-59715390D02*
X144578333Y-59858247D01*
X144578333Y-59858247D02*
X144530714Y-60048723D01*
X144530714Y-60048723D02*
X144483095Y-60143961D01*
X144483095Y-60143961D02*
X144387857Y-60239200D01*
X144387857Y-60239200D02*
X144245000Y-60286819D01*
X144245000Y-60286819D02*
X144006905Y-60286819D01*
X142054524Y-67859200D02*
X142197381Y-67906819D01*
X142197381Y-67906819D02*
X142435476Y-67906819D01*
X142435476Y-67906819D02*
X142530714Y-67859200D01*
X142530714Y-67859200D02*
X142578333Y-67811580D01*
X142578333Y-67811580D02*
X142625952Y-67716342D01*
X142625952Y-67716342D02*
X142625952Y-67621104D01*
X142625952Y-67621104D02*
X142578333Y-67525866D01*
X142578333Y-67525866D02*
X142530714Y-67478247D01*
X142530714Y-67478247D02*
X142435476Y-67430628D01*
X142435476Y-67430628D02*
X142245000Y-67383009D01*
X142245000Y-67383009D02*
X142149762Y-67335390D01*
X142149762Y-67335390D02*
X142102143Y-67287771D01*
X142102143Y-67287771D02*
X142054524Y-67192533D01*
X142054524Y-67192533D02*
X142054524Y-67097295D01*
X142054524Y-67097295D02*
X142102143Y-67002057D01*
X142102143Y-67002057D02*
X142149762Y-66954438D01*
X142149762Y-66954438D02*
X142245000Y-66906819D01*
X142245000Y-66906819D02*
X142483095Y-66906819D01*
X142483095Y-66906819D02*
X142625952Y-66954438D01*
X143625952Y-67811580D02*
X143578333Y-67859200D01*
X143578333Y-67859200D02*
X143435476Y-67906819D01*
X143435476Y-67906819D02*
X143340238Y-67906819D01*
X143340238Y-67906819D02*
X143197381Y-67859200D01*
X143197381Y-67859200D02*
X143102143Y-67763961D01*
X143102143Y-67763961D02*
X143054524Y-67668723D01*
X143054524Y-67668723D02*
X143006905Y-67478247D01*
X143006905Y-67478247D02*
X143006905Y-67335390D01*
X143006905Y-67335390D02*
X143054524Y-67144914D01*
X143054524Y-67144914D02*
X143102143Y-67049676D01*
X143102143Y-67049676D02*
X143197381Y-66954438D01*
X143197381Y-66954438D02*
X143340238Y-66906819D01*
X143340238Y-66906819D02*
X143435476Y-66906819D01*
X143435476Y-66906819D02*
X143578333Y-66954438D01*
X143578333Y-66954438D02*
X143625952Y-67002057D01*
X144530714Y-67906819D02*
X144054524Y-67906819D01*
X144054524Y-67906819D02*
X144054524Y-66906819D01*
X142506905Y-70446819D02*
X142506905Y-69446819D01*
X142506905Y-69446819D02*
X142745000Y-69446819D01*
X142745000Y-69446819D02*
X142887857Y-69494438D01*
X142887857Y-69494438D02*
X142983095Y-69589676D01*
X142983095Y-69589676D02*
X143030714Y-69684914D01*
X143030714Y-69684914D02*
X143078333Y-69875390D01*
X143078333Y-69875390D02*
X143078333Y-70018247D01*
X143078333Y-70018247D02*
X143030714Y-70208723D01*
X143030714Y-70208723D02*
X142983095Y-70303961D01*
X142983095Y-70303961D02*
X142887857Y-70399200D01*
X142887857Y-70399200D02*
X142745000Y-70446819D01*
X142745000Y-70446819D02*
X142506905Y-70446819D01*
X143459286Y-70399200D02*
X143602143Y-70446819D01*
X143602143Y-70446819D02*
X143840238Y-70446819D01*
X143840238Y-70446819D02*
X143935476Y-70399200D01*
X143935476Y-70399200D02*
X143983095Y-70351580D01*
X143983095Y-70351580D02*
X144030714Y-70256342D01*
X144030714Y-70256342D02*
X144030714Y-70161104D01*
X144030714Y-70161104D02*
X143983095Y-70065866D01*
X143983095Y-70065866D02*
X143935476Y-70018247D01*
X143935476Y-70018247D02*
X143840238Y-69970628D01*
X143840238Y-69970628D02*
X143649762Y-69923009D01*
X143649762Y-69923009D02*
X143554524Y-69875390D01*
X143554524Y-69875390D02*
X143506905Y-69827771D01*
X143506905Y-69827771D02*
X143459286Y-69732533D01*
X143459286Y-69732533D02*
X143459286Y-69637295D01*
X143459286Y-69637295D02*
X143506905Y-69542057D01*
X143506905Y-69542057D02*
X143554524Y-69494438D01*
X143554524Y-69494438D02*
X143649762Y-69446819D01*
X143649762Y-69446819D02*
X143887857Y-69446819D01*
X143887857Y-69446819D02*
X144030714Y-69494438D01*
X142394819Y-99860333D02*
X143109104Y-99860333D01*
X143109104Y-99860333D02*
X143251961Y-99907952D01*
X143251961Y-99907952D02*
X143347200Y-100003190D01*
X143347200Y-100003190D02*
X143394819Y-100146047D01*
X143394819Y-100146047D02*
X143394819Y-100241285D01*
X142490057Y-99431761D02*
X142442438Y-99384142D01*
X142442438Y-99384142D02*
X142394819Y-99288904D01*
X142394819Y-99288904D02*
X142394819Y-99050809D01*
X142394819Y-99050809D02*
X142442438Y-98955571D01*
X142442438Y-98955571D02*
X142490057Y-98907952D01*
X142490057Y-98907952D02*
X142585295Y-98860333D01*
X142585295Y-98860333D02*
X142680533Y-98860333D01*
X142680533Y-98860333D02*
X142823390Y-98907952D01*
X142823390Y-98907952D02*
X143394819Y-99479380D01*
X143394819Y-99479380D02*
X143394819Y-98860333D01*
X115738095Y-107454819D02*
X115738095Y-108264342D01*
X115738095Y-108264342D02*
X115785714Y-108359580D01*
X115785714Y-108359580D02*
X115833333Y-108407200D01*
X115833333Y-108407200D02*
X115928571Y-108454819D01*
X115928571Y-108454819D02*
X116119047Y-108454819D01*
X116119047Y-108454819D02*
X116214285Y-108407200D01*
X116214285Y-108407200D02*
X116261904Y-108359580D01*
X116261904Y-108359580D02*
X116309523Y-108264342D01*
X116309523Y-108264342D02*
X116309523Y-107454819D01*
X116738095Y-107550057D02*
X116785714Y-107502438D01*
X116785714Y-107502438D02*
X116880952Y-107454819D01*
X116880952Y-107454819D02*
X117119047Y-107454819D01*
X117119047Y-107454819D02*
X117214285Y-107502438D01*
X117214285Y-107502438D02*
X117261904Y-107550057D01*
X117261904Y-107550057D02*
X117309523Y-107645295D01*
X117309523Y-107645295D02*
X117309523Y-107740533D01*
X117309523Y-107740533D02*
X117261904Y-107883390D01*
X117261904Y-107883390D02*
X116690476Y-108454819D01*
X116690476Y-108454819D02*
X117309523Y-108454819D01*
X165769761Y-107426152D02*
X165769761Y-108426152D01*
X165769761Y-107473771D02*
X165864999Y-107426152D01*
X165864999Y-107426152D02*
X166055475Y-107426152D01*
X166055475Y-107426152D02*
X166150713Y-107473771D01*
X166150713Y-107473771D02*
X166198332Y-107521390D01*
X166198332Y-107521390D02*
X166245951Y-107616628D01*
X166245951Y-107616628D02*
X166245951Y-107902342D01*
X166245951Y-107902342D02*
X166198332Y-107997580D01*
X166198332Y-107997580D02*
X166150713Y-108045200D01*
X166150713Y-108045200D02*
X166055475Y-108092819D01*
X166055475Y-108092819D02*
X165864999Y-108092819D01*
X165864999Y-108092819D02*
X165769761Y-108045200D01*
X167103094Y-108045200D02*
X167007856Y-108092819D01*
X167007856Y-108092819D02*
X166817380Y-108092819D01*
X166817380Y-108092819D02*
X166722142Y-108045200D01*
X166722142Y-108045200D02*
X166674523Y-107997580D01*
X166674523Y-107997580D02*
X166626904Y-107902342D01*
X166626904Y-107902342D02*
X166626904Y-107616628D01*
X166626904Y-107616628D02*
X166674523Y-107521390D01*
X166674523Y-107521390D02*
X166722142Y-107473771D01*
X166722142Y-107473771D02*
X166817380Y-107426152D01*
X166817380Y-107426152D02*
X167007856Y-107426152D01*
X167007856Y-107426152D02*
X167103094Y-107473771D01*
X167960237Y-108092819D02*
X167960237Y-107569009D01*
X167960237Y-107569009D02*
X167912618Y-107473771D01*
X167912618Y-107473771D02*
X167817380Y-107426152D01*
X167817380Y-107426152D02*
X167626904Y-107426152D01*
X167626904Y-107426152D02*
X167531666Y-107473771D01*
X167960237Y-108045200D02*
X167864999Y-108092819D01*
X167864999Y-108092819D02*
X167626904Y-108092819D01*
X167626904Y-108092819D02*
X167531666Y-108045200D01*
X167531666Y-108045200D02*
X167484047Y-107949961D01*
X167484047Y-107949961D02*
X167484047Y-107854723D01*
X167484047Y-107854723D02*
X167531666Y-107759485D01*
X167531666Y-107759485D02*
X167626904Y-107711866D01*
X167626904Y-107711866D02*
X167864999Y-107711866D01*
X167864999Y-107711866D02*
X167960237Y-107664247D01*
X168484047Y-108092819D02*
X168674523Y-108092819D01*
X168674523Y-108092819D02*
X168769761Y-108045200D01*
X168769761Y-108045200D02*
X168817380Y-107997580D01*
X168817380Y-107997580D02*
X168912618Y-107854723D01*
X168912618Y-107854723D02*
X168960237Y-107664247D01*
X168960237Y-107664247D02*
X168960237Y-107283295D01*
X168960237Y-107283295D02*
X168912618Y-107188057D01*
X168912618Y-107188057D02*
X168864999Y-107140438D01*
X168864999Y-107140438D02*
X168769761Y-107092819D01*
X168769761Y-107092819D02*
X168579285Y-107092819D01*
X168579285Y-107092819D02*
X168484047Y-107140438D01*
X168484047Y-107140438D02*
X168436428Y-107188057D01*
X168436428Y-107188057D02*
X168388809Y-107283295D01*
X168388809Y-107283295D02*
X168388809Y-107521390D01*
X168388809Y-107521390D02*
X168436428Y-107616628D01*
X168436428Y-107616628D02*
X168484047Y-107664247D01*
X168484047Y-107664247D02*
X168579285Y-107711866D01*
X168579285Y-107711866D02*
X168769761Y-107711866D01*
X168769761Y-107711866D02*
X168864999Y-107664247D01*
X168864999Y-107664247D02*
X168912618Y-107616628D01*
X168912618Y-107616628D02*
X168960237Y-107521390D01*
X169817380Y-107092819D02*
X169626904Y-107092819D01*
X169626904Y-107092819D02*
X169531666Y-107140438D01*
X169531666Y-107140438D02*
X169484047Y-107188057D01*
X169484047Y-107188057D02*
X169388809Y-107330914D01*
X169388809Y-107330914D02*
X169341190Y-107521390D01*
X169341190Y-107521390D02*
X169341190Y-107902342D01*
X169341190Y-107902342D02*
X169388809Y-107997580D01*
X169388809Y-107997580D02*
X169436428Y-108045200D01*
X169436428Y-108045200D02*
X169531666Y-108092819D01*
X169531666Y-108092819D02*
X169722142Y-108092819D01*
X169722142Y-108092819D02*
X169817380Y-108045200D01*
X169817380Y-108045200D02*
X169864999Y-107997580D01*
X169864999Y-107997580D02*
X169912618Y-107902342D01*
X169912618Y-107902342D02*
X169912618Y-107664247D01*
X169912618Y-107664247D02*
X169864999Y-107569009D01*
X169864999Y-107569009D02*
X169817380Y-107521390D01*
X169817380Y-107521390D02*
X169722142Y-107473771D01*
X169722142Y-107473771D02*
X169531666Y-107473771D01*
X169531666Y-107473771D02*
X169436428Y-107521390D01*
X169436428Y-107521390D02*
X169388809Y-107569009D01*
X169388809Y-107569009D02*
X169341190Y-107664247D01*
X170484047Y-107521390D02*
X170388809Y-107473771D01*
X170388809Y-107473771D02*
X170341190Y-107426152D01*
X170341190Y-107426152D02*
X170293571Y-107330914D01*
X170293571Y-107330914D02*
X170293571Y-107283295D01*
X170293571Y-107283295D02*
X170341190Y-107188057D01*
X170341190Y-107188057D02*
X170388809Y-107140438D01*
X170388809Y-107140438D02*
X170484047Y-107092819D01*
X170484047Y-107092819D02*
X170674523Y-107092819D01*
X170674523Y-107092819D02*
X170769761Y-107140438D01*
X170769761Y-107140438D02*
X170817380Y-107188057D01*
X170817380Y-107188057D02*
X170864999Y-107283295D01*
X170864999Y-107283295D02*
X170864999Y-107330914D01*
X170864999Y-107330914D02*
X170817380Y-107426152D01*
X170817380Y-107426152D02*
X170769761Y-107473771D01*
X170769761Y-107473771D02*
X170674523Y-107521390D01*
X170674523Y-107521390D02*
X170484047Y-107521390D01*
X170484047Y-107521390D02*
X170388809Y-107569009D01*
X170388809Y-107569009D02*
X170341190Y-107616628D01*
X170341190Y-107616628D02*
X170293571Y-107711866D01*
X170293571Y-107711866D02*
X170293571Y-107902342D01*
X170293571Y-107902342D02*
X170341190Y-107997580D01*
X170341190Y-107997580D02*
X170388809Y-108045200D01*
X170388809Y-108045200D02*
X170484047Y-108092819D01*
X170484047Y-108092819D02*
X170674523Y-108092819D01*
X170674523Y-108092819D02*
X170769761Y-108045200D01*
X170769761Y-108045200D02*
X170817380Y-107997580D01*
X170817380Y-107997580D02*
X170864999Y-107902342D01*
X170864999Y-107902342D02*
X170864999Y-107711866D01*
X170864999Y-107711866D02*
X170817380Y-107616628D01*
X170817380Y-107616628D02*
X170769761Y-107569009D01*
X170769761Y-107569009D02*
X170674523Y-107521390D01*
X171769761Y-107092819D02*
X171293571Y-107092819D01*
X171293571Y-107092819D02*
X171245952Y-107569009D01*
X171245952Y-107569009D02*
X171293571Y-107521390D01*
X171293571Y-107521390D02*
X171388809Y-107473771D01*
X171388809Y-107473771D02*
X171626904Y-107473771D01*
X171626904Y-107473771D02*
X171722142Y-107521390D01*
X171722142Y-107521390D02*
X171769761Y-107569009D01*
X171769761Y-107569009D02*
X171817380Y-107664247D01*
X171817380Y-107664247D02*
X171817380Y-107902342D01*
X171817380Y-107902342D02*
X171769761Y-107997580D01*
X171769761Y-107997580D02*
X171722142Y-108045200D01*
X171722142Y-108045200D02*
X171626904Y-108092819D01*
X171626904Y-108092819D02*
X171388809Y-108092819D01*
X171388809Y-108092819D02*
X171293571Y-108045200D01*
X171293571Y-108045200D02*
X171245952Y-107997580D01*
X173007857Y-108092819D02*
X173007857Y-107426152D01*
X173007857Y-107521390D02*
X173055476Y-107473771D01*
X173055476Y-107473771D02*
X173150714Y-107426152D01*
X173150714Y-107426152D02*
X173293571Y-107426152D01*
X173293571Y-107426152D02*
X173388809Y-107473771D01*
X173388809Y-107473771D02*
X173436428Y-107569009D01*
X173436428Y-107569009D02*
X173436428Y-108092819D01*
X173436428Y-107569009D02*
X173484047Y-107473771D01*
X173484047Y-107473771D02*
X173579285Y-107426152D01*
X173579285Y-107426152D02*
X173722142Y-107426152D01*
X173722142Y-107426152D02*
X173817381Y-107473771D01*
X173817381Y-107473771D02*
X173865000Y-107569009D01*
X173865000Y-107569009D02*
X173865000Y-108092819D01*
X174484047Y-108092819D02*
X174388809Y-108045200D01*
X174388809Y-108045200D02*
X174341190Y-107997580D01*
X174341190Y-107997580D02*
X174293571Y-107902342D01*
X174293571Y-107902342D02*
X174293571Y-107616628D01*
X174293571Y-107616628D02*
X174341190Y-107521390D01*
X174341190Y-107521390D02*
X174388809Y-107473771D01*
X174388809Y-107473771D02*
X174484047Y-107426152D01*
X174484047Y-107426152D02*
X174626904Y-107426152D01*
X174626904Y-107426152D02*
X174722142Y-107473771D01*
X174722142Y-107473771D02*
X174769761Y-107521390D01*
X174769761Y-107521390D02*
X174817380Y-107616628D01*
X174817380Y-107616628D02*
X174817380Y-107902342D01*
X174817380Y-107902342D02*
X174769761Y-107997580D01*
X174769761Y-107997580D02*
X174722142Y-108045200D01*
X174722142Y-108045200D02*
X174626904Y-108092819D01*
X174626904Y-108092819D02*
X174484047Y-108092819D01*
X175674523Y-108092819D02*
X175674523Y-107092819D01*
X175674523Y-108045200D02*
X175579285Y-108092819D01*
X175579285Y-108092819D02*
X175388809Y-108092819D01*
X175388809Y-108092819D02*
X175293571Y-108045200D01*
X175293571Y-108045200D02*
X175245952Y-107997580D01*
X175245952Y-107997580D02*
X175198333Y-107902342D01*
X175198333Y-107902342D02*
X175198333Y-107616628D01*
X175198333Y-107616628D02*
X175245952Y-107521390D01*
X175245952Y-107521390D02*
X175293571Y-107473771D01*
X175293571Y-107473771D02*
X175388809Y-107426152D01*
X175388809Y-107426152D02*
X175579285Y-107426152D01*
X175579285Y-107426152D02*
X175674523Y-107473771D01*
X176579285Y-107426152D02*
X176579285Y-108092819D01*
X176150714Y-107426152D02*
X176150714Y-107949961D01*
X176150714Y-107949961D02*
X176198333Y-108045200D01*
X176198333Y-108045200D02*
X176293571Y-108092819D01*
X176293571Y-108092819D02*
X176436428Y-108092819D01*
X176436428Y-108092819D02*
X176531666Y-108045200D01*
X176531666Y-108045200D02*
X176579285Y-107997580D01*
X177198333Y-108092819D02*
X177103095Y-108045200D01*
X177103095Y-108045200D02*
X177055476Y-107949961D01*
X177055476Y-107949961D02*
X177055476Y-107092819D01*
X177960238Y-108045200D02*
X177865000Y-108092819D01*
X177865000Y-108092819D02*
X177674524Y-108092819D01*
X177674524Y-108092819D02*
X177579286Y-108045200D01*
X177579286Y-108045200D02*
X177531667Y-107949961D01*
X177531667Y-107949961D02*
X177531667Y-107569009D01*
X177531667Y-107569009D02*
X177579286Y-107473771D01*
X177579286Y-107473771D02*
X177674524Y-107426152D01*
X177674524Y-107426152D02*
X177865000Y-107426152D01*
X177865000Y-107426152D02*
X177960238Y-107473771D01*
X177960238Y-107473771D02*
X178007857Y-107569009D01*
X178007857Y-107569009D02*
X178007857Y-107664247D01*
X178007857Y-107664247D02*
X177531667Y-107759485D01*
X161275714Y-93799104D02*
X161751904Y-93799104D01*
X161180476Y-94084819D02*
X161513809Y-93084819D01*
X161513809Y-93084819D02*
X161847142Y-94084819D01*
X162704285Y-94084819D02*
X162132857Y-94084819D01*
X162418571Y-94084819D02*
X162418571Y-93084819D01*
X162418571Y-93084819D02*
X162323333Y-93227676D01*
X162323333Y-93227676D02*
X162228095Y-93322914D01*
X162228095Y-93322914D02*
X162132857Y-93370533D01*
X173454819Y-91071429D02*
X172931009Y-91071429D01*
X172931009Y-91071429D02*
X172835771Y-91119048D01*
X172835771Y-91119048D02*
X172788152Y-91214286D01*
X172788152Y-91214286D02*
X172788152Y-91404762D01*
X172788152Y-91404762D02*
X172835771Y-91500000D01*
X173407200Y-91071429D02*
X173454819Y-91166667D01*
X173454819Y-91166667D02*
X173454819Y-91404762D01*
X173454819Y-91404762D02*
X173407200Y-91500000D01*
X173407200Y-91500000D02*
X173311961Y-91547619D01*
X173311961Y-91547619D02*
X173216723Y-91547619D01*
X173216723Y-91547619D02*
X173121485Y-91500000D01*
X173121485Y-91500000D02*
X173073866Y-91404762D01*
X173073866Y-91404762D02*
X173073866Y-91166667D01*
X173073866Y-91166667D02*
X173026247Y-91071429D01*
X173454819Y-90595238D02*
X172788152Y-90595238D01*
X172978628Y-90595238D02*
X172883390Y-90547619D01*
X172883390Y-90547619D02*
X172835771Y-90500000D01*
X172835771Y-90500000D02*
X172788152Y-90404762D01*
X172788152Y-90404762D02*
X172788152Y-90309524D01*
X173454819Y-89547619D02*
X172454819Y-89547619D01*
X173407200Y-89547619D02*
X173454819Y-89642857D01*
X173454819Y-89642857D02*
X173454819Y-89833333D01*
X173454819Y-89833333D02*
X173407200Y-89928571D01*
X173407200Y-89928571D02*
X173359580Y-89976190D01*
X173359580Y-89976190D02*
X173264342Y-90023809D01*
X173264342Y-90023809D02*
X172978628Y-90023809D01*
X172978628Y-90023809D02*
X172883390Y-89976190D01*
X172883390Y-89976190D02*
X172835771Y-89928571D01*
X172835771Y-89928571D02*
X172788152Y-89833333D01*
X172788152Y-89833333D02*
X172788152Y-89642857D01*
X172788152Y-89642857D02*
X172835771Y-89547619D01*
X172788152Y-88642857D02*
X173454819Y-88642857D01*
X172788152Y-89071428D02*
X173311961Y-89071428D01*
X173311961Y-89071428D02*
X173407200Y-89023809D01*
X173407200Y-89023809D02*
X173454819Y-88928571D01*
X173454819Y-88928571D02*
X173454819Y-88785714D01*
X173454819Y-88785714D02*
X173407200Y-88690476D01*
X173407200Y-88690476D02*
X173359580Y-88642857D01*
X173454819Y-88166666D02*
X172788152Y-88166666D01*
X172454819Y-88166666D02*
X172502438Y-88214285D01*
X172502438Y-88214285D02*
X172550057Y-88166666D01*
X172550057Y-88166666D02*
X172502438Y-88119047D01*
X172502438Y-88119047D02*
X172454819Y-88166666D01*
X172454819Y-88166666D02*
X172550057Y-88166666D01*
X172788152Y-87690476D02*
X173454819Y-87690476D01*
X172883390Y-87690476D02*
X172835771Y-87642857D01*
X172835771Y-87642857D02*
X172788152Y-87547619D01*
X172788152Y-87547619D02*
X172788152Y-87404762D01*
X172788152Y-87404762D02*
X172835771Y-87309524D01*
X172835771Y-87309524D02*
X172931009Y-87261905D01*
X172931009Y-87261905D02*
X173454819Y-87261905D01*
X173454819Y-86642857D02*
X173407200Y-86738095D01*
X173407200Y-86738095D02*
X173359580Y-86785714D01*
X173359580Y-86785714D02*
X173264342Y-86833333D01*
X173264342Y-86833333D02*
X172978628Y-86833333D01*
X172978628Y-86833333D02*
X172883390Y-86785714D01*
X172883390Y-86785714D02*
X172835771Y-86738095D01*
X172835771Y-86738095D02*
X172788152Y-86642857D01*
X172788152Y-86642857D02*
X172788152Y-86500000D01*
X172788152Y-86500000D02*
X172835771Y-86404762D01*
X172835771Y-86404762D02*
X172883390Y-86357143D01*
X172883390Y-86357143D02*
X172978628Y-86309524D01*
X172978628Y-86309524D02*
X173264342Y-86309524D01*
X173264342Y-86309524D02*
X173359580Y-86357143D01*
X173359580Y-86357143D02*
X173407200Y-86404762D01*
X173407200Y-86404762D02*
X173454819Y-86500000D01*
X173454819Y-86500000D02*
X173454819Y-86642857D01*
X173550057Y-86119048D02*
X173550057Y-85357143D01*
X172788152Y-85119047D02*
X173454819Y-85119047D01*
X172883390Y-85119047D02*
X172835771Y-85071428D01*
X172835771Y-85071428D02*
X172788152Y-84976190D01*
X172788152Y-84976190D02*
X172788152Y-84833333D01*
X172788152Y-84833333D02*
X172835771Y-84738095D01*
X172835771Y-84738095D02*
X172931009Y-84690476D01*
X172931009Y-84690476D02*
X173454819Y-84690476D01*
X173454819Y-83785714D02*
X172931009Y-83785714D01*
X172931009Y-83785714D02*
X172835771Y-83833333D01*
X172835771Y-83833333D02*
X172788152Y-83928571D01*
X172788152Y-83928571D02*
X172788152Y-84119047D01*
X172788152Y-84119047D02*
X172835771Y-84214285D01*
X173407200Y-83785714D02*
X173454819Y-83880952D01*
X173454819Y-83880952D02*
X173454819Y-84119047D01*
X173454819Y-84119047D02*
X173407200Y-84214285D01*
X173407200Y-84214285D02*
X173311961Y-84261904D01*
X173311961Y-84261904D02*
X173216723Y-84261904D01*
X173216723Y-84261904D02*
X173121485Y-84214285D01*
X173121485Y-84214285D02*
X173073866Y-84119047D01*
X173073866Y-84119047D02*
X173073866Y-83880952D01*
X173073866Y-83880952D02*
X173026247Y-83785714D01*
X172788152Y-83309523D02*
X173454819Y-83309523D01*
X172883390Y-83309523D02*
X172835771Y-83261904D01*
X172835771Y-83261904D02*
X172788152Y-83166666D01*
X172788152Y-83166666D02*
X172788152Y-83023809D01*
X172788152Y-83023809D02*
X172835771Y-82928571D01*
X172835771Y-82928571D02*
X172931009Y-82880952D01*
X172931009Y-82880952D02*
X173454819Y-82880952D01*
X173454819Y-82261904D02*
X173407200Y-82357142D01*
X173407200Y-82357142D02*
X173359580Y-82404761D01*
X173359580Y-82404761D02*
X173264342Y-82452380D01*
X173264342Y-82452380D02*
X172978628Y-82452380D01*
X172978628Y-82452380D02*
X172883390Y-82404761D01*
X172883390Y-82404761D02*
X172835771Y-82357142D01*
X172835771Y-82357142D02*
X172788152Y-82261904D01*
X172788152Y-82261904D02*
X172788152Y-82119047D01*
X172788152Y-82119047D02*
X172835771Y-82023809D01*
X172835771Y-82023809D02*
X172883390Y-81976190D01*
X172883390Y-81976190D02*
X172978628Y-81928571D01*
X172978628Y-81928571D02*
X173264342Y-81928571D01*
X173264342Y-81928571D02*
X173359580Y-81976190D01*
X173359580Y-81976190D02*
X173407200Y-82023809D01*
X173407200Y-82023809D02*
X173454819Y-82119047D01*
X173454819Y-82119047D02*
X173454819Y-82261904D01*
X173550057Y-81738095D02*
X173550057Y-80976190D01*
X172788152Y-80833332D02*
X173454819Y-80595237D01*
X173454819Y-80595237D02*
X172788152Y-80357142D01*
X172454819Y-80071427D02*
X172454819Y-79452380D01*
X172454819Y-79452380D02*
X172835771Y-79785713D01*
X172835771Y-79785713D02*
X172835771Y-79642856D01*
X172835771Y-79642856D02*
X172883390Y-79547618D01*
X172883390Y-79547618D02*
X172931009Y-79499999D01*
X172931009Y-79499999D02*
X173026247Y-79452380D01*
X173026247Y-79452380D02*
X173264342Y-79452380D01*
X173264342Y-79452380D02*
X173359580Y-79499999D01*
X173359580Y-79499999D02*
X173407200Y-79547618D01*
X173407200Y-79547618D02*
X173454819Y-79642856D01*
X173454819Y-79642856D02*
X173454819Y-79928570D01*
X173454819Y-79928570D02*
X173407200Y-80023808D01*
X173407200Y-80023808D02*
X173359580Y-80071427D01*
X163251904Y-53535180D02*
X163251904Y-52725657D01*
X163251904Y-52725657D02*
X163204285Y-52630419D01*
X163204285Y-52630419D02*
X163156666Y-52582800D01*
X163156666Y-52582800D02*
X163061428Y-52535180D01*
X163061428Y-52535180D02*
X162870952Y-52535180D01*
X162870952Y-52535180D02*
X162775714Y-52582800D01*
X162775714Y-52582800D02*
X162728095Y-52630419D01*
X162728095Y-52630419D02*
X162680476Y-52725657D01*
X162680476Y-52725657D02*
X162680476Y-53535180D01*
X162251904Y-52582800D02*
X162109047Y-52535180D01*
X162109047Y-52535180D02*
X161870952Y-52535180D01*
X161870952Y-52535180D02*
X161775714Y-52582800D01*
X161775714Y-52582800D02*
X161728095Y-52630419D01*
X161728095Y-52630419D02*
X161680476Y-52725657D01*
X161680476Y-52725657D02*
X161680476Y-52820895D01*
X161680476Y-52820895D02*
X161728095Y-52916133D01*
X161728095Y-52916133D02*
X161775714Y-52963752D01*
X161775714Y-52963752D02*
X161870952Y-53011371D01*
X161870952Y-53011371D02*
X162061428Y-53058990D01*
X162061428Y-53058990D02*
X162156666Y-53106609D01*
X162156666Y-53106609D02*
X162204285Y-53154228D01*
X162204285Y-53154228D02*
X162251904Y-53249466D01*
X162251904Y-53249466D02*
X162251904Y-53344704D01*
X162251904Y-53344704D02*
X162204285Y-53439942D01*
X162204285Y-53439942D02*
X162156666Y-53487561D01*
X162156666Y-53487561D02*
X162061428Y-53535180D01*
X162061428Y-53535180D02*
X161823333Y-53535180D01*
X161823333Y-53535180D02*
X161680476Y-53487561D01*
X160918571Y-53058990D02*
X160775714Y-53011371D01*
X160775714Y-53011371D02*
X160728095Y-52963752D01*
X160728095Y-52963752D02*
X160680476Y-52868514D01*
X160680476Y-52868514D02*
X160680476Y-52725657D01*
X160680476Y-52725657D02*
X160728095Y-52630419D01*
X160728095Y-52630419D02*
X160775714Y-52582800D01*
X160775714Y-52582800D02*
X160870952Y-52535180D01*
X160870952Y-52535180D02*
X161251904Y-52535180D01*
X161251904Y-52535180D02*
X161251904Y-53535180D01*
X161251904Y-53535180D02*
X160918571Y-53535180D01*
X160918571Y-53535180D02*
X160823333Y-53487561D01*
X160823333Y-53487561D02*
X160775714Y-53439942D01*
X160775714Y-53439942D02*
X160728095Y-53344704D01*
X160728095Y-53344704D02*
X160728095Y-53249466D01*
X160728095Y-53249466D02*
X160775714Y-53154228D01*
X160775714Y-53154228D02*
X160823333Y-53106609D01*
X160823333Y-53106609D02*
X160918571Y-53058990D01*
X160918571Y-53058990D02*
X161251904Y-53058990D01*
X134594819Y-99860333D02*
X135309104Y-99860333D01*
X135309104Y-99860333D02*
X135451961Y-99907952D01*
X135451961Y-99907952D02*
X135547200Y-100003190D01*
X135547200Y-100003190D02*
X135594819Y-100146047D01*
X135594819Y-100146047D02*
X135594819Y-100241285D01*
X135594819Y-98860333D02*
X135594819Y-99431761D01*
X135594819Y-99146047D02*
X134594819Y-99146047D01*
X134594819Y-99146047D02*
X134737676Y-99241285D01*
X134737676Y-99241285D02*
X134832914Y-99336523D01*
X134832914Y-99336523D02*
X134880533Y-99431761D01*
X136584819Y-84943666D02*
X136108628Y-85276999D01*
X136584819Y-85515094D02*
X135584819Y-85515094D01*
X135584819Y-85515094D02*
X135584819Y-85134142D01*
X135584819Y-85134142D02*
X135632438Y-85038904D01*
X135632438Y-85038904D02*
X135680057Y-84991285D01*
X135680057Y-84991285D02*
X135775295Y-84943666D01*
X135775295Y-84943666D02*
X135918152Y-84943666D01*
X135918152Y-84943666D02*
X136013390Y-84991285D01*
X136013390Y-84991285D02*
X136061009Y-85038904D01*
X136061009Y-85038904D02*
X136108628Y-85134142D01*
X136108628Y-85134142D02*
X136108628Y-85515094D01*
X136584819Y-83991285D02*
X136584819Y-84562713D01*
X136584819Y-84276999D02*
X135584819Y-84276999D01*
X135584819Y-84276999D02*
X135727676Y-84372237D01*
X135727676Y-84372237D02*
X135822914Y-84467475D01*
X135822914Y-84467475D02*
X135870533Y-84562713D01*
D14*
%TO.C,R2*%
X145120000Y-81507000D02*
X145450000Y-81507000D01*
X145120000Y-88047000D02*
X145120000Y-81507000D01*
X145450000Y-88047000D02*
X145120000Y-88047000D01*
X147530000Y-88047000D02*
X147860000Y-88047000D01*
X147860000Y-81507000D02*
X147530000Y-81507000D01*
X147860000Y-88047000D02*
X147860000Y-81507000D01*
D10*
%TO.C,U1*%
X121655000Y-50942000D02*
X148325000Y-50942000D01*
X121655000Y-77612000D02*
X121655000Y-50942000D01*
X148325000Y-50942000D02*
X148325000Y-77612000D01*
X148325000Y-77612000D02*
X121655000Y-77612000D01*
D14*
%TO.C,J2*%
X143740000Y-104877000D02*
X143740000Y-106127000D01*
X143740000Y-106127000D02*
X144990000Y-106127000D01*
X146290000Y-93227000D02*
X146290000Y-93977000D01*
X146290000Y-93977000D02*
X149240000Y-93977000D01*
X146290000Y-105077000D02*
X149240000Y-105077000D01*
X146290000Y-105827000D02*
X146290000Y-105077000D01*
X149240000Y-93977000D02*
X149240000Y-99527000D01*
X149240000Y-105077000D02*
X149240000Y-99527000D01*
X144030000Y-105837000D02*
X150000000Y-105837000D01*
X150000000Y-93217000D01*
X144030000Y-93217000D01*
X144030000Y-105837000D01*
X144040000Y-95027000D02*
X144790000Y-95027000D01*
X144790000Y-93227000D01*
X144040000Y-93227000D01*
X144040000Y-95027000D01*
X144040000Y-102527000D02*
X144790000Y-102527000D01*
X144790000Y-96527000D01*
X144040000Y-96527000D01*
X144040000Y-102527000D01*
X144040000Y-105827000D02*
X144790000Y-105827000D01*
X144790000Y-104027000D01*
X144040000Y-104027000D01*
X144040000Y-105827000D01*
D15*
%TO.C,U2*%
X115735000Y-131748000D02*
X115735000Y-112698000D01*
X118910000Y-109523000D02*
X174790000Y-109523000D01*
X174790000Y-134923000D02*
X118910000Y-134923000D01*
X177965000Y-112698000D02*
X177965000Y-131748000D01*
X115735000Y-112698000D02*
G75*
G02*
X118910000Y-109523000I3175000J0D01*
G01*
X118910000Y-134923000D02*
G75*
G02*
X115735000Y-131748000I0J3175000D01*
G01*
X174790000Y-109523000D02*
G75*
G02*
X177965000Y-112698000I0J-3175000D01*
G01*
X177965000Y-131748000D02*
G75*
G02*
X174790000Y-134923000I-3175000J0D01*
G01*
D14*
%TO.C,A1*%
X152970000Y-49050000D02*
X152970000Y-92490000D01*
X152970000Y-49050000D02*
X158050000Y-49050000D01*
X152970000Y-92490000D02*
X171010000Y-92490000D01*
X155640000Y-51720000D02*
X152970000Y-51720000D01*
X155640000Y-89820000D02*
X152970000Y-89820000D01*
X155640000Y-89820000D02*
X155640000Y-51720000D01*
X158050000Y-46510000D02*
X165930000Y-46510000D01*
X158050000Y-56930000D02*
X158050000Y-46510000D01*
X165930000Y-46510000D02*
X165930000Y-56930000D01*
X165930000Y-56930000D02*
X158050000Y-56930000D01*
X168340000Y-51720000D02*
X171010000Y-51720000D01*
X168340000Y-87280000D02*
X168340000Y-51720000D01*
X168340000Y-87280000D02*
X168340000Y-89820000D01*
X168340000Y-87280000D02*
X171010000Y-87280000D01*
X168340000Y-89820000D02*
X171010000Y-89820000D01*
X171010000Y-49050000D02*
X165930000Y-49050000D01*
X171010000Y-87280000D02*
X171010000Y-49050000D01*
X171010000Y-92490000D02*
X171010000Y-89820000D01*
D16*
%TO.C,G\u002A\u002A\u002A*%
G36*
X122377982Y-99982217D02*
G01*
X122440764Y-100010996D01*
X122501998Y-100061419D01*
X122564405Y-100135504D01*
X122600955Y-100188195D01*
X122637771Y-100249488D01*
X122660726Y-100303197D01*
X122674802Y-100361569D01*
X122677041Y-100375210D01*
X122683979Y-100427575D01*
X122684516Y-100461753D01*
X122678091Y-100486285D01*
X122668662Y-100503039D01*
X122652180Y-100534210D01*
X122645879Y-100557133D01*
X122636209Y-100581526D01*
X122625308Y-100593529D01*
X122607219Y-100618641D01*
X122593802Y-100652797D01*
X122587786Y-100671508D01*
X122577941Y-100687421D01*
X122560102Y-100703767D01*
X122530106Y-100723775D01*
X122483787Y-100750676D01*
X122427032Y-100782169D01*
X122351120Y-100813639D01*
X122259337Y-100835860D01*
X122162108Y-100847133D01*
X122069855Y-100845756D01*
X122050888Y-100843535D01*
X122013996Y-100831288D01*
X121972689Y-100807854D01*
X121961981Y-100799959D01*
X121923884Y-100774125D01*
X121887615Y-100756128D01*
X121879094Y-100753420D01*
X121850393Y-100736957D01*
X121816651Y-100704189D01*
X121798741Y-100681594D01*
X121778160Y-100651664D01*
X121764939Y-100626107D01*
X121757393Y-100597570D01*
X121753836Y-100558701D01*
X121752584Y-100502149D01*
X121752397Y-100479451D01*
X121752760Y-100411978D01*
X121755905Y-100363399D01*
X121763181Y-100325293D01*
X121775937Y-100289235D01*
X121786721Y-100265212D01*
X121813054Y-100219110D01*
X121851443Y-100163822D01*
X121894660Y-100109567D01*
X121905694Y-100097003D01*
X121942521Y-100054886D01*
X121971075Y-100019982D01*
X121987215Y-99997468D01*
X121989337Y-99992543D01*
X122002341Y-99987224D01*
X122038661Y-99982413D01*
X122094259Y-99978353D01*
X122165096Y-99975291D01*
X122247133Y-99973470D01*
X122310932Y-99973065D01*
X122377982Y-99982217D01*
G37*
G36*
X125960188Y-99935801D02*
G01*
X125983305Y-99940712D01*
X126038235Y-99962286D01*
X126074439Y-99977067D01*
X126098790Y-99987914D01*
X126109641Y-99993249D01*
X126141300Y-100002462D01*
X126171568Y-100005331D01*
X126220760Y-100016030D01*
X126261190Y-100049633D01*
X126291714Y-100099758D01*
X126309792Y-100133206D01*
X126324536Y-100153172D01*
X126328674Y-100155632D01*
X126336191Y-100167577D01*
X126339139Y-100193403D01*
X126344756Y-100234482D01*
X126358316Y-100284497D01*
X126375402Y-100328313D01*
X126382060Y-100340441D01*
X126385702Y-100364096D01*
X126382313Y-100405348D01*
X126373477Y-100455831D01*
X126360774Y-100507178D01*
X126345786Y-100551020D01*
X126339790Y-100564032D01*
X126307121Y-100608436D01*
X126254993Y-100657197D01*
X126189649Y-100705296D01*
X126117329Y-100747715D01*
X126101621Y-100755537D01*
X126056370Y-100774207D01*
X126010066Y-100785124D01*
X125952291Y-100790288D01*
X125914916Y-100791353D01*
X125855618Y-100790543D01*
X125802034Y-100786707D01*
X125763753Y-100780611D01*
X125757619Y-100778796D01*
X125728739Y-100765028D01*
X125684560Y-100739792D01*
X125632214Y-100707282D01*
X125600322Y-100686342D01*
X125525830Y-100630637D01*
X125475022Y-100577932D01*
X125445140Y-100524215D01*
X125433426Y-100465471D01*
X125433107Y-100443026D01*
X125429828Y-100395614D01*
X125420234Y-100346692D01*
X125419704Y-100344833D01*
X125413665Y-100277275D01*
X125430653Y-100199136D01*
X125469972Y-100113453D01*
X125474574Y-100105490D01*
X125502904Y-100063617D01*
X125531892Y-100039036D01*
X125571530Y-100023325D01*
X125572308Y-100023099D01*
X125613936Y-100008139D01*
X125646681Y-99991378D01*
X125653648Y-99986159D01*
X125674191Y-99971770D01*
X125702856Y-99960682D01*
X125745117Y-99951542D01*
X125806449Y-99942997D01*
X125846526Y-99938464D01*
X125910407Y-99934124D01*
X125960188Y-99935801D01*
G37*
G36*
X125725740Y-101466400D02*
G01*
X125768516Y-101484656D01*
X125805774Y-101499026D01*
X125815792Y-101502374D01*
X125847270Y-101524940D01*
X125875258Y-101568852D01*
X125897390Y-101628122D01*
X125911298Y-101696765D01*
X125914916Y-101753122D01*
X125912956Y-101807674D01*
X125907828Y-101856085D01*
X125900962Y-101886777D01*
X125883286Y-101916183D01*
X125850355Y-101957480D01*
X125807764Y-102004850D01*
X125761109Y-102052476D01*
X125715988Y-102094541D01*
X125677995Y-102125230D01*
X125661873Y-102135301D01*
X125625839Y-102156745D01*
X125582971Y-102186398D01*
X125566127Y-102199189D01*
X125524687Y-102229195D01*
X125484064Y-102254648D01*
X125470381Y-102261885D01*
X125434863Y-102282773D01*
X125408830Y-102304150D01*
X125374292Y-102337102D01*
X125330630Y-102371916D01*
X125284830Y-102403799D01*
X125243880Y-102427959D01*
X125214766Y-102439604D01*
X125210765Y-102440010D01*
X125179372Y-102445593D01*
X125137201Y-102459657D01*
X125119667Y-102467066D01*
X125076879Y-102483552D01*
X125039110Y-102493312D01*
X125028149Y-102494422D01*
X125000385Y-102502994D01*
X124962347Y-102524781D01*
X124934142Y-102545620D01*
X124886182Y-102581190D01*
X124838049Y-102607253D01*
X124782424Y-102626527D01*
X124711990Y-102641728D01*
X124648616Y-102651588D01*
X124589914Y-102661069D01*
X124538939Y-102671492D01*
X124503719Y-102681130D01*
X124495536Y-102684539D01*
X124470953Y-102690590D01*
X124424567Y-102695970D01*
X124361923Y-102700516D01*
X124288570Y-102704062D01*
X124210054Y-102706446D01*
X124131923Y-102707504D01*
X124059723Y-102707072D01*
X123999002Y-102704986D01*
X123955306Y-102701081D01*
X123952126Y-102700591D01*
X123845477Y-102682288D01*
X123758485Y-102665105D01*
X123683587Y-102647453D01*
X123632541Y-102633456D01*
X123533838Y-102606190D01*
X123457087Y-102588199D01*
X123398783Y-102578738D01*
X123366083Y-102576790D01*
X123332218Y-102570021D01*
X123281237Y-102551603D01*
X123219237Y-102524368D01*
X123152310Y-102491149D01*
X123086550Y-102454778D01*
X123035702Y-102423222D01*
X122993201Y-102398806D01*
X122951918Y-102380855D01*
X122939956Y-102377297D01*
X122897306Y-102361268D01*
X122852725Y-102335688D01*
X122817291Y-102307470D01*
X122805916Y-102293658D01*
X122787401Y-102277575D01*
X122779969Y-102275875D01*
X122759685Y-102266969D01*
X122726258Y-102243590D01*
X122685753Y-102210742D01*
X122644234Y-102173432D01*
X122607764Y-102136666D01*
X122598007Y-102125665D01*
X122565532Y-102090020D01*
X122523194Y-102046593D01*
X122488776Y-102013039D01*
X122420579Y-101948436D01*
X122420386Y-101819591D01*
X122421118Y-101756494D01*
X122424276Y-101714276D01*
X122430959Y-101686489D01*
X122442267Y-101666689D01*
X122447549Y-101660422D01*
X122507978Y-101612641D01*
X122579256Y-101589113D01*
X122636661Y-101588328D01*
X122670659Y-101593814D01*
X122697567Y-101604368D01*
X122724340Y-101624611D01*
X122757933Y-101659166D01*
X122779388Y-101683171D01*
X122819539Y-101731296D01*
X122855791Y-101779410D01*
X122881392Y-101818457D01*
X122884628Y-101824359D01*
X122904310Y-101852615D01*
X122937005Y-101890121D01*
X122977529Y-101931932D01*
X123020695Y-101973105D01*
X123061318Y-102008694D01*
X123094213Y-102033757D01*
X123114193Y-102043348D01*
X123114312Y-102043349D01*
X123139803Y-102050176D01*
X123179079Y-102067649D01*
X123223149Y-102091259D01*
X123263023Y-102116497D01*
X123269518Y-102121205D01*
X123308580Y-102142439D01*
X123348127Y-102152620D01*
X123352320Y-102152773D01*
X123387983Y-102158769D01*
X123434232Y-102174072D01*
X123460453Y-102185522D01*
X123505451Y-102205552D01*
X123545806Y-102220613D01*
X123562304Y-102225191D01*
X123593858Y-102232738D01*
X123640128Y-102245104D01*
X123678567Y-102255998D01*
X123711068Y-102263981D01*
X123749834Y-102270257D01*
X123798731Y-102275087D01*
X123861624Y-102278730D01*
X123942380Y-102281444D01*
X124044864Y-102283491D01*
X124099791Y-102284272D01*
X124205843Y-102285513D01*
X124288439Y-102286001D01*
X124351473Y-102285504D01*
X124398841Y-102283793D01*
X124434436Y-102280636D01*
X124462154Y-102275802D01*
X124485889Y-102269060D01*
X124509535Y-102260179D01*
X124510130Y-102259939D01*
X124562451Y-102241022D01*
X124615122Y-102225343D01*
X124637148Y-102220194D01*
X124723585Y-102193872D01*
X124824048Y-102146865D01*
X124936322Y-102080500D01*
X125058191Y-101996104D01*
X125187439Y-101895006D01*
X125206924Y-101878819D01*
X125258731Y-101832198D01*
X125306282Y-101783542D01*
X125345384Y-101737757D01*
X125371846Y-101699749D01*
X125381475Y-101674578D01*
X125388827Y-101651184D01*
X125407445Y-101614757D01*
X125432169Y-101574140D01*
X125457838Y-101538178D01*
X125468090Y-101526122D01*
X125526969Y-101480080D01*
X125595944Y-101454404D01*
X125667732Y-101450781D01*
X125725740Y-101466400D01*
G37*
G36*
X123870447Y-91712095D02*
G01*
X123902200Y-91722039D01*
X123906224Y-91725692D01*
X123929765Y-91741708D01*
X123940552Y-91743834D01*
X123962174Y-91754810D01*
X123967181Y-91763006D01*
X123984636Y-91778619D01*
X124016784Y-91790091D01*
X124018474Y-91790421D01*
X124055923Y-91803478D01*
X124082763Y-91822541D01*
X124152968Y-91912868D01*
X124202408Y-91995832D01*
X124232115Y-92069402D01*
X124253900Y-92134675D01*
X124278044Y-92200735D01*
X124302448Y-92262535D01*
X124325011Y-92315032D01*
X124343635Y-92353179D01*
X124356219Y-92371931D01*
X124358457Y-92373021D01*
X124371237Y-92384307D01*
X124383166Y-92407700D01*
X124401123Y-92444111D01*
X124431770Y-92495572D01*
X124470793Y-92555703D01*
X124513881Y-92618124D01*
X124556718Y-92676456D01*
X124594994Y-92724317D01*
X124604767Y-92735487D01*
X124638082Y-92775394D01*
X124664020Y-92811795D01*
X124676049Y-92834652D01*
X124687732Y-92858489D01*
X124697049Y-92865428D01*
X124709756Y-92875612D01*
X124734525Y-92902947D01*
X124767128Y-92942608D01*
X124786603Y-92967586D01*
X124826900Y-93017507D01*
X124867158Y-93062891D01*
X124900699Y-93096352D01*
X124910509Y-93104571D01*
X124942790Y-93135863D01*
X124978311Y-93180173D01*
X125001042Y-93214421D01*
X125025721Y-93253148D01*
X125045880Y-93280243D01*
X125056399Y-93289445D01*
X125066422Y-93300104D01*
X125066881Y-93304503D01*
X125074979Y-93321151D01*
X125096835Y-93354026D01*
X125128793Y-93398261D01*
X125167195Y-93448987D01*
X125208387Y-93501334D01*
X125248710Y-93550434D01*
X125271294Y-93576682D01*
X125341106Y-93657616D01*
X125394398Y-93723030D01*
X125430330Y-93771829D01*
X125448064Y-93802915D01*
X125449887Y-93810617D01*
X125457044Y-93828798D01*
X125476575Y-93864691D01*
X125505594Y-93913300D01*
X125541218Y-93969632D01*
X125545633Y-93976417D01*
X125581693Y-94032519D01*
X125611544Y-94080559D01*
X125632337Y-94115837D01*
X125641224Y-94133650D01*
X125641356Y-94134450D01*
X125650407Y-94149838D01*
X125673428Y-94176238D01*
X125689229Y-94192191D01*
X125717525Y-94223645D01*
X125734937Y-94250744D01*
X125737537Y-94259845D01*
X125745755Y-94287100D01*
X125758054Y-94307649D01*
X125774022Y-94342525D01*
X125778187Y-94369200D01*
X125785382Y-94405112D01*
X125802752Y-94444363D01*
X125803955Y-94446373D01*
X125825282Y-94490489D01*
X125839621Y-94535280D01*
X125851413Y-94573405D01*
X125866325Y-94601659D01*
X125867043Y-94602531D01*
X125882801Y-94633595D01*
X125900293Y-94691704D01*
X125919447Y-94776603D01*
X125928195Y-94821378D01*
X125940960Y-94875067D01*
X125958222Y-94931714D01*
X125962785Y-94944480D01*
X125983989Y-95015452D01*
X126003099Y-95106179D01*
X126019025Y-95209075D01*
X126030676Y-95316556D01*
X126036960Y-95421040D01*
X126037746Y-95465383D01*
X126038874Y-95522961D01*
X126041679Y-95569999D01*
X126045675Y-95599945D01*
X126048276Y-95606831D01*
X126054156Y-95625270D01*
X126058542Y-95661929D01*
X126060087Y-95694598D01*
X126061473Y-95733005D01*
X126064385Y-95792799D01*
X126068499Y-95868072D01*
X126073495Y-95952919D01*
X126078822Y-96037944D01*
X126085155Y-96148127D01*
X126088176Y-96231655D01*
X126087891Y-96289029D01*
X126084306Y-96320748D01*
X126082260Y-96325901D01*
X126070747Y-96352674D01*
X126055875Y-96398600D01*
X126039703Y-96456014D01*
X126024293Y-96517256D01*
X126011706Y-96574664D01*
X126004981Y-96613193D01*
X125992647Y-96675978D01*
X125975246Y-96734414D01*
X125955783Y-96779215D01*
X125946844Y-96792837D01*
X125933429Y-96818997D01*
X125922294Y-96855757D01*
X125922256Y-96855937D01*
X125909277Y-96889578D01*
X125884513Y-96934561D01*
X125854346Y-96979698D01*
X125824760Y-97020818D01*
X125801986Y-97054198D01*
X125790682Y-97072997D01*
X125790454Y-97073556D01*
X125777470Y-97089421D01*
X125749353Y-97115933D01*
X125712368Y-97147929D01*
X125672777Y-97180242D01*
X125636844Y-97207710D01*
X125610833Y-97225168D01*
X125602300Y-97228702D01*
X125586970Y-97237340D01*
X125557067Y-97260408D01*
X125517989Y-97293638D01*
X125500701Y-97309087D01*
X125446795Y-97353614D01*
X125386601Y-97396752D01*
X125332088Y-97429999D01*
X125326083Y-97433131D01*
X125271131Y-97464098D01*
X125210852Y-97502875D01*
X125152442Y-97544336D01*
X125103096Y-97583354D01*
X125070010Y-97614802D01*
X125068321Y-97616790D01*
X125044261Y-97635488D01*
X125001633Y-97659453D01*
X124947746Y-97685091D01*
X124889912Y-97708804D01*
X124858906Y-97719778D01*
X124819208Y-97737965D01*
X124787898Y-97760676D01*
X124786017Y-97762658D01*
X124762250Y-97782916D01*
X124746012Y-97789499D01*
X124723709Y-97799987D01*
X124695081Y-97825898D01*
X124667371Y-97858898D01*
X124647821Y-97890656D01*
X124642864Y-97908157D01*
X124632812Y-97940037D01*
X124620130Y-97955379D01*
X124597158Y-97980143D01*
X124573063Y-98014038D01*
X124572359Y-98015185D01*
X124549350Y-98043795D01*
X124520057Y-98054975D01*
X124495927Y-98056219D01*
X124462370Y-98058157D01*
X124448662Y-98067462D01*
X124447379Y-98089372D01*
X124447467Y-98090414D01*
X124449400Y-98123709D01*
X124451105Y-98171034D01*
X124451784Y-98199838D01*
X124457154Y-98252062D01*
X124469863Y-98315623D01*
X124486465Y-98374520D01*
X124502475Y-98424471D01*
X124514273Y-98465343D01*
X124519646Y-98489383D01*
X124519762Y-98491163D01*
X124527428Y-98516500D01*
X124552314Y-98533452D01*
X124597255Y-98542879D01*
X124665084Y-98545641D01*
X124697576Y-98545119D01*
X124849739Y-98540747D01*
X124978042Y-98536441D01*
X125085982Y-98532031D01*
X125177052Y-98527346D01*
X125254749Y-98522216D01*
X125322567Y-98516471D01*
X125356811Y-98512999D01*
X125418588Y-98507164D01*
X125471176Y-98503692D01*
X125508065Y-98502924D01*
X125521598Y-98504359D01*
X125543375Y-98505578D01*
X125583804Y-98502254D01*
X125634692Y-98495100D01*
X125642008Y-98493864D01*
X125711668Y-98485348D01*
X125789331Y-98481042D01*
X125846526Y-98481493D01*
X125897242Y-98483328D01*
X125965204Y-98484703D01*
X126046407Y-98485638D01*
X126136847Y-98486153D01*
X126232520Y-98486267D01*
X126329420Y-98486000D01*
X126423545Y-98485373D01*
X126510889Y-98484405D01*
X126587449Y-98483115D01*
X126649219Y-98481525D01*
X126692195Y-98479652D01*
X126712374Y-98477518D01*
X126713145Y-98477204D01*
X126732812Y-98473361D01*
X126771677Y-98471212D01*
X126821613Y-98471187D01*
X126825476Y-98471280D01*
X126890036Y-98469422D01*
X126957660Y-98462015D01*
X127004243Y-98452876D01*
X127097438Y-98438461D01*
X127159611Y-98439752D01*
X127247806Y-98447368D01*
X127345666Y-98453191D01*
X127448210Y-98457182D01*
X127550453Y-98459302D01*
X127647414Y-98459512D01*
X127734109Y-98457773D01*
X127805555Y-98454047D01*
X127856768Y-98448293D01*
X127870866Y-98445311D01*
X127907578Y-98439194D01*
X127961167Y-98434647D01*
X128021166Y-98432506D01*
X128032261Y-98432440D01*
X128099281Y-98429865D01*
X128152751Y-98422840D01*
X128182719Y-98413743D01*
X128212250Y-98405150D01*
X128262523Y-98397071D01*
X128326925Y-98390409D01*
X128378603Y-98386983D01*
X128447717Y-98382002D01*
X128512087Y-98374799D01*
X128563675Y-98366418D01*
X128590612Y-98359468D01*
X128683079Y-98332087D01*
X128762510Y-98321644D01*
X128825541Y-98328476D01*
X128841734Y-98334382D01*
X128900372Y-98366391D01*
X128931819Y-98397424D01*
X128937748Y-98417515D01*
X128949631Y-98445165D01*
X128985758Y-98466417D01*
X129046848Y-98481487D01*
X129133617Y-98490593D01*
X129188701Y-98493029D01*
X129251339Y-98497172D01*
X129311335Y-98505201D01*
X129362756Y-98515848D01*
X129399667Y-98527842D01*
X129416136Y-98539914D01*
X129416477Y-98541757D01*
X129427440Y-98553686D01*
X129449316Y-98566037D01*
X129474602Y-98586942D01*
X129489915Y-98625611D01*
X129492894Y-98640042D01*
X129498818Y-98680552D01*
X129500753Y-98711091D01*
X129500257Y-98717196D01*
X129504503Y-98744235D01*
X129508538Y-98751391D01*
X129514339Y-98771776D01*
X129519613Y-98812023D01*
X129523468Y-98864639D01*
X129524287Y-98883737D01*
X129525463Y-98943226D01*
X129523153Y-98982806D01*
X129516188Y-99009826D01*
X129503404Y-99031636D01*
X129500124Y-99035920D01*
X129482532Y-99072109D01*
X129467959Y-99127693D01*
X129457399Y-99194787D01*
X129451844Y-99265504D01*
X129452289Y-99331959D01*
X129457369Y-99375396D01*
X129462610Y-99448790D01*
X129455933Y-99491800D01*
X129449182Y-99561398D01*
X129454844Y-99606250D01*
X129460218Y-99655704D01*
X129460647Y-99716424D01*
X129457642Y-99759127D01*
X129453273Y-99823016D01*
X129452848Y-99891600D01*
X129454873Y-99930102D01*
X129458681Y-99977180D01*
X129460391Y-100016088D01*
X129459745Y-100054609D01*
X129456482Y-100100523D01*
X129450343Y-100161611D01*
X129445739Y-100203661D01*
X129439624Y-100273346D01*
X129434679Y-100356820D01*
X129431630Y-100440523D01*
X129431051Y-100477221D01*
X129429439Y-100544105D01*
X129425917Y-100605689D01*
X129421056Y-100653852D01*
X129417078Y-100675552D01*
X129409301Y-100714562D01*
X129400599Y-100774810D01*
X129391558Y-100850218D01*
X129382765Y-100934709D01*
X129374806Y-101022205D01*
X129368267Y-101106630D01*
X129363735Y-101181906D01*
X129361796Y-101241956D01*
X129361765Y-101248737D01*
X129359893Y-101305237D01*
X129354927Y-101354084D01*
X129347849Y-101386467D01*
X129345986Y-101390733D01*
X129339557Y-101416603D01*
X129334107Y-101466406D01*
X129329891Y-101536726D01*
X129327166Y-101624149D01*
X129326778Y-101646295D01*
X129324587Y-101730223D01*
X129320816Y-101811984D01*
X129315911Y-101884411D01*
X129310314Y-101940339D01*
X129307308Y-101960356D01*
X129300091Y-102014553D01*
X129297773Y-102065147D01*
X129299946Y-102094602D01*
X129302117Y-102135193D01*
X129297965Y-102186981D01*
X129293282Y-102214776D01*
X129283280Y-102272106D01*
X129275731Y-102331610D01*
X129273852Y-102354090D01*
X129270505Y-102400764D01*
X129265550Y-102461947D01*
X129260019Y-102524919D01*
X129259650Y-102528917D01*
X129255343Y-102588477D01*
X129256316Y-102630946D01*
X129263609Y-102666260D01*
X129277906Y-102703541D01*
X129296502Y-102760732D01*
X129298764Y-102806216D01*
X129298487Y-102807693D01*
X129299786Y-102845524D01*
X129313971Y-102907142D01*
X129340969Y-102992241D01*
X129341112Y-102992656D01*
X129363806Y-103060656D01*
X129378360Y-103112944D01*
X129386451Y-103159342D01*
X129389758Y-103209671D01*
X129389958Y-103273753D01*
X129389907Y-103278325D01*
X129390075Y-103350518D01*
X129391905Y-103424690D01*
X129395042Y-103488776D01*
X129396706Y-103510234D01*
X129398843Y-103565629D01*
X129392011Y-103612041D01*
X129373336Y-103655966D01*
X129339942Y-103703901D01*
X129288956Y-103762341D01*
X129281681Y-103770193D01*
X129221242Y-103835164D01*
X129110271Y-103834568D01*
X129007904Y-103830539D01*
X128930987Y-103819738D01*
X128879959Y-103802243D01*
X128863842Y-103790568D01*
X128825543Y-103769193D01*
X128768701Y-103759154D01*
X128699982Y-103761153D01*
X128655369Y-103768523D01*
X128614919Y-103774347D01*
X128552164Y-103778996D01*
X128466001Y-103782508D01*
X128355326Y-103784921D01*
X128219038Y-103786272D01*
X128130748Y-103786579D01*
X128022675Y-103787069D01*
X127923085Y-103788125D01*
X127835351Y-103789666D01*
X127762845Y-103791608D01*
X127708938Y-103793869D01*
X127677003Y-103796364D01*
X127669805Y-103797931D01*
X127661735Y-103802152D01*
X127649910Y-103805075D01*
X127630196Y-103806812D01*
X127598462Y-103807477D01*
X127550576Y-103807183D01*
X127482405Y-103806043D01*
X127419493Y-103804783D01*
X127347837Y-103803935D01*
X127262196Y-103803854D01*
X127175928Y-103804520D01*
X127132255Y-103805213D01*
X127073806Y-103806017D01*
X126993966Y-103806614D01*
X126898703Y-103806985D01*
X126793980Y-103807113D01*
X126685764Y-103806980D01*
X126614170Y-103806736D01*
X126507578Y-103806922D01*
X126402761Y-103808299D01*
X126305192Y-103810709D01*
X126220341Y-103813992D01*
X126153682Y-103817991D01*
X126121763Y-103821011D01*
X126064475Y-103826786D01*
X125987212Y-103832973D01*
X125897341Y-103839065D01*
X125802226Y-103844558D01*
X125723424Y-103848348D01*
X125635110Y-103852812D01*
X125551054Y-103858271D01*
X125477066Y-103864255D01*
X125418957Y-103870296D01*
X125383201Y-103875781D01*
X125333126Y-103882677D01*
X125267593Y-103886302D01*
X125198369Y-103886081D01*
X125184871Y-103885512D01*
X125115757Y-103882866D01*
X125032245Y-103880846D01*
X124947290Y-103879725D01*
X124902745Y-103879593D01*
X124831728Y-103879726D01*
X124763297Y-103879853D01*
X124706477Y-103879957D01*
X124677059Y-103880009D01*
X124642770Y-103879510D01*
X124586414Y-103878045D01*
X124513253Y-103875782D01*
X124428553Y-103872886D01*
X124337577Y-103869520D01*
X124314592Y-103868630D01*
X124207853Y-103864490D01*
X124124200Y-103861473D01*
X124059386Y-103859647D01*
X124009162Y-103859078D01*
X123969278Y-103859834D01*
X123935488Y-103861982D01*
X123903541Y-103865588D01*
X123869190Y-103870721D01*
X123835863Y-103876178D01*
X123777611Y-103883820D01*
X123703286Y-103890761D01*
X123624172Y-103896048D01*
X123575982Y-103898131D01*
X123415236Y-103903716D01*
X123277661Y-103909563D01*
X123159072Y-103915893D01*
X123055284Y-103922924D01*
X122974151Y-103929749D01*
X122895671Y-103936857D01*
X122804369Y-103944901D01*
X122714691Y-103952616D01*
X122673235Y-103956100D01*
X122601277Y-103963480D01*
X122530919Y-103973109D01*
X122471585Y-103983576D01*
X122440710Y-103990917D01*
X122393687Y-104000902D01*
X122329676Y-104009723D01*
X122259044Y-104016096D01*
X122221862Y-104018063D01*
X122160059Y-104021126D01*
X122107176Y-104025106D01*
X122070030Y-104029416D01*
X122057012Y-104032324D01*
X122034248Y-104035757D01*
X122027379Y-104032783D01*
X122008040Y-104026258D01*
X121964520Y-104019192D01*
X121899984Y-104011760D01*
X121817597Y-104004143D01*
X121720525Y-103996517D01*
X121611933Y-103989061D01*
X121494987Y-103981954D01*
X121372851Y-103975374D01*
X121248692Y-103969499D01*
X121125673Y-103964506D01*
X121006962Y-103960575D01*
X120895722Y-103957883D01*
X120795119Y-103956609D01*
X120708319Y-103956932D01*
X120687229Y-103957325D01*
X120627944Y-103956648D01*
X120572032Y-103952610D01*
X120531202Y-103946072D01*
X120529933Y-103945740D01*
X120492837Y-103938032D01*
X120438005Y-103929331D01*
X120374946Y-103921083D01*
X120347980Y-103918068D01*
X120270413Y-103909572D01*
X120183665Y-103899587D01*
X120104431Y-103890043D01*
X120092223Y-103888517D01*
X120025972Y-103881284D01*
X119975513Y-103879461D01*
X119929741Y-103883449D01*
X119877555Y-103893644D01*
X119864366Y-103896699D01*
X119816304Y-103907402D01*
X119778781Y-103912976D01*
X119742926Y-103913387D01*
X119699866Y-103908599D01*
X119640731Y-103898576D01*
X119625160Y-103895752D01*
X119536168Y-103875651D01*
X119465494Y-103848873D01*
X119405179Y-103810637D01*
X119347266Y-103756162D01*
X119299034Y-103699807D01*
X119265558Y-103660657D01*
X119237008Y-103631490D01*
X119218743Y-103617697D01*
X119216965Y-103617263D01*
X119203900Y-103603665D01*
X119194194Y-103567994D01*
X119188432Y-103515391D01*
X119187198Y-103450998D01*
X119190601Y-103385343D01*
X119195364Y-103328510D01*
X119201401Y-103254722D01*
X119207876Y-103174299D01*
X119212954Y-103110231D01*
X119219101Y-103037099D01*
X119225699Y-102966949D01*
X119231926Y-102908087D01*
X119236647Y-102870867D01*
X119239253Y-102839262D01*
X119241402Y-102785780D01*
X119243067Y-102715894D01*
X119244221Y-102635080D01*
X119244837Y-102548813D01*
X119244888Y-102462567D01*
X119244347Y-102381817D01*
X119243186Y-102312037D01*
X119241380Y-102258703D01*
X119239789Y-102234841D01*
X119238705Y-102203276D01*
X119239016Y-102151151D01*
X119240502Y-102083738D01*
X119242940Y-102006309D01*
X119246108Y-101924137D01*
X119249785Y-101842495D01*
X119253749Y-101766654D01*
X119257778Y-101701888D01*
X119261651Y-101653469D01*
X119265144Y-101626669D01*
X119265422Y-101625537D01*
X119269955Y-101584948D01*
X119267157Y-101538890D01*
X119683705Y-101538890D01*
X119684780Y-101628289D01*
X119692868Y-101713162D01*
X119697025Y-101761527D01*
X119700613Y-101833889D01*
X119703602Y-101926893D01*
X119705966Y-102037186D01*
X119707678Y-102161414D01*
X119708709Y-102296223D01*
X119709033Y-102438259D01*
X119708622Y-102584169D01*
X119707448Y-102730597D01*
X119705485Y-102874191D01*
X119703275Y-102987129D01*
X119701672Y-103068394D01*
X119701445Y-103127342D01*
X119703089Y-103169001D01*
X119707102Y-103198396D01*
X119713983Y-103220552D01*
X119724228Y-103240497D01*
X119729158Y-103248625D01*
X119748469Y-103284799D01*
X119759107Y-103314469D01*
X119759827Y-103320435D01*
X119766653Y-103335176D01*
X119791004Y-103341798D01*
X119817958Y-103342808D01*
X119874004Y-103350969D01*
X119920966Y-103370220D01*
X119950381Y-103385064D01*
X119981620Y-103391778D01*
X120024360Y-103391669D01*
X120059254Y-103388899D01*
X120118806Y-103385698D01*
X120153115Y-103389636D01*
X120162223Y-103395682D01*
X120181109Y-103403526D01*
X120225088Y-103408719D01*
X120292007Y-103411041D01*
X120312917Y-103411147D01*
X120384496Y-103412363D01*
X120432454Y-103416302D01*
X120460433Y-103423400D01*
X120469637Y-103429923D01*
X120490795Y-103441233D01*
X120530052Y-103451673D01*
X120570477Y-103457922D01*
X120623067Y-103464217D01*
X120691139Y-103473199D01*
X120763148Y-103483323D01*
X120792514Y-103487652D01*
X120865045Y-103496580D01*
X120961250Y-103505394D01*
X121077449Y-103513885D01*
X121209960Y-103521845D01*
X121355103Y-103529066D01*
X121509195Y-103535339D01*
X121668557Y-103540457D01*
X121770489Y-103543004D01*
X121869826Y-103545609D01*
X121975343Y-103549069D01*
X122078027Y-103553042D01*
X122168863Y-103557189D01*
X122221862Y-103560089D01*
X122318805Y-103565854D01*
X122392468Y-103569856D01*
X122446871Y-103572125D01*
X122486031Y-103572689D01*
X122513968Y-103571580D01*
X122534697Y-103568825D01*
X122552240Y-103564454D01*
X122558351Y-103562554D01*
X122589003Y-103556354D01*
X122638786Y-103550146D01*
X122699493Y-103544856D01*
X122735574Y-103542618D01*
X122795886Y-103538935D01*
X122847051Y-103534846D01*
X122882149Y-103530956D01*
X122892871Y-103528888D01*
X122913165Y-103526003D01*
X122955235Y-103522589D01*
X123013518Y-103519016D01*
X123082448Y-103515657D01*
X123105197Y-103514714D01*
X123182548Y-103510819D01*
X123257040Y-103505612D01*
X123320946Y-103499726D01*
X123366542Y-103493796D01*
X123371917Y-103492829D01*
X123424757Y-103486785D01*
X123490139Y-103484965D01*
X123549981Y-103487491D01*
X123620673Y-103490585D01*
X123668382Y-103486001D01*
X123682860Y-103480899D01*
X123706852Y-103474911D01*
X123752968Y-103469234D01*
X123815977Y-103464331D01*
X123890646Y-103460670D01*
X123920870Y-103459704D01*
X124016770Y-103456163D01*
X124124831Y-103450697D01*
X124232036Y-103444042D01*
X124325367Y-103436934D01*
X124328270Y-103436682D01*
X124404868Y-103430645D01*
X124477078Y-103426124D01*
X124537938Y-103423475D01*
X124580483Y-103423056D01*
X124588152Y-103423385D01*
X124622378Y-103424785D01*
X124675961Y-103425986D01*
X124743792Y-103426968D01*
X124820765Y-103427712D01*
X124901770Y-103428195D01*
X124981700Y-103428398D01*
X125055447Y-103428301D01*
X125117904Y-103427882D01*
X125163962Y-103427121D01*
X125188514Y-103425998D01*
X125189983Y-103425804D01*
X125212437Y-103425599D01*
X125254297Y-103428043D01*
X125307794Y-103432639D01*
X125326763Y-103434552D01*
X125400619Y-103439066D01*
X125490522Y-103439601D01*
X125585456Y-103436164D01*
X125614000Y-103434308D01*
X125689039Y-103429005D01*
X125750721Y-103425188D01*
X125805667Y-103422717D01*
X125860501Y-103421446D01*
X125921846Y-103421234D01*
X125996325Y-103421938D01*
X126090561Y-103423415D01*
X126106407Y-103423687D01*
X126187126Y-103423844D01*
X126267266Y-103421842D01*
X126338424Y-103418025D01*
X126392199Y-103412740D01*
X126399546Y-103411633D01*
X126431606Y-103407006D01*
X126469075Y-103402905D01*
X126514239Y-103399248D01*
X126569387Y-103395952D01*
X126636805Y-103392934D01*
X126718781Y-103390111D01*
X126817603Y-103387401D01*
X126935558Y-103384720D01*
X127074933Y-103381986D01*
X127238016Y-103379115D01*
X127347111Y-103377311D01*
X127459595Y-103375321D01*
X127565013Y-103373147D01*
X127659819Y-103370885D01*
X127740470Y-103368632D01*
X127803419Y-103366484D01*
X127845122Y-103364539D01*
X127860035Y-103363313D01*
X127885845Y-103361274D01*
X127934731Y-103358910D01*
X128002416Y-103356368D01*
X128084624Y-103353798D01*
X128177079Y-103351348D01*
X128253849Y-103349610D01*
X128376567Y-103346536D01*
X128474829Y-103342876D01*
X128551536Y-103338435D01*
X128609586Y-103333014D01*
X128651878Y-103326419D01*
X128672915Y-103321223D01*
X128736026Y-103299019D01*
X128772666Y-103277981D01*
X128783661Y-103257511D01*
X128778147Y-103245072D01*
X128771928Y-103223458D01*
X128768096Y-103182172D01*
X128766553Y-103128783D01*
X128767201Y-103070860D01*
X128769943Y-103015975D01*
X128774680Y-102971696D01*
X128781313Y-102945593D01*
X128782048Y-102944319D01*
X128788189Y-102923073D01*
X128794641Y-102881629D01*
X128800406Y-102827112D01*
X128802824Y-102795638D01*
X128808434Y-102727276D01*
X128815782Y-102658674D01*
X128823554Y-102601640D01*
X128826018Y-102587208D01*
X128831132Y-102546334D01*
X128835764Y-102484864D01*
X128839544Y-102409560D01*
X128842101Y-102327182D01*
X128842872Y-102279454D01*
X128846670Y-102140713D01*
X128855081Y-102026269D01*
X128868309Y-101933422D01*
X128869534Y-101927086D01*
X128883403Y-101833276D01*
X128892252Y-101721068D01*
X128895291Y-101617630D01*
X128897518Y-101535288D01*
X128902500Y-101449881D01*
X128909493Y-101371639D01*
X128917517Y-101312133D01*
X128928583Y-101240491D01*
X128938403Y-101162615D01*
X128945019Y-101094201D01*
X128945452Y-101088148D01*
X128951184Y-101017343D01*
X128958864Y-100939002D01*
X128965543Y-100880721D01*
X128982484Y-100746128D01*
X128996363Y-100634471D01*
X129007526Y-100541542D01*
X129016321Y-100463135D01*
X129023096Y-100395042D01*
X129028198Y-100333057D01*
X129031975Y-100272972D01*
X129034776Y-100210580D01*
X129036947Y-100141676D01*
X129038836Y-100062050D01*
X129040717Y-99971136D01*
X129042124Y-99906017D01*
X129044107Y-99819977D01*
X129046510Y-99719439D01*
X129049178Y-99610829D01*
X129051956Y-99500571D01*
X129053576Y-99437695D01*
X129062817Y-99082067D01*
X129013845Y-99034819D01*
X128983692Y-99007123D01*
X128961946Y-98995512D01*
X128937426Y-98996974D01*
X128906857Y-99005991D01*
X128864609Y-99014528D01*
X128804835Y-99020100D01*
X128732732Y-99022896D01*
X128653498Y-99023103D01*
X128572330Y-99020907D01*
X128494425Y-99016498D01*
X128424980Y-99010062D01*
X128369193Y-99001787D01*
X128332259Y-98991860D01*
X128321017Y-98984850D01*
X128303732Y-98975096D01*
X128268866Y-98969035D01*
X128212620Y-98966182D01*
X128171677Y-98965805D01*
X128095813Y-98963552D01*
X128034718Y-98957224D01*
X127994534Y-98947464D01*
X127993807Y-98947163D01*
X127947866Y-98935998D01*
X127896109Y-98934580D01*
X127892386Y-98934956D01*
X127836290Y-98933790D01*
X127776151Y-98921233D01*
X127770537Y-98919402D01*
X127725445Y-98908354D01*
X127670947Y-98901030D01*
X127615050Y-98897746D01*
X127565763Y-98898818D01*
X127531095Y-98904560D01*
X127521394Y-98909598D01*
X127502517Y-98915121D01*
X127462241Y-98919964D01*
X127406519Y-98923958D01*
X127341301Y-98926937D01*
X127272541Y-98928731D01*
X127206191Y-98929173D01*
X127148202Y-98928094D01*
X127104526Y-98925327D01*
X127084382Y-98921937D01*
X127042926Y-98913904D01*
X126979631Y-98907147D01*
X126899707Y-98901739D01*
X126808363Y-98897752D01*
X126710808Y-98895260D01*
X126612252Y-98894334D01*
X126517904Y-98895049D01*
X126432974Y-98897475D01*
X126362670Y-98901687D01*
X126312203Y-98907757D01*
X126297899Y-98910956D01*
X126265614Y-98917144D01*
X126216828Y-98921588D01*
X126149050Y-98924373D01*
X126059793Y-98925588D01*
X125946566Y-98925321D01*
X125901238Y-98924898D01*
X125803895Y-98923860D01*
X125711848Y-98922901D01*
X125629871Y-98922069D01*
X125562741Y-98921410D01*
X125515231Y-98920974D01*
X125497737Y-98920836D01*
X125453472Y-98922366D01*
X125392327Y-98926842D01*
X125324522Y-98933451D01*
X125292568Y-98937148D01*
X125233885Y-98943884D01*
X125174905Y-98949564D01*
X125112027Y-98954354D01*
X125041648Y-98958419D01*
X124960169Y-98961928D01*
X124863987Y-98965045D01*
X124749501Y-98967939D01*
X124613109Y-98970776D01*
X124533440Y-98972263D01*
X124420001Y-98974457D01*
X124300539Y-98977005D01*
X124182409Y-98979734D01*
X124072962Y-98982469D01*
X123979553Y-98985039D01*
X123938448Y-98986294D01*
X123838951Y-98989384D01*
X123727726Y-98992678D01*
X123616687Y-98995833D01*
X123517749Y-98998504D01*
X123493914Y-98999116D01*
X123397812Y-99001914D01*
X123289848Y-99005640D01*
X123182788Y-99009824D01*
X123089399Y-99013993D01*
X123083575Y-99014279D01*
X122996674Y-99018108D01*
X122893442Y-99021936D01*
X122784904Y-99025394D01*
X122682080Y-99028112D01*
X122648611Y-99028839D01*
X122569839Y-99031010D01*
X122499865Y-99034040D01*
X122443587Y-99037629D01*
X122405903Y-99041478D01*
X122392511Y-99044499D01*
X122369525Y-99048994D01*
X122328519Y-99050072D01*
X122281726Y-99047731D01*
X122219828Y-99045516D01*
X122147177Y-99047207D01*
X122083096Y-99052098D01*
X121985195Y-99057084D01*
X121864844Y-99052888D01*
X121801328Y-99047746D01*
X121717048Y-99040456D01*
X121625473Y-99033545D01*
X121539084Y-99027907D01*
X121484314Y-99025013D01*
X121418782Y-99022690D01*
X121375413Y-99023043D01*
X121349099Y-99026587D01*
X121334730Y-99033840D01*
X121329440Y-99040673D01*
X121316670Y-99053162D01*
X121292412Y-99057875D01*
X121249625Y-99055933D01*
X121239471Y-99054969D01*
X121151074Y-99046625D01*
X121066864Y-99039742D01*
X120977005Y-99033598D01*
X120871659Y-99027470D01*
X120847226Y-99026148D01*
X120782093Y-99021772D01*
X120726563Y-99016380D01*
X120686573Y-99010661D01*
X120668154Y-99005378D01*
X120649778Y-98999309D01*
X120644959Y-99001656D01*
X120628546Y-99002930D01*
X120592765Y-98998714D01*
X120544850Y-98989908D01*
X120536793Y-98988188D01*
X120477289Y-98977263D01*
X120418715Y-98969797D01*
X120375336Y-98967440D01*
X120340437Y-98968064D01*
X120284524Y-98969144D01*
X120213929Y-98970553D01*
X120134986Y-98972167D01*
X120089616Y-98973111D01*
X119865447Y-98977802D01*
X119822340Y-99019584D01*
X119792674Y-99053615D01*
X119769280Y-99093786D01*
X119751859Y-99142886D01*
X119740109Y-99203706D01*
X119733730Y-99279034D01*
X119732422Y-99371660D01*
X119735885Y-99484373D01*
X119743817Y-99619962D01*
X119749360Y-99697129D01*
X119757231Y-99814184D01*
X119761299Y-99905206D01*
X119761558Y-99969865D01*
X119757997Y-100007827D01*
X119756974Y-100011722D01*
X119752563Y-100038302D01*
X119748115Y-100087093D01*
X119743956Y-100152953D01*
X119740413Y-100230741D01*
X119737864Y-100313085D01*
X119732060Y-100542258D01*
X119726189Y-100745204D01*
X119720202Y-100923049D01*
X119714053Y-101076922D01*
X119707694Y-101207952D01*
X119701079Y-101317265D01*
X119694161Y-101405991D01*
X119690926Y-101439603D01*
X119683705Y-101538890D01*
X119267157Y-101538890D01*
X119267081Y-101537632D01*
X119265877Y-101530484D01*
X119260549Y-101488292D01*
X119260472Y-101453508D01*
X119261258Y-101448357D01*
X119267975Y-101401346D01*
X119273828Y-101328742D01*
X119278834Y-101230157D01*
X119283011Y-101105201D01*
X119286377Y-100953486D01*
X119287775Y-100866579D01*
X119290984Y-100716898D01*
X119295945Y-100591425D01*
X119302603Y-100491108D01*
X119310908Y-100416897D01*
X119313414Y-100401528D01*
X119327537Y-100313702D01*
X119337164Y-100230679D01*
X119342529Y-100146122D01*
X119343863Y-100053695D01*
X119341401Y-99947061D01*
X119335376Y-99819883D01*
X119335039Y-99813839D01*
X119329969Y-99718883D01*
X119325210Y-99621821D01*
X119321111Y-99530355D01*
X119318019Y-99452189D01*
X119316483Y-99403500D01*
X119314073Y-99338871D01*
X119310509Y-99280405D01*
X119306349Y-99236116D01*
X119303616Y-99218847D01*
X119300047Y-99190930D01*
X119296422Y-99141649D01*
X119293080Y-99076993D01*
X119290360Y-99002953D01*
X119289443Y-98968721D01*
X119287734Y-98888571D01*
X119287360Y-98830833D01*
X119288855Y-98790579D01*
X119292754Y-98762876D01*
X119299593Y-98742794D01*
X119309906Y-98725402D01*
X119316898Y-98715679D01*
X119347322Y-98672905D01*
X119376762Y-98629330D01*
X119378098Y-98627275D01*
X119399777Y-98598701D01*
X119417442Y-98583554D01*
X119420346Y-98582821D01*
X119437636Y-98574742D01*
X119467903Y-98553942D01*
X119492568Y-98534657D01*
X119529917Y-98506651D01*
X119561805Y-98492365D01*
X119600928Y-98487470D01*
X119631650Y-98487224D01*
X119674375Y-98487625D01*
X119737137Y-98488231D01*
X119812621Y-98488970D01*
X119893510Y-98489771D01*
X119923962Y-98490075D01*
X120056207Y-98490336D01*
X120186002Y-98488602D01*
X120309654Y-98485065D01*
X120423467Y-98479918D01*
X120523748Y-98473353D01*
X120606802Y-98465563D01*
X120668934Y-98456741D01*
X120699242Y-98449670D01*
X120738344Y-98438849D01*
X120773040Y-98434304D01*
X120812965Y-98435837D01*
X120867753Y-98443245D01*
X120883895Y-98445828D01*
X120942597Y-98454905D01*
X120996039Y-98462369D01*
X121034496Y-98466880D01*
X121040245Y-98467362D01*
X121080526Y-98474408D01*
X121110487Y-98485224D01*
X121143646Y-98495170D01*
X121184535Y-98498295D01*
X121184579Y-98498294D01*
X121227917Y-98502498D01*
X121264718Y-98514600D01*
X121293884Y-98523444D01*
X121341455Y-98530934D01*
X121398482Y-98535766D01*
X121414785Y-98536460D01*
X121468918Y-98538684D01*
X121542648Y-98542343D01*
X121628282Y-98547024D01*
X121718124Y-98552314D01*
X121770489Y-98555585D01*
X121919823Y-98563712D01*
X122059264Y-98568501D01*
X122184644Y-98569914D01*
X122291791Y-98567910D01*
X122376538Y-98562449D01*
X122385998Y-98561450D01*
X122417831Y-98559297D01*
X122473124Y-98557108D01*
X122547985Y-98554972D01*
X122638518Y-98552980D01*
X122740829Y-98551222D01*
X122851024Y-98549788D01*
X122919439Y-98549119D01*
X123053166Y-98547729D01*
X123162942Y-98545954D01*
X123252170Y-98543630D01*
X123324254Y-98540592D01*
X123382597Y-98536675D01*
X123430604Y-98531714D01*
X123471678Y-98525544D01*
X123493914Y-98521296D01*
X123543151Y-98512258D01*
X123591332Y-98506287D01*
X123644589Y-98503127D01*
X123709055Y-98502521D01*
X123790862Y-98504216D01*
X123853270Y-98506320D01*
X124096363Y-98515257D01*
X124124692Y-98449874D01*
X124136600Y-98419573D01*
X124144126Y-98390264D01*
X124147809Y-98355475D01*
X124148184Y-98308739D01*
X124145788Y-98243586D01*
X124144307Y-98213516D01*
X124139743Y-98125395D01*
X124135939Y-98060222D01*
X124132283Y-98013624D01*
X124128159Y-97981229D01*
X124122954Y-97958663D01*
X124116054Y-97941554D01*
X124106844Y-97925528D01*
X124103008Y-97919440D01*
X124063922Y-97866876D01*
X124017771Y-97818605D01*
X123970391Y-97779584D01*
X123927619Y-97754771D01*
X123901710Y-97748465D01*
X123884932Y-97739160D01*
X123855392Y-97714472D01*
X123818749Y-97679238D01*
X123809111Y-97669317D01*
X123710195Y-97576757D01*
X123599634Y-97495006D01*
X123473397Y-97420268D01*
X123409474Y-97380093D01*
X123334084Y-97323546D01*
X123252799Y-97255655D01*
X123171191Y-97181449D01*
X123094833Y-97105956D01*
X123029296Y-97034205D01*
X122987829Y-96982086D01*
X122946363Y-96927376D01*
X122899804Y-96869582D01*
X122863326Y-96827020D01*
X122824231Y-96781014D01*
X122778537Y-96723701D01*
X122735158Y-96666307D01*
X122728869Y-96657646D01*
X122696031Y-96613618D01*
X122668604Y-96579625D01*
X122650761Y-96560720D01*
X122646947Y-96558481D01*
X122636898Y-96546708D01*
X122624458Y-96517296D01*
X122620626Y-96505392D01*
X122605450Y-96466995D01*
X122587968Y-96438979D01*
X122584266Y-96435327D01*
X122567066Y-96414857D01*
X122563812Y-96404897D01*
X122556084Y-96386730D01*
X122536570Y-96356483D01*
X122525596Y-96341602D01*
X122497885Y-96301756D01*
X122475550Y-96263387D01*
X122471178Y-96254146D01*
X122456047Y-96227437D01*
X122442793Y-96216532D01*
X122432720Y-96204568D01*
X122423989Y-96175242D01*
X122423057Y-96169979D01*
X122413746Y-96134229D01*
X122396403Y-96084221D01*
X122374681Y-96030433D01*
X122373394Y-96027488D01*
X122352848Y-95976368D01*
X122337855Y-95930855D01*
X122331356Y-95900000D01*
X122331286Y-95897897D01*
X122325971Y-95862639D01*
X122312958Y-95820572D01*
X122310769Y-95815141D01*
X122297119Y-95767907D01*
X122290163Y-95715457D01*
X122289952Y-95707466D01*
X122283664Y-95657089D01*
X122268355Y-95603290D01*
X122262596Y-95589271D01*
X122241071Y-95515451D01*
X122235341Y-95445652D01*
X122231244Y-95387561D01*
X122220954Y-95329483D01*
X122212368Y-95300107D01*
X122201909Y-95255095D01*
X122194795Y-95190499D01*
X122193558Y-95164626D01*
X122599564Y-95164626D01*
X122599900Y-95240733D01*
X122602318Y-95321961D01*
X122606533Y-95403132D01*
X122612261Y-95479066D01*
X122619217Y-95544584D01*
X122627117Y-95594509D01*
X122635676Y-95623661D01*
X122638072Y-95627309D01*
X122652817Y-95656946D01*
X122659520Y-95696765D01*
X122659557Y-95699694D01*
X122664178Y-95742901D01*
X122676067Y-95797246D01*
X122692261Y-95852182D01*
X122709800Y-95897162D01*
X122720188Y-95915616D01*
X122746196Y-95956256D01*
X122768052Y-95998694D01*
X122781001Y-96033177D01*
X122782659Y-96043827D01*
X122790274Y-96074209D01*
X122810827Y-96119884D01*
X122840877Y-96174232D01*
X122876983Y-96230635D01*
X122887585Y-96245720D01*
X122912670Y-96284193D01*
X122929208Y-96316367D01*
X122933117Y-96330429D01*
X122941433Y-96350369D01*
X122963523Y-96384422D01*
X122995099Y-96426154D01*
X123004926Y-96438183D01*
X123065322Y-96512749D01*
X123107929Y-96569595D01*
X123132275Y-96608058D01*
X123138287Y-96625089D01*
X123147172Y-96645242D01*
X123170912Y-96679301D01*
X123205132Y-96722342D01*
X123245455Y-96769440D01*
X123287507Y-96815672D01*
X123326913Y-96856112D01*
X123359296Y-96885836D01*
X123380283Y-96899920D01*
X123382926Y-96900430D01*
X123396079Y-96909326D01*
X123424163Y-96933311D01*
X123462561Y-96968335D01*
X123491987Y-96996176D01*
X123534490Y-97036316D01*
X123569477Y-97068177D01*
X123592441Y-97087724D01*
X123598888Y-97091922D01*
X123611792Y-97100267D01*
X123639855Y-97122454D01*
X123677736Y-97154212D01*
X123690143Y-97164903D01*
X123752723Y-97216923D01*
X123811699Y-97261844D01*
X123862747Y-97296680D01*
X123901542Y-97318446D01*
X123921236Y-97324448D01*
X123945023Y-97333095D01*
X123966644Y-97348863D01*
X124016223Y-97390039D01*
X124050738Y-97408393D01*
X124070200Y-97403930D01*
X124070922Y-97402885D01*
X124080254Y-97375234D01*
X124081857Y-97359331D01*
X124077498Y-97334581D01*
X124065714Y-97292124D01*
X124048762Y-97239840D01*
X124042697Y-97222551D01*
X124013249Y-97135936D01*
X123987309Y-97051537D01*
X123966371Y-96974906D01*
X123951931Y-96911593D01*
X123945486Y-96867149D01*
X123945287Y-96860947D01*
X123936087Y-96814232D01*
X123911759Y-96757791D01*
X123877212Y-96700523D01*
X123837358Y-96651328D01*
X123821209Y-96636057D01*
X123774827Y-96604416D01*
X123721504Y-96578850D01*
X123707057Y-96573954D01*
X123666522Y-96557703D01*
X123636905Y-96538099D01*
X123629824Y-96529501D01*
X123610454Y-96508566D01*
X123596625Y-96503769D01*
X123574137Y-96496504D01*
X123540267Y-96478201D01*
X123525297Y-96468549D01*
X123484482Y-96444847D01*
X123445526Y-96428397D01*
X123435655Y-96425779D01*
X123403018Y-96406554D01*
X123375409Y-96367668D01*
X123355187Y-96316684D01*
X123344715Y-96261166D01*
X123346353Y-96208679D01*
X123357386Y-96175028D01*
X123381246Y-96148772D01*
X123421096Y-96120510D01*
X123466735Y-96096132D01*
X123507961Y-96081528D01*
X123522472Y-96079714D01*
X123553931Y-96085723D01*
X123593038Y-96100882D01*
X123631340Y-96120804D01*
X123660386Y-96141098D01*
X123671728Y-96157214D01*
X123682301Y-96177669D01*
X123710246Y-96207681D01*
X123749902Y-96242907D01*
X123795608Y-96279008D01*
X123841703Y-96311642D01*
X123882527Y-96336469D01*
X123912418Y-96349148D01*
X123922265Y-96349327D01*
X123933575Y-96333077D01*
X123942598Y-96292892D01*
X123949688Y-96227143D01*
X123950147Y-96221200D01*
X123955978Y-96148813D01*
X123963292Y-96064759D01*
X123970726Y-95984579D01*
X123972451Y-95966880D01*
X123978116Y-95889153D01*
X123977976Y-95831687D01*
X123972505Y-95798991D01*
X123951751Y-95764867D01*
X123914643Y-95721850D01*
X123867501Y-95676355D01*
X123816643Y-95634796D01*
X123797188Y-95621054D01*
X123740086Y-95581795D01*
X123672851Y-95534148D01*
X123607049Y-95486382D01*
X123566636Y-95456242D01*
X123534002Y-95434985D01*
X123507741Y-95423741D01*
X123503546Y-95423209D01*
X123481862Y-95415180D01*
X123449246Y-95394831D01*
X123432363Y-95382175D01*
X123397605Y-95357827D01*
X123368661Y-95343120D01*
X123359750Y-95341141D01*
X123332211Y-95332785D01*
X123317177Y-95322942D01*
X123291775Y-95307495D01*
X123252194Y-95289236D01*
X123231722Y-95281201D01*
X123173102Y-95248293D01*
X123121139Y-95198739D01*
X123081373Y-95139827D01*
X123059347Y-95078846D01*
X123056703Y-95051071D01*
X123068064Y-94985647D01*
X123097872Y-94926510D01*
X123141379Y-94877722D01*
X123193836Y-94843347D01*
X123250497Y-94827446D01*
X123306612Y-94834082D01*
X123309193Y-94835030D01*
X123332638Y-94848901D01*
X123366367Y-94874512D01*
X123404171Y-94906378D01*
X123439843Y-94939011D01*
X123467174Y-94966927D01*
X123479956Y-94984640D01*
X123480236Y-94986174D01*
X123490530Y-95015461D01*
X123517710Y-95054434D01*
X123556227Y-95097129D01*
X123600529Y-95137582D01*
X123645067Y-95169828D01*
X123658050Y-95177224D01*
X123684781Y-95194201D01*
X123724896Y-95223052D01*
X123770707Y-95258203D01*
X123781151Y-95266520D01*
X123841443Y-95311795D01*
X123899403Y-95349774D01*
X123950768Y-95378208D01*
X123991275Y-95394844D01*
X124016662Y-95397431D01*
X124021872Y-95393659D01*
X124025101Y-95375022D01*
X124027450Y-95334340D01*
X124028756Y-95276914D01*
X124028854Y-95208048D01*
X124028518Y-95178367D01*
X124027213Y-95088123D01*
X124025762Y-94982547D01*
X124024327Y-94873665D01*
X124023069Y-94773498D01*
X124022859Y-94756134D01*
X124020196Y-94533592D01*
X123979322Y-94512597D01*
X123948176Y-94492066D01*
X123907414Y-94459306D01*
X123870058Y-94425365D01*
X123825302Y-94386071D01*
X123778075Y-94350862D01*
X123744799Y-94330737D01*
X123709947Y-94311691D01*
X123687250Y-94296195D01*
X123683248Y-94291722D01*
X123671690Y-94278737D01*
X123644067Y-94251880D01*
X123604823Y-94215384D01*
X123569078Y-94183013D01*
X123503084Y-94119718D01*
X123455015Y-94062949D01*
X123419027Y-94005690D01*
X123415195Y-93998360D01*
X123388528Y-93943286D01*
X123375114Y-93903498D01*
X123374151Y-93870816D01*
X123384836Y-93837058D01*
X123396915Y-93812083D01*
X123442423Y-93743785D01*
X123495254Y-93699564D01*
X123553354Y-93680375D01*
X123614664Y-93687171D01*
X123641787Y-93698466D01*
X123675292Y-93720796D01*
X123714853Y-93754689D01*
X123754892Y-93794297D01*
X123789831Y-93833773D01*
X123814091Y-93867267D01*
X123822185Y-93887590D01*
X123830466Y-93909899D01*
X123851419Y-93944438D01*
X123879209Y-93983295D01*
X123908000Y-94018553D01*
X123931957Y-94042299D01*
X123939887Y-94047232D01*
X123967311Y-94056169D01*
X123985182Y-94055300D01*
X123995116Y-94040792D01*
X123998730Y-94008814D01*
X123997641Y-93955533D01*
X123995594Y-93915212D01*
X123990235Y-93836564D01*
X124300914Y-93836564D01*
X124305581Y-93849886D01*
X124306946Y-93850242D01*
X124318624Y-93840657D01*
X124321431Y-93836564D01*
X124320347Y-93823960D01*
X124315400Y-93822886D01*
X124301471Y-93832815D01*
X124300914Y-93836564D01*
X123990235Y-93836564D01*
X123989095Y-93819841D01*
X123980800Y-93734143D01*
X123971282Y-93662280D01*
X123961115Y-93608415D01*
X123950873Y-93576708D01*
X123948397Y-93572769D01*
X123940838Y-93550887D01*
X123932994Y-93507249D01*
X123925477Y-93447442D01*
X123918902Y-93377050D01*
X123913881Y-93301660D01*
X123911189Y-93233804D01*
X123908301Y-93184478D01*
X123902988Y-93144728D01*
X123897088Y-93124782D01*
X123890620Y-93102070D01*
X123885013Y-93060873D01*
X123881469Y-93010056D01*
X123881445Y-93009448D01*
X123878190Y-92955574D01*
X123873364Y-92908328D01*
X123868266Y-92879106D01*
X123861935Y-92844325D01*
X123861516Y-92823271D01*
X123860366Y-92796065D01*
X123854171Y-92749994D01*
X123854070Y-92749404D01*
X124125318Y-92749404D01*
X124128809Y-92786981D01*
X124129810Y-92793776D01*
X124134829Y-92834410D01*
X124140758Y-92893565D01*
X124146763Y-92962462D01*
X124150863Y-93015885D01*
X124156827Y-93086846D01*
X124164094Y-93155232D01*
X124171629Y-93212040D01*
X124176820Y-93241572D01*
X124188780Y-93299731D01*
X124200755Y-93361568D01*
X124203843Y-93378352D01*
X124212744Y-93426134D01*
X124220974Y-93464869D01*
X124230870Y-93504001D01*
X124244769Y-93552974D01*
X124258718Y-93600134D01*
X124272985Y-93652696D01*
X124283213Y-93699256D01*
X124287234Y-93729916D01*
X124287236Y-93730360D01*
X124294505Y-93763347D01*
X124312036Y-93784322D01*
X124333422Y-93786242D01*
X124336510Y-93784489D01*
X124349634Y-93766901D01*
X124366637Y-93733224D01*
X124374590Y-93714294D01*
X124392309Y-93674702D01*
X124412873Y-93645633D01*
X124443994Y-93617963D01*
X124475248Y-93595201D01*
X124517422Y-93580996D01*
X124566796Y-93587866D01*
X124617392Y-93612910D01*
X124663232Y-93653231D01*
X124696698Y-93702581D01*
X124711118Y-93758921D01*
X124706972Y-93826021D01*
X124685706Y-93895989D01*
X124649497Y-93959946D01*
X124620619Y-93995825D01*
X124595902Y-94020501D01*
X124582681Y-94028056D01*
X124565956Y-94039153D01*
X124546508Y-94066463D01*
X124543280Y-94072509D01*
X124515245Y-94126443D01*
X124483245Y-94186052D01*
X124450467Y-94245631D01*
X124420097Y-94299475D01*
X124395319Y-94341879D01*
X124379321Y-94367136D01*
X124377149Y-94370005D01*
X124351300Y-94408912D01*
X124337041Y-94452840D01*
X124333450Y-94508172D01*
X124339603Y-94581291D01*
X124343000Y-94606190D01*
X124349334Y-94663468D01*
X124355063Y-94740271D01*
X124359746Y-94828771D01*
X124362942Y-94921137D01*
X124364003Y-94978675D01*
X124364972Y-95061547D01*
X124365941Y-95138060D01*
X124366837Y-95202722D01*
X124367583Y-95250042D01*
X124368032Y-95272108D01*
X124369304Y-95319337D01*
X124423450Y-95266466D01*
X124452080Y-95235790D01*
X124469043Y-95212211D01*
X124471231Y-95203297D01*
X124475262Y-95187503D01*
X124492972Y-95160167D01*
X124502066Y-95148792D01*
X124529301Y-95108977D01*
X124556939Y-95056723D01*
X124580903Y-95001275D01*
X124597116Y-94951881D01*
X124601767Y-94922663D01*
X124611538Y-94891999D01*
X124629186Y-94869251D01*
X124649595Y-94845663D01*
X124656374Y-94829517D01*
X124663733Y-94797007D01*
X124683136Y-94751588D01*
X124709790Y-94701913D01*
X124738902Y-94656635D01*
X124765679Y-94624405D01*
X124773651Y-94617783D01*
X124829505Y-94591160D01*
X124884066Y-94590608D01*
X124939576Y-94616458D01*
X124977734Y-94648059D01*
X125012167Y-94682968D01*
X125030708Y-94710056D01*
X125038207Y-94739335D01*
X125039525Y-94775563D01*
X125032803Y-94854672D01*
X125010869Y-94927655D01*
X124971072Y-95000159D01*
X124910758Y-95077830D01*
X124883074Y-95108616D01*
X124857444Y-95142128D01*
X124830117Y-95186349D01*
X124820539Y-95204361D01*
X124792558Y-95253881D01*
X124760061Y-95302973D01*
X124750298Y-95315968D01*
X124719894Y-95358520D01*
X124687408Y-95409729D01*
X124673469Y-95433881D01*
X124646842Y-95479605D01*
X124611941Y-95536191D01*
X124575986Y-95591955D01*
X124573411Y-95595834D01*
X124538972Y-95649892D01*
X124506526Y-95704724D01*
X124482568Y-95749310D01*
X124480805Y-95752956D01*
X124440790Y-95816365D01*
X124387092Y-95873890D01*
X124331524Y-95913875D01*
X124316032Y-95926465D01*
X124306257Y-95948280D01*
X124300204Y-95985919D01*
X124296916Y-96028361D01*
X124293138Y-96081130D01*
X124287377Y-96151951D01*
X124280409Y-96231659D01*
X124273009Y-96311088D01*
X124272823Y-96313015D01*
X124266844Y-96383000D01*
X124263060Y-96444484D01*
X124261721Y-96491682D01*
X124263077Y-96518808D01*
X124263798Y-96521604D01*
X124283423Y-96543374D01*
X124314887Y-96543078D01*
X124355185Y-96521628D01*
X124401311Y-96479936D01*
X124401407Y-96479833D01*
X124464269Y-96409164D01*
X124520601Y-96339727D01*
X124565870Y-96277391D01*
X124594935Y-96229239D01*
X124619865Y-96187250D01*
X124647843Y-96149687D01*
X124649207Y-96148142D01*
X124668786Y-96121874D01*
X124697066Y-96078462D01*
X124729676Y-96024793D01*
X124751566Y-95986887D01*
X124801334Y-95902052D01*
X124842525Y-95840673D01*
X124877534Y-95801150D01*
X124908760Y-95781883D01*
X124938600Y-95781269D01*
X124969450Y-95797707D01*
X124997214Y-95822820D01*
X125020942Y-95848960D01*
X125032805Y-95871545D01*
X125035524Y-95900622D01*
X125031821Y-95946238D01*
X125031494Y-95949342D01*
X125023078Y-96000247D01*
X125010543Y-96044770D01*
X125000746Y-96066074D01*
X124981376Y-96099535D01*
X124958431Y-96143696D01*
X124949646Y-96161820D01*
X124919194Y-96219344D01*
X124878031Y-96288014D01*
X124832619Y-96357684D01*
X124789420Y-96418207D01*
X124773297Y-96438696D01*
X124716657Y-96509972D01*
X124677963Y-96564210D01*
X124655725Y-96603622D01*
X124649394Y-96622302D01*
X124641025Y-96663170D01*
X124636221Y-96686602D01*
X124624250Y-96716126D01*
X124599712Y-96759575D01*
X124567287Y-96809637D01*
X124531652Y-96859000D01*
X124504551Y-96892414D01*
X124473555Y-96917200D01*
X124431522Y-96938671D01*
X124421899Y-96942163D01*
X124387481Y-96954863D01*
X124373019Y-96968804D01*
X124372456Y-96993699D01*
X124375932Y-97015901D01*
X124383489Y-97062869D01*
X124392236Y-97119701D01*
X124396390Y-97147595D01*
X124415091Y-97218772D01*
X124447009Y-97287780D01*
X124449986Y-97292726D01*
X124472838Y-97332183D01*
X124488239Y-97363209D01*
X124492406Y-97376276D01*
X124501215Y-97396801D01*
X124514183Y-97412660D01*
X124528131Y-97423268D01*
X124544705Y-97424201D01*
X124570826Y-97413949D01*
X124613348Y-97391042D01*
X124658613Y-97364522D01*
X124697572Y-97339723D01*
X124718093Y-97324894D01*
X124757251Y-97295589D01*
X124796348Y-97271464D01*
X124826757Y-97257600D01*
X124834992Y-97256058D01*
X124853545Y-97248027D01*
X124884617Y-97227431D01*
X124907282Y-97210065D01*
X124947107Y-97181783D01*
X124984913Y-97161080D01*
X125000561Y-97155431D01*
X125029393Y-97142523D01*
X125069878Y-97117062D01*
X125112482Y-97085161D01*
X125150920Y-97054819D01*
X125181066Y-97032815D01*
X125196816Y-97023586D01*
X125197264Y-97023532D01*
X125209636Y-97014430D01*
X125237912Y-96989284D01*
X125278597Y-96951335D01*
X125328193Y-96903825D01*
X125362322Y-96870558D01*
X125430442Y-96802012D01*
X125478439Y-96749635D01*
X125507329Y-96712230D01*
X125518126Y-96688601D01*
X125518254Y-96686591D01*
X125525705Y-96657921D01*
X125544769Y-96618448D01*
X125559939Y-96593833D01*
X125580649Y-96560088D01*
X125598680Y-96522567D01*
X125615662Y-96476416D01*
X125633223Y-96416778D01*
X125652992Y-96338798D01*
X125670468Y-96264405D01*
X125687473Y-96187381D01*
X125697795Y-96130122D01*
X125701910Y-96085992D01*
X125700295Y-96048354D01*
X125693427Y-96010570D01*
X125689772Y-95995702D01*
X125682148Y-95947345D01*
X125678546Y-95883279D01*
X125679538Y-95816470D01*
X125680266Y-95742371D01*
X125676333Y-95659464D01*
X125668619Y-95585927D01*
X125660908Y-95525170D01*
X125652903Y-95447617D01*
X125645610Y-95363796D01*
X125640588Y-95293268D01*
X125632581Y-95180545D01*
X125623804Y-95091556D01*
X125613691Y-95022680D01*
X125601677Y-94970296D01*
X125587194Y-94930783D01*
X125582456Y-94921223D01*
X125566846Y-94886572D01*
X125559393Y-94859887D01*
X125559288Y-94857816D01*
X125553264Y-94832379D01*
X125538855Y-94799005D01*
X125523844Y-94757699D01*
X125518339Y-94720768D01*
X125509397Y-94683916D01*
X125487521Y-94645380D01*
X125484059Y-94641070D01*
X125461292Y-94604537D01*
X125450102Y-94567991D01*
X125449864Y-94563339D01*
X125443400Y-94527892D01*
X125427268Y-94484749D01*
X125420980Y-94472062D01*
X125399544Y-94431158D01*
X125372141Y-94377951D01*
X125347241Y-94328971D01*
X125318166Y-94277631D01*
X125286144Y-94230593D01*
X125259863Y-94199891D01*
X125233374Y-94170424D01*
X125218508Y-94145266D01*
X125217339Y-94139446D01*
X125209825Y-94112877D01*
X125189824Y-94070939D01*
X125161147Y-94020234D01*
X125127607Y-93967364D01*
X125093015Y-93918929D01*
X125081945Y-93904954D01*
X125051970Y-93865986D01*
X125013501Y-93812710D01*
X124972779Y-93753868D01*
X124953001Y-93724300D01*
X124913344Y-93667106D01*
X124872060Y-93612352D01*
X124835492Y-93568265D01*
X124820195Y-93552040D01*
X124790204Y-93520065D01*
X124770510Y-93494128D01*
X124765966Y-93483546D01*
X124757623Y-93464490D01*
X124736690Y-93434990D01*
X124726944Y-93423281D01*
X124701554Y-93391921D01*
X124684922Y-93367445D01*
X124682490Y-93362304D01*
X124670735Y-93344353D01*
X124645740Y-93314056D01*
X124619334Y-93284893D01*
X124526752Y-93181244D01*
X124431323Y-93065226D01*
X124342716Y-92948793D01*
X124307753Y-92899605D01*
X124258856Y-92829518D01*
X124222541Y-92779237D01*
X124196159Y-92745844D01*
X124177058Y-92726423D01*
X124162590Y-92718058D01*
X124150103Y-92717831D01*
X124144244Y-92719676D01*
X124129956Y-92729571D01*
X124125318Y-92749404D01*
X123854070Y-92749404D01*
X123844386Y-92692770D01*
X123832465Y-92632100D01*
X123819865Y-92575695D01*
X123808040Y-92531262D01*
X123804153Y-92519401D01*
X123790605Y-92489591D01*
X123777809Y-92481501D01*
X123764429Y-92496492D01*
X123749132Y-92535924D01*
X123733038Y-92591868D01*
X123719915Y-92630881D01*
X123696756Y-92689394D01*
X123665792Y-92762452D01*
X123629254Y-92845104D01*
X123589373Y-92932398D01*
X123548381Y-93019382D01*
X123508508Y-93101102D01*
X123471985Y-93172607D01*
X123468063Y-93180021D01*
X123448430Y-93223566D01*
X123434434Y-93265981D01*
X123433566Y-93269731D01*
X123421894Y-93302141D01*
X123399783Y-93347783D01*
X123371895Y-93397080D01*
X123370308Y-93399672D01*
X123343871Y-93446340D01*
X123324575Y-93487435D01*
X123316200Y-93514796D01*
X123316108Y-93516626D01*
X123307917Y-93543153D01*
X123286904Y-93580172D01*
X123268856Y-93605179D01*
X123237850Y-93653265D01*
X123213126Y-93707081D01*
X123205889Y-93730422D01*
X123192128Y-93772524D01*
X123175202Y-93804395D01*
X123167380Y-93812844D01*
X123133300Y-93845889D01*
X123093390Y-93896497D01*
X123052930Y-93957234D01*
X123017199Y-94020664D01*
X123011164Y-94032855D01*
X122982396Y-94086811D01*
X122949748Y-94139781D01*
X122926896Y-94171674D01*
X122899140Y-94210379D01*
X122865580Y-94263009D01*
X122829824Y-94323166D01*
X122795482Y-94384457D01*
X122766164Y-94440486D01*
X122745478Y-94484858D01*
X122737766Y-94506785D01*
X122728094Y-94541482D01*
X122712523Y-94590611D01*
X122694176Y-94645027D01*
X122676170Y-94695583D01*
X122661627Y-94733132D01*
X122657131Y-94743172D01*
X122649390Y-94768450D01*
X122640467Y-94811749D01*
X122632236Y-94863906D01*
X122631918Y-94866273D01*
X122623005Y-94931525D01*
X122613254Y-95000628D01*
X122606275Y-95048488D01*
X122601594Y-95098818D01*
X122599564Y-95164626D01*
X122193558Y-95164626D01*
X122191133Y-95113897D01*
X122191029Y-95032870D01*
X122194588Y-94954997D01*
X122201916Y-94887855D01*
X122206278Y-94864056D01*
X122215266Y-94820912D01*
X122227184Y-94761679D01*
X122239868Y-94697147D01*
X122243617Y-94677759D01*
X122256047Y-94618647D01*
X122268928Y-94566332D01*
X122280125Y-94529206D01*
X122283665Y-94520463D01*
X122298150Y-94481693D01*
X122308704Y-94440663D01*
X122323504Y-94395536D01*
X122344145Y-94357478D01*
X122364442Y-94323108D01*
X122387337Y-94275930D01*
X122400049Y-94245786D01*
X122418759Y-94201661D01*
X122445771Y-94142283D01*
X122476890Y-94076730D01*
X122497442Y-94034895D01*
X122532686Y-93965118D01*
X122563051Y-93907541D01*
X122594032Y-93852215D01*
X122631126Y-93789191D01*
X122656115Y-93747657D01*
X122671120Y-93722303D01*
X122694713Y-93681883D01*
X122721844Y-93635046D01*
X122722432Y-93634028D01*
X122753172Y-93586206D01*
X122785450Y-93544540D01*
X122811632Y-93518613D01*
X122837769Y-93496463D01*
X122850739Y-93479932D01*
X122851049Y-93478302D01*
X122858363Y-93462434D01*
X122877703Y-93430674D01*
X122905163Y-93389370D01*
X122910461Y-93381709D01*
X122942959Y-93333735D01*
X122971961Y-93288759D01*
X122991392Y-93256212D01*
X122991913Y-93255250D01*
X123011928Y-93216748D01*
X123037507Y-93165779D01*
X123066111Y-93107624D01*
X123095202Y-93047564D01*
X123122239Y-92990880D01*
X123144684Y-92942853D01*
X123159999Y-92908764D01*
X123165643Y-92893906D01*
X123171613Y-92878321D01*
X123187666Y-92844360D01*
X123211018Y-92797786D01*
X123227193Y-92766530D01*
X123253635Y-92714643D01*
X123274388Y-92671341D01*
X123286640Y-92642632D01*
X123288744Y-92635017D01*
X123294149Y-92616373D01*
X123308335Y-92580706D01*
X123328256Y-92535661D01*
X123328704Y-92534691D01*
X123356094Y-92472699D01*
X123372375Y-92425096D01*
X123379193Y-92382070D01*
X123378194Y-92333811D01*
X123371905Y-92277275D01*
X123364968Y-92193190D01*
X123370404Y-92127143D01*
X123390547Y-92071723D01*
X123427733Y-92019519D01*
X123465325Y-91980758D01*
X123504932Y-91945827D01*
X123539801Y-91920053D01*
X123563305Y-91908243D01*
X123565672Y-91907969D01*
X123585921Y-91897726D01*
X123589660Y-91885966D01*
X123598839Y-91866308D01*
X123623135Y-91834242D01*
X123657685Y-91796047D01*
X123665231Y-91788391D01*
X123704714Y-91750071D01*
X123733627Y-91727301D01*
X123760237Y-91715791D01*
X123792811Y-91711253D01*
X123815985Y-91710184D01*
X123870447Y-91712095D01*
G37*
D14*
%TO.C,J1*%
X135940000Y-104877000D02*
X135940000Y-106127000D01*
X135940000Y-106127000D02*
X137190000Y-106127000D01*
X138490000Y-93227000D02*
X138490000Y-93977000D01*
X138490000Y-93977000D02*
X141440000Y-93977000D01*
X138490000Y-105077000D02*
X141440000Y-105077000D01*
X138490000Y-105827000D02*
X138490000Y-105077000D01*
X141440000Y-93977000D02*
X141440000Y-99527000D01*
X141440000Y-105077000D02*
X141440000Y-99527000D01*
X136230000Y-105837000D02*
X142200000Y-105837000D01*
X142200000Y-93217000D01*
X136230000Y-93217000D01*
X136230000Y-105837000D01*
X136240000Y-95027000D02*
X136990000Y-95027000D01*
X136990000Y-93227000D01*
X136240000Y-93227000D01*
X136240000Y-95027000D01*
X136240000Y-102527000D02*
X136990000Y-102527000D01*
X136990000Y-96527000D01*
X136240000Y-96527000D01*
X136240000Y-102527000D01*
X136240000Y-105827000D02*
X136990000Y-105827000D01*
X136990000Y-104027000D01*
X136240000Y-104027000D01*
X136240000Y-105827000D01*
%TO.C,R1*%
X137130000Y-81507000D02*
X137460000Y-81507000D01*
X137130000Y-88047000D02*
X137130000Y-81507000D01*
X137460000Y-88047000D02*
X137130000Y-88047000D01*
X139540000Y-88047000D02*
X139870000Y-88047000D01*
X139870000Y-81507000D02*
X139540000Y-81507000D01*
X139870000Y-88047000D02*
X139870000Y-81507000D01*
%TD*%
D17*
%TO.C,U1*%
X146825000Y-57292000D03*
X146825000Y-59832000D03*
X146825000Y-62372000D03*
X146825000Y-64912000D03*
X146825000Y-67452000D03*
X146825000Y-69992000D03*
X146825000Y-72532000D03*
X122925000Y-57292000D03*
X122925000Y-59832000D03*
X122925000Y-62372000D03*
X122925000Y-64912000D03*
X122925000Y-67452000D03*
%TD*%
M02*
