M48
; DRILL file {KiCad 9.0.7} date 2026-02-10T08:41:25-0500
; FORMAT={-:-/ absolute / metric / decimal}
; #@! TF.CreationDate,2026-02-10T08:41:25-05:00
; #@! TF.GenerationSoftware,Kicad,Pcbnew,9.0.7
; #@! TF.FileFunction,Plated,1,2,PTH
FMAT,2
METRIC
; #@! TA.AperFunction,Plated,PTH,ComponentDrill
T1C0.800
; #@! TA.AperFunction,Plated,PTH,ComponentDrill
T2C0.950
; #@! TA.AperFunction,Plated,PTH,ComponentDrill
T3C1.000
; #@! TA.AperFunction,Plated,PTH,ComponentDrill
T4C1.016
; #@! TA.AperFunction,Plated,PTH,ComponentDrill
T5C2.500
%
G90
G05
T1
X138.5Y-80.967
X138.5Y-88.587
X146.49Y-80.967
X146.49Y-88.587
T2
X138.69Y-95.777
X138.69Y-98.277
X138.69Y-100.777
X138.69Y-103.277
X146.49Y-95.777
X146.49Y-98.277
X146.49Y-100.777
X146.49Y-103.277
T3
X122.72Y-110.92
X122.72Y-113.46
X122.72Y-116.0
X122.925Y-57.292
X122.925Y-59.832
X122.925Y-62.372
X122.925Y-64.912
X122.925Y-67.452
X125.26Y-110.92
X125.26Y-113.46
X125.26Y-116.0
X127.8Y-110.92
X127.8Y-113.46
X127.8Y-116.0
X130.34Y-110.92
X130.34Y-113.46
X130.34Y-116.0
X135.42Y-110.92
X135.42Y-113.46
X135.42Y-116.0
X137.96Y-110.92
X137.96Y-113.46
X137.96Y-116.0
X140.5Y-110.92
X140.5Y-113.46
X140.5Y-116.0
X143.04Y-110.92
X143.04Y-113.46
X143.04Y-116.0
X146.825Y-57.292
X146.825Y-59.832
X146.825Y-62.372
X146.825Y-64.912
X146.825Y-67.452
X146.825Y-69.992
X146.825Y-72.532
X150.66Y-110.92
X150.66Y-113.46
X150.66Y-116.0
X153.2Y-110.92
X153.2Y-113.46
X153.2Y-116.0
X154.37Y-52.99
X154.37Y-55.53
X154.37Y-58.07
X154.37Y-60.61
X154.37Y-63.15
X154.37Y-65.69
X154.37Y-68.23
X154.37Y-70.77
X154.37Y-73.31
X154.37Y-75.85
X154.37Y-78.39
X154.37Y-80.93
X154.37Y-83.47
X154.37Y-86.01
X154.37Y-88.55
X155.74Y-110.92
X155.74Y-113.46
X155.74Y-116.0
X158.28Y-110.92
X158.28Y-113.46
X158.28Y-116.0
X163.36Y-110.92
X163.36Y-113.46
X163.36Y-116.0
X165.9Y-110.92
X165.9Y-113.46
X165.9Y-116.0
X168.44Y-110.92
X168.44Y-113.46
X168.44Y-116.0
X169.61Y-52.99
X169.61Y-55.53
X169.61Y-58.07
X169.61Y-60.61
X169.61Y-63.15
X169.61Y-65.69
X169.61Y-68.23
X169.61Y-70.77
X169.61Y-73.31
X169.61Y-75.85
X169.61Y-78.39
X169.61Y-80.93
X169.61Y-83.47
X169.61Y-86.01
X169.61Y-88.55
X170.98Y-110.92
X170.98Y-113.46
X170.98Y-116.0
T4
X117.767Y-116.0
X117.767Y-118.54
X117.767Y-121.08
X117.767Y-123.62
X117.767Y-126.16
X117.767Y-128.7
X176.06Y-116.0
X176.06Y-118.54
X176.06Y-121.08
X176.06Y-123.62
X176.06Y-126.16
X176.06Y-128.7
T5
X118.91Y-112.698
X118.91Y-131.748
X174.79Y-112.698
X174.79Y-131.748
M30
